<svg width="241" height="32" viewBox="0 0 241 32" fill="none" xmlns="http://www.w3.org/2000/svg">
<path d="M0.523492 15.864C0.523492 12.8827 1.16849 10.231 2.45849 7.909C3.74849 5.55833 5.54016 3.738 7.83349 2.448C10.1555 1.12933 12.7785 0.469998 15.7025 0.469998C19.2858 0.469998 22.3532 1.416 24.9045 3.308C27.4558 5.2 29.1615 7.78 30.0215 11.048H21.9375C21.3355 9.78667 20.4755 8.82633 19.3575 8.167C18.2682 7.50767 17.0212 7.178 15.6165 7.178C13.3518 7.178 11.5172 7.96633 10.1125 9.543C8.70783 11.1197 8.00549 13.2267 8.00549 15.864C8.00549 18.5013 8.70783 20.6083 10.1125 22.185C11.5172 23.7617 13.3518 24.55 15.6165 24.55C17.0212 24.55 18.2682 24.2203 19.3575 23.561C20.4755 22.9017 21.3355 21.9413 21.9375 20.68H30.0215C29.1615 23.948 27.4558 26.528 24.9045 28.42C22.3532 30.2833 19.2858 31.215 15.7025 31.215C12.7785 31.215 10.1555 30.57 7.83349 29.28C5.54016 27.9613 3.74849 26.141 2.45849 23.819C1.16849 21.497 0.523492 18.8453 0.523492 15.864ZM41.8774 25.324H51.5094V31H34.5244V0.813999H41.8774V25.324ZM73.8076 25.668H62.5416L60.7356 31H53.0386L63.9606 0.813999H72.4746L83.3966 31H75.6136L73.8076 25.668ZM71.9156 19.992L68.1746 8.941L64.4766 19.992H71.9156ZM97.6427 31.301C95.4354 31.301 93.4574 30.9427 91.7087 30.226C89.96 29.5093 88.5554 28.4487 87.4947 27.044C86.4627 25.6393 85.918 23.948 85.8607 21.97H93.6867C93.8014 23.088 94.1884 23.948 94.8477 24.55C95.507 25.1233 96.367 25.41 97.4277 25.41C98.517 25.41 99.377 25.1663 100.008 24.679C100.638 24.163 100.954 23.4607 100.954 22.572C100.954 21.8267 100.696 21.2103 100.18 20.723C99.6924 20.2357 99.076 19.8343 98.3307 19.519C97.614 19.2037 96.582 18.8453 95.2347 18.444C93.2854 17.842 91.6944 17.24 90.4617 16.638C89.229 16.036 88.1684 15.1473 87.2797 13.972C86.391 12.7967 85.9467 11.263 85.9467 9.371C85.9467 6.56167 86.9644 4.36867 88.9997 2.792C91.035 1.18667 93.6867 0.383999 96.9547 0.383999C100.28 0.383999 102.96 1.18667 104.996 2.792C107.031 4.36867 108.12 6.576 108.264 9.414H100.309C100.251 8.43933 99.893 7.67967 99.2337 7.135C98.5744 6.56167 97.7287 6.275 96.6967 6.275C95.808 6.275 95.0914 6.51866 94.5467 7.006C94.002 7.46466 93.7297 8.13833 93.7297 9.027C93.7297 10.0017 94.1884 10.7613 95.1057 11.306C96.023 11.8507 97.4564 12.4383 99.4057 13.069C101.355 13.7283 102.932 14.359 104.136 14.961C105.368 15.563 106.429 16.4373 107.318 17.584C108.206 18.7307 108.651 20.207 108.651 22.013C108.651 23.733 108.206 25.2953 107.318 26.7C106.458 28.1047 105.196 29.2227 103.534 30.054C101.871 30.8853 99.9074 31.301 97.6427 31.301ZM124.098 31.301C121.89 31.301 119.912 30.9427 118.164 30.226C116.415 29.5093 115.01 28.4487 113.95 27.044C112.918 25.6393 112.373 23.948 112.316 21.97H120.142C120.256 23.088 120.643 23.948 121.303 24.55C121.962 25.1233 122.822 25.41 123.883 25.41C124.972 25.41 125.832 25.1663 126.463 24.679C127.093 24.163 127.409 23.4607 127.409 22.572C127.409 21.8267 127.151 21.2103 126.635 20.723C126.147 20.2357 125.531 19.8343 124.786 19.519C124.069 19.2037 123.037 18.8453 121.69 18.444C119.74 17.842 118.149 17.24 116.917 16.638C115.684 16.036 114.623 15.1473 113.735 13.972C112.846 12.7967 112.402 11.263 112.402 9.371C112.402 6.56167 113.419 4.36867 115.455 2.792C117.49 1.18667 120.142 0.383999 123.41 0.383999C126.735 0.383999 129.415 1.18667 131.451 2.792C133.486 4.36867 134.575 6.576 134.719 9.414H126.764C126.706 8.43933 126.348 7.67967 125.689 7.135C125.029 6.56167 124.184 6.275 123.152 6.275C122.263 6.275 121.546 6.51866 121.002 7.006C120.457 7.46466 120.185 8.13833 120.185 9.027C120.185 10.0017 120.643 10.7613 121.561 11.306C122.478 11.8507 123.911 12.4383 125.861 13.069C127.81 13.7283 129.387 14.359 130.591 14.961C131.823 15.563 132.884 16.4373 133.773 17.584C134.661 18.7307 135.106 20.207 135.106 22.013C135.106 23.733 134.661 25.2953 133.773 26.7C132.913 28.1047 131.651 29.2227 129.989 30.054C128.326 30.8853 126.362 31.301 124.098 31.301ZM168.394 0.813999V6.705H156.096V13.069H165.298V18.788H156.096V31H148.743V0.813999H168.394ZM179.483 0.813999V18.874C179.483 20.68 179.927 22.0703 180.816 23.045C181.704 24.0197 183.009 24.507 184.729 24.507C186.449 24.507 187.767 24.0197 188.685 23.045C189.602 22.0703 190.061 20.68 190.061 18.874V0.813999H197.414V18.831C197.414 21.5257 196.84 23.8047 195.694 25.668C194.547 27.5313 192.999 28.936 191.05 29.882C189.129 30.828 186.979 31.301 184.6 31.301C182.22 31.301 180.085 30.8423 178.193 29.925C176.329 28.979 174.853 27.5743 173.764 25.711C172.674 23.819 172.13 21.5257 172.13 18.831V0.813999H179.483ZM209.93 25.324H219.562V31H202.577V0.813999H209.93V25.324ZM230.422 25.324H240.054V31H223.069V0.813999H230.422V25.324Z" fill="#D9D9D9"/>
</svg>
