<svg width="180" height="180" viewBox="0 0 180 180" fill="none" xmlns="http://www.w3.org/2000/svg">
<path d="M36.9252 162.058C10.0296 146.52 10.0296 121.356 36.9252 105.84C63.8208 90.324 107.424 90.3132 134.316 105.84C161.208 121.367 161.212 146.542 134.316 162.068C107.42 177.595 63.8208 177.584 36.9252 162.058Z" fill="#F5F5F5"/>
<path d="M99.4248 145.159L100.976 146.056L49.9968 153.986V152.849L99.4248 145.159Z" fill="#E0E0E0"/>
<path d="M32.4937 158.76C29.0233 160.787 29.0233 164.07 32.4937 166.097C35.9641 168.124 41.5909 168.124 45.0649 166.097C48.5389 164.07 48.5353 160.787 45.0649 158.76C41.5945 156.733 35.9641 156.719 32.4937 158.76Z" fill="#E0E0E0"/>
<path d="M85.554 129.24C77.1588 134.143 77.1588 142.088 85.554 146.988C93.9492 151.888 107.557 151.888 115.949 146.988C124.34 142.088 124.34 134.143 115.949 129.24C107.557 124.337 93.96 124.355 85.554 129.24Z" fill="#E0E0E0"/>
<path d="M121.41 130.111C123.8 129.902 126.45 129.751 128.34 131.227C129.229 131.915 129.845 132.883 130.522 133.78C131.249 134.741 132.058 135.637 132.941 136.458C133.39 136.908 133.909 137.283 134.478 137.567C135.115 137.83 135.802 137.953 136.49 137.927C139.37 137.927 142.045 136.336 144.263 134.478C144.857 133.981 145.462 133.398 145.616 132.649C145.876 131.4 144.821 130.266 143.744 129.582C140.713 127.652 136.94 126.544 133.492 125.622C129.816 124.59 126.013 124.077 122.195 124.099C119.818 124.145 117.453 124.45 115.142 125.01C113.746 125.348 111.722 125.766 110.642 126.785C110.395 126.995 110.214 127.271 110.12 127.582C110.026 127.892 110.024 128.223 110.113 128.534C110.383 129.254 111.211 129.539 111.953 129.712C115.027 130.439 118.296 130.381 121.41 130.111Z" fill="#E0E0E0"/>
<path d="M42.3719 60.8401V62.2153C42.3719 62.6509 42.6779 62.8273 43.0523 62.6077L44.3807 61.8409V58.8925L43.0523 59.6593C42.8544 59.7891 42.6897 59.9636 42.5716 60.1687C42.4534 60.3737 42.385 60.6037 42.3719 60.8401Z" fill="#E0E0E0"/>
<path d="M44.3808 105.966L38.8368 109.17C38.6385 109.299 38.4735 109.472 38.3553 109.677C38.237 109.882 38.1689 110.111 38.1564 110.347V111.726C38.1564 112.158 38.4588 112.334 38.8368 112.118L44.3808 108.918V105.966Z" fill="#E0E0E0"/>
<path d="M38.16 59.6556V61.0344C38.16 61.4664 38.4624 61.6428 38.8404 61.4268L44.3844 58.2228V55.2744L38.8404 58.4784C38.6422 58.607 38.4772 58.7807 38.3589 58.9853C38.2407 59.1899 38.1725 59.4196 38.16 59.6556Z" fill="#E0E0E0"/>
<path d="M41.1552 75.24L34.8552 78.8796C34.6576 79.0088 34.493 79.1827 34.3748 79.3872C34.2567 79.5916 34.1881 79.821 34.1748 80.0568V81.4356C34.1748 81.8676 34.4808 82.044 34.8552 81.828L41.1552 78.192C41.3535 78.0626 41.5185 77.8882 41.6367 77.683C41.755 77.4778 41.8231 77.2477 41.8356 77.0112V75.636C41.8356 75.1824 41.5332 75.006 41.1552 75.24Z" fill="#E0E0E0"/>
<path d="M44.3808 91.4832L38.8368 94.6872C38.6385 94.8158 38.4735 94.9895 38.3553 95.1941C38.237 95.3987 38.1689 95.6284 38.1564 95.8644V97.2432C38.1564 97.6752 38.4588 97.8516 38.8368 97.6356L44.3808 94.4316V91.4832Z" fill="#E0E0E0"/>
<path d="M38.16 45.1728V46.548C38.16 46.9836 38.4624 47.16 38.8404 46.944L44.3844 43.74V40.7916L38.8404 43.9956C38.6418 44.1238 38.4765 44.2974 38.3582 44.5021C38.2399 44.7068 38.1719 44.9367 38.16 45.1728Z" fill="#E0E0E0"/>
<path d="M44.3808 127.692L38.8368 130.896C38.6385 131.025 38.4735 131.198 38.3553 131.403C38.237 131.608 38.1689 131.837 38.1564 132.073V133.452C38.1564 133.884 38.4588 134.06 38.8368 133.844L44.3808 130.64V127.692Z" fill="#E0E0E0"/>
<path d="M31.8456 88.7112V90.0864C31.8456 90.522 32.148 90.6984 32.526 90.4788L38.8224 86.8428C39.0211 86.7143 39.1866 86.5408 39.3055 86.3362C39.4244 86.1316 39.4932 85.9018 39.5064 85.6656V84.2868C39.5064 83.8548 39.2004 83.6784 38.8224 83.8944L32.526 87.5304C32.3277 87.6598 32.1627 87.8342 32.0445 88.0393C31.9262 88.2445 31.8581 88.4747 31.8456 88.7112Z" fill="#E0E0E0"/>
<path d="M38.16 74.1384V75.5172C38.16 75.9492 38.4624 76.1256 38.8404 75.9096L44.3844 72.7092V69.7572L38.8404 72.9612C38.6422 73.0898 38.4772 73.2635 38.3589 73.4681C38.2407 73.6727 38.1725 73.9024 38.16 74.1384Z" fill="#E0E0E0"/>
<path d="M37.62 97.5601V96.1849C37.62 95.7493 37.314 95.5729 36.9396 95.7925L30.6396 99.4285C30.442 99.5577 30.2774 99.7316 30.1593 99.9361C30.0411 100.141 29.9726 100.37 29.9592 100.606V101.984C29.9592 102.416 30.2652 102.593 30.6396 102.377L36.9396 98.7409C37.1376 98.6111 37.3022 98.4366 37.4204 98.2315C37.5386 98.0264 37.607 97.7964 37.62 97.5601Z" fill="#E0E0E0"/>
<path d="M34.8552 132.502L41.1552 128.866C41.3535 128.736 41.5185 128.562 41.6367 128.357C41.755 128.151 41.8231 127.921 41.8356 127.685V126.31C41.8356 125.874 41.5332 125.698 41.1552 125.917L34.8552 129.553C34.6576 129.682 34.493 129.856 34.3748 130.061C34.2567 130.265 34.1881 130.495 34.1748 130.73V132.12C34.1748 132.541 34.4808 132.718 34.8552 132.502Z" fill="#E0E0E0"/>
<path d="M37.6524 41.0904L31.3524 44.7264C31.1541 44.855 30.9892 45.0288 30.8709 45.2334C30.7526 45.438 30.6845 45.6676 30.672 45.9036V47.2824C30.672 47.7144 30.9744 47.8908 31.3524 47.6748L37.6524 44.0388C37.8503 43.909 38.015 43.7345 38.1332 43.5294C38.2514 43.3243 38.3197 43.0944 38.3328 42.858V41.4828C38.3328 41.04 38.0268 40.8708 37.6524 41.0904Z" fill="#E0E0E0"/>
<path d="M41.1552 46.2564L34.8552 49.8924C34.6573 50.0223 34.4926 50.1967 34.3744 50.4018C34.2562 50.6069 34.1879 50.8369 34.1748 51.0732V52.4484C34.1748 52.884 34.4808 53.0604 34.8552 52.8408L41.1552 49.2048C41.3535 49.0762 41.5184 48.9025 41.6367 48.6979C41.755 48.4933 41.8231 48.2636 41.8356 48.0276V46.6488C41.8356 46.2168 41.5332 46.0404 41.1552 46.2564Z" fill="#E0E0E0"/>
<path d="M41.1552 60.7392L34.8552 64.3788C34.6572 64.5077 34.4923 64.6814 34.3741 64.886C34.2559 65.0905 34.1876 65.3201 34.1748 65.556V66.9348C34.1748 67.3668 34.4808 67.5432 34.8552 67.3272L41.1552 63.6876C41.3535 63.559 41.5184 63.3853 41.6367 63.1807C41.755 62.9761 41.8231 62.7464 41.8356 62.5104V61.1316C41.8356 60.6996 41.5332 60.5232 41.1552 60.7392Z" fill="#E0E0E0"/>
<path d="M34.8552 103.536L41.1552 99.8964C41.3539 99.7682 41.5192 99.5946 41.6375 99.3899C41.7558 99.1852 41.8237 98.9553 41.8356 98.7192V97.3404C41.8356 96.9084 41.5332 96.732 41.1552 96.948L34.8552 100.588C34.6572 100.716 34.4923 100.89 34.3741 101.095C34.2559 101.299 34.1876 101.529 34.1748 101.765V103.144C34.1748 103.576 34.4808 103.752 34.8552 103.536Z" fill="#E0E0E0"/>
<path d="M44.3808 113.209L38.8368 116.413C38.6381 116.541 38.4728 116.715 38.3545 116.92C38.2362 117.124 38.1683 117.354 38.1564 117.59V118.966C38.1564 119.401 38.4588 119.578 38.8368 119.362L44.3808 116.158V113.209Z" fill="#E0E0E0"/>
<path d="M103.23 30.1968V31.572C103.218 31.8097 103.151 32.0412 103.032 32.2477C102.914 32.4542 102.749 32.6297 102.55 32.76L101.221 33.5268V30.5712L102.55 29.8044C102.924 29.5884 103.23 29.7612 103.23 30.1968Z" fill="#E0E0E0"/>
<path d="M101.221 77.6521L106.769 74.4517C107.129 74.2321 107.449 74.4085 107.449 74.8441V76.2193C107.436 76.4556 107.368 76.6856 107.25 76.8907C107.131 77.0958 106.967 77.2702 106.769 77.4001L101.221 80.6005V77.6521Z" fill="#E0E0E0"/>
<path d="M107.449 24.1524V25.5276C107.436 25.764 107.368 25.9939 107.25 26.199C107.131 26.4041 106.967 26.5786 106.769 26.7084L101.221 29.9088V26.9604L106.769 23.76C107.143 23.5404 107.449 23.7168 107.449 24.1524Z" fill="#E0E0E0"/>
<path d="M104.447 43.2L110.747 39.5604C111.107 39.3444 111.427 39.5208 111.427 39.9528V41.3316C111.414 41.5675 111.346 41.7971 111.228 42.0016C111.11 42.2062 110.945 42.38 110.747 42.5088L104.447 46.1484C104.069 46.3644 103.766 46.188 103.766 45.756V44.3772C103.779 44.1412 103.847 43.9115 103.965 43.7069C104.084 43.5023 104.249 43.3286 104.447 43.2Z" fill="#E0E0E0"/>
<path d="M101.221 63.1693L106.769 59.9689C107.129 59.7493 107.449 59.9257 107.449 60.3613V61.7365C107.436 61.9728 107.368 62.2028 107.25 62.4079C107.131 62.613 106.967 62.7874 106.769 62.9173L101.221 66.1177V63.1693Z" fill="#E0E0E0"/>
<path d="M107.449 9.66605V11.0449C107.439 11.2839 107.372 11.517 107.254 11.7249C107.136 11.9329 106.969 12.1095 106.769 12.2401L101.221 15.4441V12.4777L106.769 9.27365C107.143 9.05765 107.449 9.23405 107.449 9.66605Z" fill="#E0E0E0"/>
<path d="M101.221 99.378L106.769 96.1776C107.129 95.958 107.449 96.1344 107.449 96.57V97.9452C107.436 98.1816 107.368 98.4115 107.25 98.6166C107.131 98.8217 106.967 98.9962 106.769 99.126L101.221 102.326V99.378Z" fill="#E0E0E0"/>
<path d="M113.76 45.918V47.2968C113.747 47.5326 113.678 47.7619 113.56 47.9664C113.442 48.1709 113.277 48.3447 113.08 48.474L106.78 52.11C106.402 52.3296 106.099 52.1532 106.099 51.7176V50.3424C106.112 50.1059 106.18 49.8757 106.298 49.6706C106.416 49.4654 106.581 49.291 106.78 49.1616L113.08 45.5256C113.454 45.3096 113.76 45.486 113.76 45.918Z" fill="#E0E0E0"/>
<path d="M107.449 38.6352V40.0104C107.436 40.2468 107.368 40.4769 107.25 40.682C107.132 40.8872 106.967 41.0616 106.769 41.1912L101.221 44.3916V41.4432L106.769 38.2428C107.143 38.0232 107.449 38.1996 107.449 38.6352Z" fill="#E0E0E0"/>
<path d="M108 61.4197V60.0445C108.013 59.8081 108.081 59.578 108.199 59.3728C108.317 59.1677 108.482 58.9933 108.68 58.8637L114.98 55.2277C115.358 55.0117 115.661 55.1845 115.661 55.6201V56.9989C115.648 57.2349 115.58 57.4645 115.462 57.6691C115.344 57.8737 115.179 58.0474 114.98 58.1761L108.68 61.8121C108.288 62.0317 108 61.8553 108 61.4197Z" fill="#E0E0E0"/>
<path d="M110.747 93.1896L104.447 96.84C104.069 97.056 103.766 96.8796 103.766 96.4476V95.04C103.779 94.804 103.847 94.5743 103.965 94.3697C104.084 94.1651 104.249 93.9914 104.447 93.8628L110.747 90.2268C111.107 90.0072 111.427 90.1836 111.427 90.6192V91.9944C111.416 92.2332 111.349 92.4661 111.231 92.6738C111.112 92.8816 110.947 93.0584 110.747 93.1896Z" fill="#E0E0E0"/>
<path d="M104.447 14.2164L110.747 10.5804C111.107 10.3644 111.427 10.5408 111.427 10.9728V12.3516C111.414 12.5874 111.345 12.8168 111.227 13.0212C111.109 13.2257 110.944 13.3996 110.747 13.5288L104.447 17.1648C104.069 17.3844 103.766 17.208 103.766 16.7724V15.3972C103.779 15.1607 103.847 14.9306 103.965 14.7254C104.083 14.5202 104.248 14.3458 104.447 14.2164Z" fill="#E0E0E0"/>
<path d="M104.447 28.6992L110.747 25.0632C111.107 24.8472 111.427 25.0236 111.427 25.4556V26.8344C111.414 27.0702 111.345 27.2995 111.227 27.504C111.109 27.7085 110.944 27.8823 110.747 28.0116L104.447 31.6512C104.069 31.8672 103.766 31.6908 103.766 31.2552V29.88C103.779 29.6435 103.847 29.4133 103.965 29.2082C104.083 29.003 104.248 28.8286 104.447 28.6992Z" fill="#E0E0E0"/>
<path d="M110.747 64.2205L104.447 67.8601C104.069 68.0761 103.766 67.8997 103.766 67.4641V66.0889C103.779 65.8524 103.847 65.6222 103.965 65.417C104.083 65.2118 104.248 65.0375 104.447 64.9081L110.747 61.2721C111.107 61.0561 111.427 61.2325 111.427 61.6645V63.0433C111.414 63.279 111.345 63.5084 111.227 63.7129C111.109 63.9173 110.944 64.0912 110.747 64.2205Z" fill="#E0E0E0"/>
<path d="M101.221 84.8953L106.769 81.6913C107.129 81.4753 107.449 81.6517 107.449 82.0837V83.4625C107.436 83.6982 107.367 83.9276 107.249 84.1321C107.131 84.3365 106.966 84.5104 106.769 84.6397L101.221 87.8401V84.8953Z" fill="#E0E0E0"/>
<path d="M49.9968 99.9216L95.4432 126.173V16.3296L49.9968 42.5844V99.9216Z" fill="#6A94E5"/>
<path opacity="0.4" d="M49.9968 99.9216L95.4432 126.173V16.3296L49.9968 42.5844V99.9216Z" fill="black"/>
<path d="M95.4432 126.173L49.9968 99.9216V152.402L95.4432 126.173Z" fill="#E0E0E0"/>
<path d="M95.4431 126.173L97.5671 127.393V15.1021L95.4431 16.3297V126.173Z" fill="#6A94E5"/>
<path opacity="0.4" d="M95.4431 126.173L97.5671 127.393V15.1021L95.4431 16.3297V126.173Z" fill="white"/>
<path opacity="0.1" d="M95.4431 126.173L97.5671 127.393V15.1021L95.4431 16.3297V126.173Z" fill="black"/>
<path d="M97.5672 127.393L101.221 125.284V7.39807L46.4724 39.0061L46.476 156.892L49.9968 154.858V42.5845L97.5672 15.1021V127.393Z" fill="#6A94E5"/>
<path opacity="0.7" d="M97.5672 127.393L101.221 125.284V7.39807L46.4724 39.0061L46.476 156.892L49.9968 154.858V42.5845L97.5672 15.1021V127.393Z" fill="white"/>
<path d="M101.221 7.39801L46.4723 39.006L44.3807 37.7892L99.1295 6.18481L101.221 7.39801Z" fill="#6A94E5"/>
<path opacity="0.85" d="M101.221 7.39801L46.4723 39.006L44.3807 37.7892L99.1295 6.18481L101.221 7.39801Z" fill="white"/>
<path d="M46.4724 156.892V39.006L44.3808 37.7892L44.3484 155.664L46.4724 156.892Z" fill="#6A94E5"/>
<path opacity="0.6" d="M44.3808 37.7892L44.3484 155.664L46.4724 156.892V39.006" fill="white"/>
<path d="M121.446 32.04C121.849 32.0048 122.255 32.0279 122.652 32.1084C123.034 32.1816 123.4 32.3231 123.732 32.526C124.046 32.7181 124.315 32.976 124.52 33.282C124.705 33.5805 124.826 33.9143 124.874 34.2621C124.923 34.6099 124.898 34.964 124.801 35.3016C124.718 35.5581 124.596 35.8008 124.441 36.0216C124.291 36.2386 124.122 36.4421 123.937 36.63L123.412 37.1556C123.253 37.314 123.108 37.4863 122.98 37.6704C122.865 37.8337 122.798 38.0256 122.785 38.2248C122.775 38.3169 122.742 38.405 122.688 38.4804C122.663 38.5165 122.629 38.5464 122.591 38.5676C122.552 38.5888 122.509 38.6009 122.465 38.6028L121.475 38.6856C121.428 38.6897 121.38 38.6845 121.335 38.6703C121.29 38.6561 121.248 38.6332 121.212 38.6028C121.175 38.5752 121.145 38.5394 121.124 38.4981C121.104 38.4569 121.093 38.4113 121.093 38.3652C121.077 38.0552 121.125 37.7452 121.234 37.4544C121.335 37.198 121.469 36.9559 121.633 36.7344C121.791 36.5206 121.967 36.3206 122.159 36.1368C122.35 35.9532 122.519 35.7768 122.684 35.6148C122.833 35.4651 122.964 35.2998 123.077 35.1216C123.175 34.9688 123.219 34.7876 123.203 34.6068C123.191 34.4478 123.142 34.2939 123.058 34.1584C122.974 34.023 122.858 33.91 122.72 33.8292C122.378 33.6309 121.979 33.5512 121.586 33.6024C121.234 33.6263 120.898 33.7585 120.624 33.9808C120.351 34.2032 120.152 34.5048 120.056 34.8444C120.029 34.9257 119.989 35.0022 119.938 35.0712C119.872 35.1291 119.788 35.1611 119.7 35.1612L118.649 35.2476C118.612 35.2522 118.574 35.2492 118.538 35.2387C118.502 35.2281 118.469 35.2103 118.44 35.1864C118.41 35.1628 118.385 35.1328 118.368 35.0986C118.35 35.0644 118.341 35.0268 118.339 34.9884C118.327 34.6586 118.396 34.3309 118.541 34.0344C118.69 33.6871 118.9 33.3689 119.16 33.0948C119.453 32.8026 119.791 32.5595 120.161 32.3748C120.563 32.1787 121 32.0649 121.446 32.04ZM122.584 39.3804C122.677 39.375 122.768 39.406 122.839 39.4668C122.875 39.4954 122.905 39.5314 122.926 39.5724C122.947 39.6134 122.959 39.6584 122.962 39.7044L123.059 40.8492C123.065 40.9419 123.036 41.0335 122.976 41.1048C122.947 41.1409 122.91 41.1704 122.868 41.1914C122.827 41.2125 122.781 41.2247 122.735 41.2272L121.619 41.3208C121.573 41.3254 121.526 41.3204 121.482 41.3062C121.438 41.2919 121.398 41.2687 121.363 41.238C121.327 41.2091 121.297 41.1731 121.276 41.1323C121.254 41.0914 121.241 41.0465 121.237 41.0004L121.144 39.8556C121.138 39.8095 121.143 39.7628 121.157 39.7187C121.171 39.6746 121.195 39.6341 121.226 39.6C121.255 39.5634 121.291 39.5332 121.332 39.5115C121.373 39.4898 121.418 39.477 121.464 39.474L122.584 39.3804Z" fill="#6A94E5"/>
<path d="M129.51 44.4564C129.816 44.5415 130.109 44.6713 130.377 44.8416C130.636 44.9988 130.864 45.2012 131.051 45.4392C131.225 45.6698 131.347 45.9349 131.411 46.2168C131.479 46.5182 131.467 46.8325 131.375 47.1276C131.315 47.3642 131.207 47.586 131.058 47.7792C130.926 47.946 130.771 48.0927 130.597 48.2148C130.426 48.3319 130.245 48.4343 130.057 48.5208L129.524 48.7656C129.364 48.8374 129.211 48.9242 129.067 49.0248C128.936 49.1135 128.833 49.2386 128.772 49.3848C128.739 49.4504 128.689 49.5063 128.628 49.5468C128.599 49.5664 128.567 49.5792 128.532 49.5842C128.498 49.5892 128.463 49.5862 128.43 49.5756L127.677 49.3632C127.641 49.3544 127.608 49.338 127.578 49.315C127.549 49.292 127.525 49.263 127.508 49.23C127.489 49.1998 127.477 49.1656 127.473 49.1299C127.469 49.0943 127.474 49.0583 127.487 49.0248C127.563 48.7925 127.685 48.5782 127.847 48.3948C127.993 48.2319 128.158 48.088 128.34 47.9664C128.516 47.8519 128.701 47.7531 128.894 47.6712C129.085 47.5884 129.254 47.5092 129.423 47.43C129.574 47.3619 129.716 47.2774 129.848 47.178C129.965 47.0881 130.047 46.9611 130.082 46.818C130.121 46.6958 130.128 46.5659 130.104 46.4401C130.079 46.3143 130.024 46.1967 129.942 46.098C129.745 45.8582 129.474 45.6899 129.171 45.6192C128.905 45.5393 128.621 45.5438 128.357 45.6321C128.093 45.7204 127.864 45.8882 127.699 46.1124C127.658 46.1647 127.608 46.2097 127.551 46.2456C127.488 46.2696 127.417 46.2696 127.353 46.2456L126.554 46.0188C126.526 46.0119 126.499 45.9995 126.476 45.9821C126.452 45.9648 126.432 45.943 126.417 45.918C126.402 45.8918 126.391 45.8625 126.388 45.8321C126.384 45.8017 126.387 45.7708 126.396 45.7416C126.478 45.4953 126.619 45.2729 126.806 45.0936C127.016 44.8878 127.259 44.7197 127.526 44.5968C127.823 44.4629 128.139 44.3766 128.462 44.3412C128.816 44.3112 129.171 44.3504 129.51 44.4564ZM128.325 50.1768C128.36 50.1862 128.393 50.2025 128.421 50.2248C128.45 50.2471 128.474 50.2748 128.491 50.3064C128.509 50.3383 128.521 50.3735 128.525 50.41C128.53 50.4465 128.527 50.4835 128.516 50.5188L128.271 51.3864C128.262 51.4213 128.246 51.4539 128.223 51.4823C128.201 51.5108 128.173 51.5344 128.142 51.552C128.11 51.57 128.075 51.5816 128.038 51.5859C128.002 51.5902 127.965 51.5873 127.929 51.5772L127.08 51.3396C127.045 51.3299 127.013 51.313 126.985 51.2901C126.957 51.2672 126.934 51.2386 126.918 51.2064C126.899 51.1754 126.887 51.1409 126.882 51.105C126.877 51.069 126.879 51.0325 126.889 50.9976L127.134 50.1264C127.144 50.0914 127.161 50.0587 127.184 50.0303C127.207 50.0019 127.235 49.9783 127.267 49.9608C127.298 49.9426 127.333 49.931 127.369 49.9267C127.405 49.9224 127.441 49.9254 127.476 49.9356L128.325 50.1768Z" fill="#6A94E5"/>
<g opacity="0.2">
<path d="M129.51 44.4564C129.816 44.5415 130.109 44.6713 130.377 44.8416C130.636 44.9988 130.864 45.2012 131.051 45.4392C131.225 45.6698 131.347 45.9349 131.411 46.2168C131.479 46.5182 131.467 46.8325 131.375 47.1276C131.315 47.3642 131.207 47.586 131.058 47.7792C130.926 47.946 130.771 48.0927 130.597 48.2148C130.426 48.3319 130.245 48.4343 130.057 48.5208L129.524 48.7656C129.364 48.8374 129.211 48.9242 129.067 49.0248C128.936 49.1135 128.833 49.2386 128.772 49.3848C128.739 49.4504 128.689 49.5063 128.628 49.5468C128.599 49.5664 128.567 49.5792 128.532 49.5842C128.498 49.5892 128.463 49.5862 128.43 49.5756L127.677 49.3632C127.641 49.3544 127.608 49.338 127.578 49.315C127.549 49.292 127.525 49.263 127.508 49.23C127.489 49.1998 127.477 49.1656 127.473 49.1299C127.469 49.0943 127.474 49.0583 127.487 49.0248C127.563 48.7925 127.685 48.5782 127.847 48.3948C127.993 48.2319 128.158 48.088 128.34 47.9664C128.516 47.8519 128.701 47.7531 128.894 47.6712C129.085 47.5884 129.254 47.5092 129.423 47.43C129.574 47.3619 129.716 47.2774 129.848 47.178C129.965 47.0881 130.047 46.9611 130.082 46.818C130.121 46.6958 130.128 46.5659 130.104 46.4401C130.079 46.3143 130.024 46.1967 129.942 46.098C129.745 45.8582 129.474 45.6899 129.171 45.6192C128.905 45.5393 128.621 45.5438 128.357 45.6321C128.093 45.7204 127.864 45.8882 127.699 46.1124C127.658 46.1647 127.608 46.2097 127.551 46.2456C127.488 46.2696 127.417 46.2696 127.353 46.2456L126.554 46.0188C126.526 46.0119 126.499 45.9995 126.476 45.9821C126.452 45.9648 126.432 45.943 126.417 45.918C126.402 45.8918 126.391 45.8625 126.388 45.8321C126.384 45.8017 126.387 45.7708 126.396 45.7416C126.478 45.4953 126.619 45.2729 126.806 45.0936C127.016 44.8878 127.259 44.7197 127.526 44.5968C127.823 44.4629 128.139 44.3766 128.462 44.3412C128.816 44.3112 129.171 44.3504 129.51 44.4564ZM128.325 50.1768C128.36 50.1862 128.393 50.2025 128.421 50.2248C128.45 50.2471 128.474 50.2748 128.491 50.3064C128.509 50.3383 128.521 50.3735 128.525 50.41C128.53 50.4465 128.527 50.4835 128.516 50.5188L128.271 51.3864C128.262 51.4213 128.246 51.4539 128.223 51.4823C128.201 51.5108 128.173 51.5344 128.142 51.552C128.11 51.57 128.075 51.5816 128.038 51.5859C128.002 51.5902 127.965 51.5873 127.929 51.5772L127.08 51.3396C127.045 51.3299 127.013 51.313 126.985 51.2901C126.957 51.2672 126.934 51.2386 126.918 51.2064C126.899 51.1754 126.887 51.1409 126.882 51.105C126.877 51.069 126.879 51.0325 126.889 50.9976L127.134 50.1264C127.144 50.0914 127.161 50.0587 127.184 50.0303C127.207 50.0019 127.235 49.9783 127.267 49.9608C127.298 49.9426 127.333 49.931 127.369 49.9267C127.405 49.9224 127.441 49.9254 127.476 49.9356L128.325 50.1768Z" fill="black"/>
</g>
<path d="M133.409 40.356C133.439 40.3752 133.465 40.4005 133.485 40.4302C133.504 40.46 133.518 40.4936 133.524 40.5288C133.531 40.5634 133.531 40.599 133.525 40.6337C133.518 40.6683 133.504 40.7012 133.484 40.7304L132.991 41.4504C132.972 41.4807 132.947 41.5065 132.917 41.5264C132.887 41.5462 132.854 41.5596 132.818 41.5656C132.784 41.5727 132.748 41.5729 132.713 41.5661C132.679 41.5593 132.646 41.5457 132.617 41.526L131.897 41.0436C131.867 41.0243 131.842 40.9989 131.822 40.9692C131.803 40.9394 131.79 40.9059 131.785 40.8708C131.778 40.8363 131.778 40.8007 131.785 40.7661C131.791 40.7315 131.805 40.6986 131.825 40.6692L132.318 39.9492C132.358 39.8948 132.417 39.8572 132.484 39.8439C132.551 39.8306 132.62 39.8425 132.678 39.8772L133.409 40.356ZM136.253 35.4276C136.509 35.601 136.739 35.8094 136.937 36.0468C137.127 36.2718 137.276 36.529 137.376 36.8064C137.473 37.0724 137.509 37.3563 137.484 37.638C137.455 37.9386 137.348 38.2265 137.174 38.4732C137.045 38.6724 136.879 38.8448 136.685 38.9808C136.511 39.0933 136.322 39.1806 136.123 39.24C135.929 39.2972 135.73 39.337 135.529 39.3588L134.964 39.42C134.793 39.4388 134.624 39.4738 134.46 39.5244C134.314 39.5659 134.182 39.6469 134.078 39.7584C134.03 39.8115 133.968 39.8491 133.898 39.8664C133.865 39.8758 133.831 39.8774 133.797 39.8711C133.763 39.8649 133.731 39.851 133.704 39.8304L133.074 39.4056C133.044 39.386 133.019 39.3606 132.999 39.3309C132.979 39.3013 132.965 39.2679 132.959 39.2328C132.949 39.1982 132.948 39.1619 132.956 39.1268C132.963 39.0917 132.979 39.0589 133.002 39.0312C133.143 38.8416 133.319 38.6803 133.52 38.556C133.705 38.451 133.902 38.3699 134.107 38.3148C134.304 38.2618 134.505 38.2256 134.708 38.2068C134.91 38.2068 135.097 38.1708 135.273 38.1492C135.433 38.1308 135.59 38.0958 135.741 38.0448C135.873 37.9984 135.986 37.9115 136.065 37.7964C136.135 37.696 136.178 37.5803 136.193 37.4593C136.207 37.3382 136.192 37.2155 136.148 37.1016C136.04 36.8185 135.842 36.5792 135.583 36.4212C135.361 36.2665 135.097 36.1836 134.827 36.1836C134.557 36.1836 134.293 36.2665 134.071 36.4212C134.017 36.4577 133.958 36.4845 133.895 36.5004C133.827 36.5043 133.761 36.4839 133.707 36.4428L133.038 36C133.014 35.985 132.993 35.9651 132.977 35.9415C132.961 35.918 132.95 35.8913 132.944 35.8632C132.937 35.8342 132.937 35.8038 132.943 35.7745C132.949 35.7452 132.962 35.7177 132.98 35.694C133.131 35.4925 133.329 35.3307 133.556 35.2224C133.814 35.0935 134.094 35.013 134.381 34.9848C134.696 34.9502 135.014 34.9672 135.324 35.0352C135.656 35.1058 135.971 35.239 136.253 35.4276Z" fill="#6A94E5"/>
<g opacity="0.6">
<path d="M133.409 40.356C133.439 40.3752 133.465 40.4005 133.485 40.4302C133.504 40.46 133.518 40.4936 133.524 40.5288C133.531 40.5634 133.531 40.599 133.525 40.6337C133.518 40.6683 133.504 40.7012 133.484 40.7304L132.991 41.4504C132.972 41.4807 132.947 41.5065 132.917 41.5264C132.887 41.5462 132.854 41.5596 132.818 41.5656C132.784 41.5727 132.748 41.5729 132.713 41.5661C132.679 41.5593 132.646 41.5457 132.617 41.526L131.897 41.0436C131.867 41.0243 131.842 40.9989 131.822 40.9692C131.803 40.9394 131.79 40.9059 131.785 40.8708C131.778 40.8363 131.778 40.8007 131.785 40.7661C131.791 40.7315 131.805 40.6986 131.825 40.6692L132.318 39.9492C132.358 39.8948 132.417 39.8572 132.484 39.8439C132.551 39.8306 132.62 39.8425 132.678 39.8772L133.409 40.356ZM136.253 35.4276C136.509 35.601 136.739 35.8094 136.937 36.0468C137.127 36.2718 137.276 36.529 137.376 36.8064C137.473 37.0724 137.509 37.3563 137.484 37.638C137.455 37.9386 137.348 38.2265 137.174 38.4732C137.045 38.6724 136.879 38.8448 136.685 38.9808C136.511 39.0933 136.322 39.1806 136.123 39.24C135.929 39.2972 135.73 39.337 135.529 39.3588L134.964 39.42C134.793 39.4388 134.624 39.4738 134.46 39.5244C134.314 39.5659 134.182 39.6469 134.078 39.7584C134.03 39.8115 133.968 39.8491 133.898 39.8664C133.865 39.8758 133.831 39.8774 133.797 39.8711C133.763 39.8649 133.731 39.851 133.704 39.8304L133.074 39.4056C133.044 39.386 133.019 39.3606 132.999 39.3309C132.979 39.3013 132.965 39.2679 132.959 39.2328C132.949 39.1982 132.948 39.1619 132.956 39.1268C132.963 39.0917 132.979 39.0589 133.002 39.0312C133.143 38.8416 133.319 38.6803 133.52 38.556C133.705 38.451 133.902 38.3699 134.107 38.3148C134.304 38.2618 134.505 38.2256 134.708 38.2068C134.91 38.2068 135.097 38.1708 135.273 38.1492C135.433 38.1308 135.59 38.0958 135.741 38.0448C135.873 37.9984 135.986 37.9115 136.065 37.7964C136.135 37.696 136.178 37.5803 136.193 37.4593C136.207 37.3382 136.192 37.2155 136.148 37.1016C136.04 36.8185 135.842 36.5792 135.583 36.4212C135.361 36.2665 135.097 36.1836 134.827 36.1836C134.557 36.1836 134.293 36.2665 134.071 36.4212C134.017 36.4577 133.958 36.4845 133.895 36.5004C133.827 36.5043 133.761 36.4839 133.707 36.4428L133.038 36C133.014 35.985 132.993 35.9651 132.977 35.9415C132.961 35.918 132.95 35.8913 132.944 35.8632C132.937 35.8342 132.937 35.8038 132.943 35.7745C132.949 35.7452 132.962 35.7177 132.98 35.694C133.131 35.4925 133.329 35.3307 133.556 35.2224C133.814 35.0935 134.094 35.013 134.381 34.9848C134.696 34.9502 135.014 34.9672 135.324 35.0352C135.656 35.1058 135.971 35.239 136.253 35.4276Z" fill="white"/>
</g>
<path d="M103.716 137.88C103.637 138.737 104.195 140.969 104.195 140.969C104.195 140.969 104.67 141.689 106.023 142.02L106.117 138.78L103.716 137.88Z" fill="#263238"/>
<path d="M106.023 142.002L108.695 140.652L108.99 138.056L106.077 140.134L106.023 142.002Z" fill="black"/>
<path d="M108.054 134.14L108 133.596C108.41 133.726 109.487 136.76 110.945 138.697C112.277 140.465 114.494 141.217 115.29 141.959C116.352 142.942 114.84 144.652 111.963 144.479C110.523 144.392 108.309 143.831 107.6 142.985C106.891 142.139 106.434 140.465 105.865 139.838C105.296 139.212 104.065 138.604 103.723 137.858C103.529 137.448 103.601 136.498 103.723 135.698C103.831 134.953 103.95 134.136 104.205 134.176C104.205 134.266 104.267 134.633 104.267 134.633C104.353 134.993 104.832 135.374 106.326 135.212C106.988 135.133 108.173 134.878 108.054 134.14Z" fill="#455A64"/>
<path d="M78.5914 121.284C78.1342 121.914 77.3278 126.324 77.3278 126.324C77.3278 126.324 78.3826 127.865 78.991 128.333L80.9458 124.186L78.5914 121.284Z" fill="#263238"/>
<path d="M78.991 128.315L82.5766 127.49L83.9086 124.729L80.1754 125.77L78.991 128.315Z" fill="black"/>
<path d="M81.2626 118.487C81.0574 118.332 80.7622 118.735 80.0458 119.376C79.5418 119.826 78.4546 120.251 78.4546 121.536C78.4546 122.461 79.0702 123.602 79.6606 124.56C80.251 125.518 80.3374 126.378 80.3338 127.739C80.3338 129.384 80.0314 130.392 82.0546 131.857C83.6746 133.027 86.965 133.243 87.6886 132.577C88.927 131.418 86.0362 129.827 85.5646 127.454C84.9166 124.182 84.8446 123.635 84.9346 121.334L81.2626 118.487Z" fill="#455A64"/>
<path d="M112.921 78.2639C111.344 79.1171 106.556 79.3439 99.8385 77.9039L100.634 97.3439C100.634 97.3439 94.7481 101.52 92.9373 103.799C91.1265 106.078 82.4181 117.148 82.4181 117.148L81.2158 118.541C80.4706 119.405 80.8557 120.571 81.7197 121.316C82.5513 122 83.635 122.483 84.445 121.777L85.4385 120.913C85.4385 120.913 104.9 105.912 105.599 104.954C106.297 103.997 107.935 101.621 109.703 96.6059C111.985 90.1727 112.367 85.5143 112.921 78.2639Z" fill="#FFA8A7"/>
<path d="M112.917 78.2639C108.666 80.2151 100.119 79.5491 100.119 79.5491L100.512 97.3151C98.3626 98.6225 96.3508 100.143 94.507 101.855C91.9582 104.31 88.0702 109.415 88.0702 109.415C89.4022 113.162 93.1966 114.912 93.1966 114.912C93.1966 114.912 101.178 109.321 105.642 106.157C107.978 104.504 109.735 103.583 110.437 100.894C110.989 98.8347 111.415 96.744 111.711 94.6331C112.093 92.3111 112.277 89.6687 112.5 87.7139C112.88 84.5792 113.02 81.42 112.917 78.2639Z" fill="#6A94E5"/>
<path opacity="0.4" d="M112.917 78.2639C108.666 80.2151 100.119 79.5491 100.119 79.5491L100.512 97.3151C98.3626 98.6225 96.3508 100.143 94.507 101.855C91.9582 104.31 88.0702 109.415 88.0702 109.415C89.4022 113.162 93.1966 114.912 93.1966 114.912C93.1966 114.912 101.178 109.321 105.642 106.157C107.978 104.504 109.735 103.583 110.437 100.894C110.989 98.8347 111.415 96.744 111.711 94.6331C112.093 92.3111 112.277 89.6687 112.5 87.7139C112.88 84.5792 113.02 81.42 112.917 78.2639Z" fill="black"/>
<path opacity="0.1" d="M105.818 101.315L105.141 91.494L102.621 89.1504L100.461 94.9284L100.515 97.3152C99.1214 98.1672 97.7809 99.1038 96.5013 100.12L96.8613 100.987L98.9097 105.937C98.9097 105.937 98.1897 109.314 98.4921 111.179C100.85 109.523 103.532 107.633 105.545 106.211L105.818 101.315Z" fill="black"/>
<path d="M108.191 134.568V134.165C107.881 130.532 108.381 110.56 108.36 105.17C108.335 99.3349 107.28 85.1976 107.28 85.1976C107.28 85.1976 110.729 80.694 112.95 78.264C110.851 80.6652 100.267 79.4484 99.6298 74.826C98.7622 76.6476 95.6698 78.5268 95.4142 84.5136C95.0542 92.142 100.454 105.631 100.454 105.631C100.249 106.65 99.3238 110.92 99.8674 114.862C100.724 121.082 103.799 132.08 104.123 133.582L104.321 134.86C104.994 135.695 107.705 135.569 108.191 134.568Z" fill="#FFA8A7"/>
<path d="M108.435 94.4964L108.126 86.5296C108.126 86.5296 111.333 85.6944 112.633 82.998C112.875 81.4324 112.972 79.8476 112.921 78.264C112.921 78.264 110.116 79.5636 106.174 78.6024C103.689 77.9386 101.421 76.6368 99.5937 74.826C99.5937 74.826 98.8377 75.5712 97.2861 77.886C96.5445 78.9912 95.2917 81.846 95.1837 84.0744C94.9353 89.1612 96.5589 94.59 96.5589 94.59C97.3869 98.5716 99.8997 105.818 99.8997 105.818C99.8997 105.818 98.9421 111.096 99.4245 114.88C99.9069 118.663 101.437 122.94 101.437 122.94C101.437 122.94 105.703 124.38 108.507 122.71C108.507 122.71 108.64 109.552 108.691 104.418C108.741 99.2844 108.435 94.4964 108.435 94.4964Z" fill="#6A94E5"/>
<path opacity="0.3" d="M108.435 94.4964L108.126 86.5296C108.126 86.5296 111.333 85.6944 112.633 82.998C112.875 81.4324 112.972 79.8476 112.921 78.264C112.921 78.264 110.116 79.5636 106.174 78.6024C103.689 77.9386 101.421 76.6368 99.5937 74.826C99.5937 74.826 98.8377 75.5712 97.2861 77.886C96.5445 78.9912 95.2917 81.846 95.1837 84.0744C94.9353 89.1612 96.5589 94.59 96.5589 94.59C97.3869 98.5716 99.8997 105.818 99.8997 105.818C99.8997 105.818 98.9421 111.096 99.4245 114.88C99.9069 118.663 101.437 122.94 101.437 122.94C101.437 122.94 105.703 124.38 108.507 122.71C108.507 122.71 108.64 109.552 108.691 104.418C108.741 99.2844 108.435 94.4964 108.435 94.4964Z" fill="black"/>
<path d="M122.893 61.11C123.38 60.5583 123.664 59.8575 123.699 59.1227C123.735 58.388 123.519 57.6631 123.087 57.0672C121.608 54.7524 118.116 55.6524 118.116 55.6524L117.183 54.1512C117.536 54.0578 117.903 54.0357 118.263 54.0864C118.918 54.1114 119.571 54.0188 120.193 53.8128C120.86 53.6285 121.44 53.214 121.831 52.6428C122.017 52.3535 122.101 52.0105 122.069 51.6681C122.038 51.3258 121.893 51.0037 121.658 50.7528C122.005 50.7552 122.347 50.684 122.664 50.5437C122.981 50.4034 123.264 50.1974 123.495 49.9393C123.725 49.6812 123.899 49.377 124.003 49.0467C124.107 48.7165 124.14 48.3679 124.099 48.024C124.086 47.8137 124.008 47.6125 123.876 47.448C123.689 47.2829 123.464 47.1677 123.221 47.1132C122.564 46.8828 121.963 46.5146 121.46 46.0332C120.463 45.0792 120.042 43.9596 118.663 43.0632C117.496 42.2954 116.129 41.8896 114.732 41.8968C113.151 41.8968 111.726 42.3504 110.657 43.6572C108.893 43.6572 106.596 44.7048 105.026 49.0572C103.482 53.3412 104.043 58.3452 106.963 62.82C108.889 65.772 116.568 70.6752 122.058 68.742C127.548 66.8088 125.24 61.2468 122.893 61.11Z" fill="#263238"/>
<path d="M113.735 59.9508C117.997 60.7428 118.242 62.8704 118.458 64.7316C119.016 69.5808 118.055 77.5908 117.72 79.3548C117.72 79.3548 111.989 77.6052 112.053 77.3208C112.118 77.0364 113.735 59.9508 113.735 59.9508Z" fill="#FFA8A7"/>
<path d="M113.803 76.5432C113.803 76.5432 115.733 76.0932 117.191 76.5432C117.191 76.5432 115.992 75.2976 113.252 76.1076L113.803 76.5432Z" fill="#F28F8F"/>
<path d="M113.313 77.9184C113.93 76.368 114.412 74.7673 114.753 73.134C117.601 71.6688 118.224 69.4836 117.633 67.4352C116.409 63.2196 115.218 61.1676 114.123 59.9508C113.274 59.3496 110.25 58.5108 110.25 58.5108C109.71 58.4244 104.817 57.8088 103.323 57.6864C102.515 58.3114 101.901 59.1527 101.552 60.1128C101.264 61.0056 100.76 61.7652 100.76 64.818L101.329 70.2756C101.329 70.2756 101.48 71.91 100.908 72.8604C100.335 73.8108 98.0027 75.5496 96.9263 77.9004C96.9263 77.9004 97.0559 81.4788 103.637 82.9728C108.99 84.1896 112.961 82.2528 112.961 82.2528C113.195 80.8199 113.313 79.3704 113.313 77.9184Z" fill="#F5F5F5"/>
<path d="M117.785 69.444C117.607 69.218 117.349 69.0686 117.065 69.0264C116.445 68.9508 115.859 69.2748 115.286 69.5304C114.228 70.002 113.011 70.2504 111.906 69.9084C110.711 69.5232 109.746 68.4684 108.504 68.3604C107.319 68.2668 106.261 69.0804 105.39 69.876C104.101 71.0748 102.906 72.396 101.43 73.3644C100.796 73.7704 100.14 74.1395 99.4642 74.4696L99.1762 74.772L99.1186 74.8332C98.899 75.0672 98.6722 75.3156 98.4526 75.5748L98.3698 75.6756L98.1322 75.9636L98.017 76.1112L97.819 76.374L97.7002 76.5396L97.5166 76.8132L97.4086 76.9824C97.3438 77.0832 97.2862 77.184 97.225 77.2884L97.1386 77.4396C97.0558 77.5944 96.973 77.7528 96.901 77.9148C96.9241 78.1614 96.981 78.4037 97.0702 78.6348C97.212 79.0083 97.402 79.3617 97.6354 79.686C97.7326 79.8192 97.837 79.9524 97.9558 80.0892C98.8594 81.1224 100.526 82.2816 103.608 82.9692C104.827 83.2476 106.076 83.3817 107.327 83.3688C107.748 83.3688 108.151 83.3436 108.536 83.3076C108.921 83.2716 109.285 83.2284 109.616 83.1744C110.07 83.1024 110.487 83.016 110.862 82.926C111.571 82.7646 112.262 82.533 112.925 82.2348C113.089 81.258 113.195 80.2722 113.241 79.2828C113.241 79.0704 113.263 78.8508 113.27 78.6204C113.277 78.39 113.27 78.1488 113.27 77.9004C113.63 76.8816 113.961 75.9564 114.206 75.15C114.267 74.9484 114.325 74.754 114.375 74.5668C114.515 74.0936 114.626 73.6128 114.71 73.1268C116.676 72.144 117.583 70.8264 117.785 69.444Z" fill="#EBEBEB"/>
<path d="M119.657 47.7216C119.97 48.4236 120.459 49.5468 119.351 53.9532C118.411 57.6864 116.985 58.338 116.312 58.464C115.639 58.59 114.512 58.1652 113.706 57.8556L112.388 60.1956C112.507 61.2036 112.853 63.234 112.187 64.5156C110.25 63.0396 108.27 61.254 106.913 58.4604L109.037 53.8128C109.037 53.8128 107.805 54.4032 107.147 52.992C106.538 51.6924 106.765 50.6088 107.669 50.0292C107.879 49.8944 108.121 49.8149 108.37 49.7982C108.62 49.7815 108.87 49.8281 109.097 49.9336C109.324 50.0392 109.52 50.2002 109.668 50.402C109.816 50.6037 109.911 50.8395 109.944 51.0876C110.138 52.2 111.218 52.2828 111.517 50.6304C111.607 50.1264 112.032 47.3904 113.979 46.782C116.28 49.68 119.21 49.2732 119.657 47.7216Z" fill="#FFA8A7"/>
<path d="M114.624 51.5303C114.603 51.6275 114.553 51.7163 114.482 51.7857C114.411 51.8551 114.321 51.9021 114.223 51.9208C114.126 51.9395 114.025 51.9292 113.933 51.891C113.841 51.8528 113.763 51.7886 113.707 51.7061C113.651 51.6237 113.621 51.5268 113.62 51.4274C113.619 51.328 113.647 51.2304 113.701 51.1469C113.755 51.0634 113.833 50.9976 113.924 50.9576C114.015 50.9176 114.115 50.9052 114.213 50.9219C114.28 50.9349 114.344 50.9609 114.401 50.9985C114.458 51.0361 114.507 51.0845 114.545 51.141C114.583 51.1975 114.61 51.261 114.623 51.3278C114.637 51.3946 114.637 51.4634 114.624 51.5303Z" fill="#263238"/>
<path d="M115.2 55.4904C115.19 55.5544 115.168 55.6158 115.134 55.6711C115.101 55.7264 115.057 55.7745 115.004 55.8127C114.952 55.8508 114.893 55.8783 114.83 55.8934C114.767 55.9085 114.702 55.911 114.638 55.9008C114.538 55.8877 114.445 55.845 114.369 55.7782C114.294 55.7114 114.24 55.6235 114.215 55.5259C114.19 55.4284 114.195 55.3256 114.229 55.2308C114.263 55.136 114.325 55.0536 114.406 54.9942C114.488 54.9348 114.585 54.9011 114.686 54.8974C114.786 54.8938 114.886 54.9204 114.971 54.9738C115.056 55.0272 115.124 55.1049 115.165 55.197C115.205 55.2891 115.218 55.3913 115.2 55.4904Z" fill="#B16668"/>
<path d="M118.901 50.8393L118.098 49.9573C118.151 49.9013 118.215 49.8567 118.287 49.8263C118.358 49.7958 118.434 49.7802 118.512 49.7802C118.589 49.7802 118.666 49.7958 118.737 49.8263C118.808 49.8567 118.872 49.9013 118.926 49.9573C119.039 50.0779 119.1 50.2383 119.095 50.4035C119.09 50.5687 119.02 50.7253 118.901 50.8393Z" fill="#263238"/>
<path d="M114.458 49.4316L113.36 49.8924C113.326 49.8221 113.307 49.7456 113.304 49.6676C113.301 49.5897 113.314 49.5119 113.342 49.4391C113.37 49.3663 113.412 49.2999 113.467 49.2442C113.521 49.1884 113.587 49.1444 113.659 49.1148C113.807 49.0548 113.973 49.0542 114.122 49.1132C114.271 49.1722 114.391 49.2862 114.458 49.4316Z" fill="#263238"/>
<path d="M118.4 52.2324C118.389 52.2981 118.364 52.3609 118.328 52.4172C118.292 52.4735 118.246 52.5221 118.191 52.5604C118.137 52.5987 118.075 52.6258 118.01 52.6403C117.945 52.6547 117.877 52.6562 117.812 52.6446C117.746 52.633 117.683 52.6086 117.627 52.5728C117.57 52.5369 117.522 52.4903 117.484 52.4357C117.445 52.381 117.418 52.3194 117.404 52.2542C117.389 52.1891 117.388 52.1217 117.399 52.056C117.423 51.9233 117.498 51.8053 117.608 51.728C117.719 51.6507 117.855 51.6204 117.988 51.6438C118.121 51.6672 118.239 51.7424 118.316 51.8528C118.393 51.9631 118.424 52.0997 118.4 52.2324Z" fill="#263238"/>
<path d="M116.082 51.2352L115.844 54.5796L117.626 54.2016L116.082 51.2352Z" fill="#F28F8F"/>
<path d="M113.706 57.8556C112.536 57.4236 109.904 56.0016 109.746 54.9324C109.79 55.4602 109.994 55.9622 110.329 56.3724C110.927 57.1752 113.27 58.6188 113.27 58.6188L113.706 57.8556Z" fill="#F28F8F"/>
<path d="M115.121 59.5548C114.995 59.1552 114.48 59.1156 114.48 59.1156C114.519 58.9591 114.524 58.7958 114.492 58.6375C114.46 58.4793 114.393 58.3302 114.296 58.2012C114.121 58.073 113.908 58.0071 113.691 58.014C113.821 57.7296 113.652 57.0816 113.299 57.0024C112.964 56.9669 112.625 56.9827 112.295 57.0492C111.951 57.28 111.653 57.573 111.416 57.9132L111.96 56.88C112.44 56.7555 112.911 56.6004 113.371 56.4156C113.911 56.142 113.886 55.5516 113.677 55.5192C113.205 55.528 112.734 55.5762 112.269 55.6632C111.679 55.7604 110.934 55.7568 110.732 56.124C110.531 56.4912 110.307 56.9304 109.893 57.7728C109.479 58.6152 109.364 58.8708 109.418 59.3532C109.472 59.8356 109.465 60.7932 109.613 61.992C109.76 63.1908 109.523 63.4716 108.993 64.152C108.633 64.6092 106.409 66.816 104.061 68.9616L104.382 64.2996C104.382 64.2996 105.145 59.5044 103.327 57.7116C100.879 57.3156 99.691 58.4316 99.1474 59.7456C98.1934 62.0712 98.4742 68.6988 98.6578 72.1872C98.8414 75.6756 100.213 76.9968 101.264 77.2272C102.315 77.4576 105.195 76.2444 107.082 73.764C108.565 72.0612 111.74 66.4524 112.205 65.6712C112.544 65.0676 112.959 64.5098 113.439 64.0116C113.799 63.6516 114.087 62.2116 114.087 61.3512C114.167 61.6212 114.447 61.8372 114.674 61.668C114.721 61.2252 115.157 59.8464 115.121 59.5548Z" fill="#FFA8A7"/>
<path d="M108.983 64.1413C109.171 63.9183 109.336 63.6771 109.476 63.4213C109.595 63.1509 109.648 62.8559 109.631 62.5609C109.631 62.2657 109.58 61.9705 109.548 61.6789C109.515 61.3873 109.49 61.0885 109.469 60.7933L109.418 59.9077L109.389 59.4649C109.369 59.3158 109.363 59.1651 109.371 59.0149C109.422 58.7193 109.519 58.4336 109.659 58.1689C109.782 57.8989 109.915 57.6361 110.052 57.3733L110.451 56.5777L110.653 56.1817C110.716 56.0372 110.834 55.9234 110.981 55.8649C111.263 55.7649 111.557 55.7032 111.855 55.6813C112.151 55.6489 112.439 55.5913 112.734 55.5553C113.029 55.5193 113.321 55.4833 113.623 55.4761C113.671 55.4738 113.719 55.4891 113.756 55.5193C113.789 55.5499 113.814 55.5882 113.828 55.6309C113.848 55.71 113.848 55.7929 113.828 55.8721C113.803 56.028 113.729 56.1718 113.616 56.2825C113.377 56.4709 113.101 56.6059 112.806 56.6785C112.521 56.7721 112.237 56.8549 111.953 56.9341L111.985 56.9089L111.449 57.9493L111.366 57.8989C111.495 57.7353 111.633 57.5791 111.78 57.4309C111.852 57.3565 111.927 57.2845 112.007 57.2149C112.084 57.1397 112.171 57.0755 112.266 57.0241C112.448 56.9886 112.632 56.9658 112.817 56.9557C113.007 56.9323 113.2 56.952 113.382 57.0133C113.546 57.1216 113.662 57.2893 113.706 57.4813C113.767 57.6659 113.767 57.8654 113.706 58.0501L113.666 57.9925C113.806 57.9923 113.944 58.0141 114.077 58.0573C114.147 58.0791 114.211 58.1146 114.267 58.1617C114.318 58.2124 114.361 58.2692 114.397 58.3309C114.528 58.5798 114.561 58.8686 114.491 59.1409L114.458 59.0941C114.601 59.1105 114.738 59.1572 114.861 59.2309C114.987 59.3056 115.082 59.4232 115.128 59.5621C115.122 59.7445 115.096 59.9257 115.049 60.1021L114.915 60.6241C114.829 60.9841 114.725 61.3153 114.663 61.6609C114.604 61.7003 114.535 61.7214 114.464 61.7214C114.393 61.7214 114.323 61.7003 114.264 61.6609C114.15 61.5814 114.068 61.4639 114.033 61.3297H114.087C114.079 61.736 114.035 62.1408 113.954 62.5393C113.878 62.939 113.757 63.3291 113.594 63.7021C113.505 63.8835 113.383 64.047 113.234 64.1845C113.097 64.3357 112.964 64.4869 112.842 64.6453C112.595 64.9652 112.369 65.3007 112.165 65.6497C112.365 65.2979 112.586 64.9589 112.827 64.6345C112.95 64.4761 113.079 64.3213 113.216 64.1701C113.365 64.0332 113.487 63.8695 113.576 63.6877C113.73 63.315 113.841 62.9261 113.907 62.5285C113.984 62.1332 114.026 61.7321 114.033 61.3297V61.1389L114.087 61.3225C114.122 61.4417 114.195 61.5458 114.296 61.6177C114.344 61.6544 114.402 61.6744 114.462 61.6744C114.522 61.6744 114.58 61.6544 114.627 61.6177V61.6393C114.692 61.2793 114.793 60.9409 114.879 60.5917L115.005 60.0733C115.051 59.9041 115.077 59.73 115.081 59.5549C115.028 59.4353 114.943 59.333 114.835 59.2598C114.726 59.1865 114.6 59.1453 114.469 59.1409H114.426V59.0977C114.488 58.8442 114.456 58.577 114.336 58.3453C114.308 58.289 114.269 58.2389 114.222 58.1981C114.174 58.1572 114.119 58.1265 114.059 58.1077C113.934 58.0687 113.804 58.0492 113.673 58.0501H113.616L113.637 57.9925C113.691 57.8263 113.691 57.6474 113.637 57.4813C113.6 57.3116 113.498 57.1631 113.353 57.0673C113.184 57.0148 113.006 56.9989 112.831 57.0205C112.651 57.0324 112.472 57.0552 112.295 57.0889C112.212 57.1406 112.133 57.1997 112.061 57.2653C111.985 57.3337 111.909 57.4057 111.841 57.4777C111.697 57.6253 111.564 57.7801 111.434 57.9421L111.139 58.3021L111.351 57.8845L111.888 56.8405V56.8189H111.909C112.194 56.7397 112.478 56.6605 112.755 56.5669C113.037 56.5039 113.303 56.3811 113.533 56.2069C113.63 56.1077 113.696 55.9827 113.724 55.8469C113.745 55.7209 113.724 55.5409 113.594 55.5553C113.3 55.5615 113.007 55.5855 112.716 55.6273C112.424 55.6633 112.133 55.7173 111.837 55.7497C111.545 55.7683 111.257 55.8264 110.981 55.9225C110.849 55.9751 110.743 56.0772 110.685 56.2069L110.484 56.6029L110.081 57.3913C109.947 57.6541 109.811 57.9169 109.685 58.1869C109.546 58.4444 109.452 58.7229 109.404 59.0113C109.388 59.156 109.388 59.3021 109.404 59.4469L109.429 59.8933L109.472 60.7789C109.49 61.0741 109.512 61.3693 109.541 61.6645C109.569 61.9597 109.609 62.2513 109.613 62.5501C109.626 62.8474 109.568 63.1436 109.443 63.4141C109.315 63.6714 109.16 63.9151 108.983 64.1413Z" fill="#B16668"/>
<path d="M113.706 58.0572C113.735 57.9555 113.745 57.8493 113.735 57.744C113.439 57.8232 113.058 57.8628 112.813 57.9492C112.614 58.023 112.451 58.1697 112.356 58.3596C112.482 58.2264 112.842 58.0536 113.706 58.0572Z" fill="#B16668"/>
<path d="M113.439 59.3748C113.756 59.2 114.116 59.1224 114.476 59.1516C114.494 59.0529 114.505 58.953 114.509 58.8528C113.666 58.9752 113.439 59.3748 113.439 59.3748Z" fill="#B16668"/>
<path d="M114.041 61.56C114.074 61.1797 114.064 60.7969 114.012 60.4188C113.972 60.192 113.958 60.0588 114.213 60.0984C114.469 60.138 114.822 59.8248 114.753 60.0372C114.717 60.1524 114.264 60.3432 114.235 60.5052C114.205 60.8623 114.14 61.2156 114.041 61.56Z" fill="#B16668"/>
<path d="M104.04 68.9508C103.392 69.4872 101.196 71.1648 100.89 72.8748C100.89 72.8748 100.584 71.5932 101.844 70.1676C102.552 69.3574 103.309 68.5916 104.112 67.8744L104.04 68.9508Z" fill="#F28F8F"/>
<path d="M117.72 79.3548C117.5 80.6328 117.093 81.1008 115.79 81.6732C113.666 82.6056 105.159 85.014 102.647 85.032C101.219 85.0584 99.798 84.8442 98.4419 84.3984C98.1983 84.3404 97.9807 84.2038 97.8227 84.0096C97.7312 83.844 97.609 83.6974 97.4627 83.5776C97.2816 83.469 97.0941 83.3716 96.9011 83.286C96.6744 83.1448 96.5107 82.9218 96.4439 82.6632C96.4315 82.4934 96.3784 82.3292 96.2891 82.1844C96.1818 82.0739 96.0853 81.9533 96.0011 81.8244C95.9043 81.652 95.8558 81.4568 95.8607 81.2592C95.8687 81.1601 95.8602 81.0603 95.8355 80.964C95.7966 80.8766 95.7403 80.7982 95.6699 80.7336C95.5953 80.6501 95.5256 80.5623 95.4611 80.4708C95.3951 80.3962 95.3537 80.3032 95.3423 80.2044C95.3552 80.1246 95.3873 80.0493 95.4359 79.9848C95.7311 79.5204 96.3935 79.6248 96.8759 79.6752C97.4483 79.74 98.0099 79.8516 98.5823 79.92C99.3791 80.0154 100.183 80.0334 100.983 79.974V78.4944C101.563 78.6227 102.112 78.8623 102.6 79.2C103.536 79.776 104.101 80.5536 105.84 80.0928C107.579 79.632 111.722 77.2776 113.803 76.5504C115.884 75.8232 117.846 78.5988 117.72 79.3548Z" fill="#FFA8A7"/>
<path d="M49.9968 153.043L100.976 145.13V34.6536L49.9968 42.5844V153.043Z" fill="#455A64"/>
<path d="M99.4248 33.7572L100.976 34.6536L49.9968 42.5844L52.6932 41.0256L99.4248 33.7572Z" fill="#37474F"/>
<path d="M55.98 99.7812L91.656 94.2372V139.14L55.98 144.68V99.7812Z" fill="#455A64"/>
<path opacity="0.1" d="M55.98 99.7812L91.656 94.2372V139.14L55.98 144.68V99.7812Z" fill="black"/>
<path d="M58.6583 102.074L88.9811 97.3584V136.843L58.6583 141.559V102.074Z" fill="#455A64"/>
<path d="M55.98 144.68L58.6584 141.559L88.9812 136.843L91.656 139.14L55.98 144.68Z" fill="#263238"/>
<path d="M55.98 99.7812L58.6584 102.074V141.559L55.98 144.68V99.7812Z" fill="#37474F"/>
<path d="M88.9812 97.3584L91.656 94.2372V139.14L88.9812 136.843V97.3584Z" fill="#37474F"/>
<path d="M76.248 45.4068L91.656 43.0092V87.912L76.2516 90.306L76.248 45.4068Z" fill="#455A64"/>
<path opacity="0.1" d="M76.248 45.4068L91.656 43.0092V87.912L76.2516 90.306L76.248 45.4068Z" fill="black"/>
<path d="M78.9264 47.7L88.9812 46.134V85.6188L78.9264 87.1848V47.7Z" fill="#455A64"/>
<path d="M76.2516 90.306L78.9264 87.1848L88.9812 85.6188L91.656 87.912L76.2516 90.306Z" fill="#263238"/>
<path d="M76.248 45.4069L78.9264 47.7001V87.1849L76.2516 90.3061L76.248 45.4069Z" fill="#37474F"/>
<path d="M88.9812 46.134L91.656 43.0092V87.912L88.9812 85.6188V46.134Z" fill="#37474F"/>
<path d="M56.0052 48.5424L71.4132 46.1448V91.0476L56.0052 93.4416V48.5424Z" fill="#455A64"/>
<path opacity="0.1" d="M56.0052 48.5424L71.4132 46.1448V91.0476L56.0052 93.4416V48.5424Z" fill="black"/>
<path d="M58.6801 50.8356L68.7349 49.266L68.7385 88.7544L58.6801 90.3204V50.8356Z" fill="#455A64"/>
<path d="M56.0052 93.4416L58.68 90.3204L68.7384 88.7544L71.4132 91.0476L56.0052 93.4416Z" fill="#263238"/>
<path d="M56.0052 48.5424L58.68 50.8356V90.3204L56.0052 93.4416V48.5424Z" fill="#37474F"/>
<path d="M68.7347 49.266L71.4131 46.1448V91.0476L68.7383 88.7544L68.7347 49.266Z" fill="#37474F"/>
<path d="M94.1075 86.0616L94.8023 86.7636V98.298L94.1075 97.5996V86.0616Z" fill="#E0E0E0"/>
<path d="M94.8025 86.7636L98.5501 86.202V97.74L94.8025 98.298V86.7636Z" fill="#FAFAFA"/>
<path opacity="0.05" d="M98.5501 89.3772L94.8025 89.9244V92.1816L98.5501 91.638V89.3772Z" fill="black"/>
<path d="M98.5499 86.2021L97.8551 85.5037L94.1075 86.0617L94.8023 86.7637L98.5499 86.2021Z" fill="#EBEBEB"/>
<path d="M96.2387 88.9488L97.9595 90.6768L98.6471 89.7768L96.9263 88.0524C96.8827 88.0072 96.8289 87.9732 96.7694 87.9531C96.7099 87.9331 96.6464 87.9276 96.5843 87.9372C96.4426 87.9704 96.3167 88.0517 96.2281 88.1672C96.1395 88.2827 96.0937 88.4253 96.0983 88.5708C96.0946 88.7102 96.1449 88.8457 96.2387 88.9488Z" fill="#E0E0E0"/>
<path opacity="0.1" d="M94.8025 89.946L97.5349 90.2484V89.4276L98.2009 89.3304L97.5745 88.7004L94.8025 89.1216V89.946Z" fill="black"/>
<path d="M89.1755 90.936V92.736L98.9387 91.2744V89.4744L89.1755 90.936Z" fill="#FAFAFA"/>
<path d="M89.1755 90.936L88.5527 90.306V92.1096L89.1755 92.736V90.936Z" fill="#E0E0E0"/>
<path d="M98.9387 89.4744L98.3123 88.8444L88.5527 90.306L89.1755 90.936L98.9387 89.4744Z" fill="#EBEBEB"/>
<path d="M96.0445 93.9601C96.04 93.7709 96.1005 93.586 96.2157 93.436C96.331 93.286 96.4942 93.18 96.6781 93.1357C96.7634 93.1277 96.8494 93.1389 96.93 93.1682C97.0105 93.1975 97.0835 93.2443 97.1438 93.3053C97.204 93.3662 97.25 93.4398 97.2784 93.5206C97.3068 93.6015 97.3169 93.6876 97.3081 93.7729C97.3074 93.9148 97.2723 94.0544 97.2058 94.1798C97.1394 94.3052 97.0435 94.4126 96.9265 94.4929V95.6701C96.9284 95.7341 96.9084 95.7968 96.8697 95.8479C96.8311 95.899 96.7762 95.9353 96.7141 95.9509H96.6385C96.6096 95.9537 96.5804 95.9501 96.553 95.9402C96.5257 95.9303 96.5009 95.9144 96.4805 95.8937C96.4602 95.873 96.4447 95.848 96.4353 95.8205C96.4258 95.793 96.4227 95.7637 96.4261 95.7349V94.5577C96.3089 94.5091 96.2095 94.4258 96.1413 94.3189C96.073 94.212 96.0392 94.0868 96.0445 93.9601Z" fill="#455A64"/>
<path d="M44.5104 163.375C47.574 160.214 49.374 147.341 46.386 144.832H31.1724C28.1844 147.352 29.9808 160.207 33.0444 163.372L33.1308 163.462L33.2352 163.566C33.3216 163.649 33.4152 163.732 33.5124 163.814C33.538 163.832 33.5621 163.851 33.5844 163.872C33.66 163.93 33.7356 163.991 33.8184 164.048C33.9452 164.141 34.0774 164.227 34.2144 164.304C36.7344 165.776 40.824 165.776 43.344 164.304C43.4831 164.227 43.6166 164.14 43.7436 164.045C43.8192 163.994 43.8876 163.937 43.9596 163.883L44.0496 163.811C44.1432 163.732 44.2332 163.652 44.316 163.57L44.4384 163.451L44.5104 163.375Z" fill="#455A64"/>
<path d="M32.4935 143.82C29.0231 145.847 29.0231 149.134 32.4935 151.16C35.9639 153.187 41.5907 153.187 45.0647 151.16C48.5387 149.134 48.5351 145.847 45.0647 143.82C41.5943 141.793 35.9639 141.793 32.4935 143.82Z" fill="#455A64"/>
<g opacity="0.1">
<path d="M32.4935 143.82C29.0231 145.847 29.0231 149.134 32.4935 151.16C35.9639 153.187 41.5907 153.187 45.0647 151.16C48.5387 149.134 48.5351 145.847 45.0647 143.82C41.5943 141.793 35.9639 141.793 32.4935 143.82Z" fill="white"/>
</g>
<path d="M34.164 144.796C31.6152 146.282 31.6152 148.698 34.164 150.196C36.7128 151.693 40.8456 151.686 43.3944 150.196C45.9432 148.705 45.9432 146.293 43.3944 144.796C40.8456 143.298 36.72 143.309 34.164 144.796Z" fill="#263238"/>
<path d="M43.3944 147.355C40.8456 145.865 36.7128 145.865 34.164 147.355C33.5441 147.691 33.0191 148.177 32.6376 148.77C33.0212 149.361 33.5457 149.847 34.164 150.185C36.7128 151.675 40.8456 151.675 43.3944 150.185C44.0126 149.847 44.5372 149.361 44.9208 148.77C44.5393 148.177 44.0142 147.691 43.3944 147.355Z" fill="#F5F5F5"/>
<path d="M30.3444 119.858L36.4284 124.02L30.6684 121.842C30.7183 123.381 31.1067 124.891 31.806 126.263C31.806 126.263 35.604 128.106 37.6704 130.05L32.616 128.459C32.4575 129.341 32.5118 130.248 32.7744 131.105C32.8068 131.22 32.8428 131.342 32.8824 131.465C33.1488 132.275 33.5304 133.805 34.1784 135.619C34.7279 137.207 35.4283 138.738 36.27 140.191C36.6864 140.907 37.1507 141.594 37.6596 142.247C37.6884 142.29 37.7208 142.33 37.7532 142.369C38.6916 141.743 39.6684 141.13 40.6836 140.53C41.2704 139.039 41.9148 135.41 42.03 132.466C42.48 121.198 33.57 115.387 26.64 113.717C26.64 113.717 29.16 116.482 30.3444 119.858Z" fill="#6A94E5"/>
<path opacity="0.3" d="M30.3444 119.858L36.4284 124.02L30.6684 121.842C30.7183 123.381 31.1067 124.891 31.806 126.263C31.806 126.263 35.604 128.106 37.6704 130.05L32.616 128.459C32.4575 129.341 32.5118 130.248 32.7744 131.105C32.8068 131.22 32.8428 131.342 32.8824 131.465C33.1488 132.275 33.5304 133.805 34.1784 135.619C34.7279 137.207 35.4283 138.738 36.27 140.191C36.6864 140.907 37.1507 141.594 37.6596 142.247C37.6884 142.29 37.7208 142.33 37.7532 142.369C38.6916 141.743 39.6684 141.13 40.6836 140.53C41.2704 139.039 41.9148 135.41 42.03 132.466C42.48 121.198 33.57 115.387 26.64 113.717C26.64 113.717 29.16 116.482 30.3444 119.858Z" fill="black"/>
<path d="M35.1973 119.988C35.8155 120.541 36.3481 121.183 36.7777 121.892C37.2034 122.604 37.5752 123.347 37.8901 124.114C38.5133 125.648 38.966 127.247 39.2401 128.88C39.8384 132.141 39.6546 135.496 38.7037 138.672C38.6912 138.714 38.6956 138.758 38.7158 138.797C38.736 138.835 38.7704 138.864 38.8117 138.877C38.8527 138.89 38.897 138.885 38.9348 138.865C38.9726 138.845 39.0008 138.81 39.0133 138.769C39.9244 135.54 40.0564 132.141 39.3985 128.851C39.0936 127.214 38.6107 125.614 37.9585 124.081C37.6293 123.317 37.2442 122.578 36.8065 121.871C36.3646 121.168 35.8225 120.534 35.1973 119.988Z" fill="#FAFAFA"/>
<path d="M56.466 125.615C56.3292 125.791 54.1728 127.67 50.868 133.29L44.1648 135L49.6152 135.49L47.0952 139.867L41.4 141.264L45.918 141.84C45.918 141.84 44.838 146.282 41.6916 148.237C39.9492 149.317 39.0888 149.504 38.5344 149.018C38.1456 148.676 37.98 146.574 37.5948 144.698C37.2096 142.823 37.0656 139.774 38.6964 136.019C39.1414 135.013 39.7281 134.076 40.4388 133.236C44.5176 128.311 52.4808 125.712 56.466 125.615Z" fill="#6A94E5"/>
<path opacity="0.15" d="M56.466 125.615C56.3292 125.791 54.1728 127.67 50.868 133.29L44.1648 135L49.6152 135.49L47.0952 139.867L41.4 141.264L45.918 141.84C45.918 141.84 44.838 146.282 41.6916 148.237C39.9492 149.317 39.0888 149.504 38.5344 149.018C38.1456 148.676 37.98 146.574 37.5948 144.698C37.2096 142.823 37.0656 139.774 38.6964 136.019C39.1414 135.013 39.7281 134.076 40.4388 133.236C44.5176 128.311 52.4808 125.712 56.466 125.615Z" fill="black"/>
<path opacity="0.1" d="M39.96 137.916C39.3436 139.485 38.9545 141.133 38.8044 142.812C38.6999 144.936 38.7252 147.064 38.88 149.184C38.7586 149.145 38.646 149.083 38.5488 149C38.16 148.658 37.9944 146.556 37.6092 144.68C37.224 142.805 37.08 139.756 38.7108 136.001C39.1558 134.995 39.7426 134.058 40.4532 133.218C44.532 128.304 52.4952 125.705 56.4804 125.608C50.4036 126.842 43.9884 131.166 40.9248 136.022C40.5505 136.625 40.2277 137.259 39.96 137.916Z" fill="black"/>
<path d="M50.4 127.768C47.4228 129.208 44.64 131.148 42.48 133.708C41.3839 134.976 40.4968 136.412 39.852 137.959C39.2259 139.508 38.861 141.151 38.772 142.819C38.7778 142.821 38.7842 142.821 38.79 142.819C39.0384 141.189 39.4933 139.597 40.1436 138.082C40.7904 136.571 41.638 135.154 42.6636 133.87C43.7109 132.593 44.9047 131.444 46.2204 130.446C47.541 129.44 48.9494 128.554 50.4288 127.8V127.771L50.4 127.768Z" fill="#FAFAFA"/>
<path d="M20.9628 129.87C21.4543 129.841 21.9472 129.841 22.4388 129.87C24.3769 129.988 26.2932 130.343 28.1448 130.928C28.8324 131.144 29.5236 131.389 30.204 131.67C30.546 131.81 30.8844 131.958 31.2156 132.116C32.8723 132.867 34.392 133.889 35.712 135.14C36.3278 135.739 36.866 136.413 37.314 137.146C37.3716 137.239 37.4328 137.333 37.4868 137.43C37.6236 137.682 37.7532 137.927 37.872 138.172C38.9956 140.281 39.5654 142.64 39.528 145.03C39.5604 146.714 39.0924 148.666 38.7864 148.99C38.7439 149.034 38.6968 149.074 38.646 149.108C38.1816 149.44 37.4112 149.303 35.946 148.586C33.0048 147.146 31.662 143.186 31.662 143.186L35.586 142.294L30.4416 141.574L28.1952 138.463L31.9644 137.52L26.7516 137.016C24.9691 134.523 23.0384 132.139 20.97 129.877L20.9628 129.87Z" fill="#6A94E5"/>
<path opacity="0.05" d="M22.4388 129.856C24.377 129.974 26.2933 130.329 28.1448 130.914C28.8324 131.13 29.5236 131.375 30.204 131.656C30.546 131.796 30.8844 131.944 31.2156 132.102C32.8724 132.853 34.3921 133.875 35.712 135.126C36.3278 135.725 36.866 136.398 37.314 137.131C37.3716 137.225 37.4328 137.318 37.4868 137.416C37.6236 137.668 37.7532 137.912 37.872 138.157C38.9956 140.266 39.5654 142.626 39.528 145.015C39.5604 146.7 39.0924 148.651 38.7864 148.975C38.7439 149.02 38.6969 149.059 38.646 149.094C38.5515 149.156 38.4467 149.201 38.3364 149.227C38.5452 146.603 36.8964 140.072 34.8084 137.462C32.6484 134.752 27.6084 130.918 20.9664 129.87C21.4566 129.837 21.9482 129.833 22.4388 129.856Z" fill="black"/>
<path d="M142.157 121.514C141.739 122.836 139.356 126.194 138.557 127.112C137.758 128.03 137.635 131.987 137.642 132.811C137.65 133.636 138.2 134.417 138.55 134.946C138.899 135.475 138.294 136.386 137.023 135.968C135.752 135.551 135.367 134.266 135.18 133.405C134.993 132.545 134.572 127.613 135.094 124.549C135.094 124.56 137.686 121.259 142.157 121.514Z" fill="#37474F"/>
<path d="M122.648 109.134C120.636 109.177 117.857 107.575 116.888 104.814C115.92 102.053 116.5 97.974 117.54 95.6556C118.134 94.338 117.95 93.4956 117.446 93.2472C116.705 92.8872 115.96 93.294 115.409 94.4604C114.71 95.958 113.306 101.545 114.57 104.947C115.834 108.349 118.134 110.178 119.488 110.707L122.648 109.134Z" fill="#37474F"/>
<path d="M122.015 116.888C122.137 119.596 123.433 124.387 124.175 125.557C124.952 126.792 125.557 127.145 126.814 127.181C128.07 127.217 128.254 126.126 126.659 125.15C126.356 124.722 126.245 122.63 126.418 120.452C126.59 118.274 122.015 116.888 122.015 116.888Z" fill="#37474F"/>
<path d="M143.946 111.485C143.946 112.925 144.205 116.777 143.298 119.268C142.434 121.64 140.861 123.815 137.329 124.366C133.798 124.916 130.684 124.16 128.646 122.983C126.608 121.806 124.618 119.434 123.181 119.164C122.206 120.073 120.988 120.679 119.675 120.91C117.338 121.388 116.161 120.798 116.161 120.798C116.161 120.798 115.477 122.706 115.441 123.678C115.405 124.65 115.441 125.575 116.183 126.079C116.924 126.583 117.288 126.839 117.209 127.372C117.209 127.372 117.209 127.962 115.686 127.919C114.163 127.876 114.124 127.631 113.666 126.263C113.209 124.895 112.626 121.345 112.54 120.161C112.453 118.976 113.9 118.822 114.62 117.846C115.426 116.792 116.036 115.602 116.42 114.332C116.91 112.774 118.051 110.354 120.524 109.555C122.998 108.756 125.503 108.972 128.97 110.488C132.437 112.003 134.168 112.648 135.871 111.708C138.182 110.419 137.948 108.389 137.948 108.389C140.45 108.04 143.298 106.722 143.946 111.485Z" fill="#455A64"/>
<path d="M135.641 124.531L135.443 123.685L133.79 122.864L133.283 123.192C133.585 123.603 133.839 124.047 134.039 124.517C134.572 124.551 135.107 124.555 135.641 124.531Z" fill="#37474F"/>
<path d="M133.283 123.192C134.276 123.854 135.065 125.323 136.465 126.194C137.255 126.702 138.135 127.051 139.057 127.224C139.454 127.887 139.752 128.603 139.943 129.352C140.26 130.597 140.623 132.145 141.682 132.833C142.74 133.52 144.421 133.063 143.55 131.843C142.931 130.975 142.639 129.87 142.344 128.758C141.952 127.289 142.29 126.598 141.548 125.622C140.692 124.574 140.061 123.361 139.694 122.058C139.694 122.058 134.78 121 133.283 123.192Z" fill="#455A64"/>
<path d="M123.736 119.351C124.146 118.585 124.301 117.709 124.178 116.849C124.033 117.688 123.691 118.481 123.181 119.164C123.373 119.203 123.559 119.265 123.736 119.351Z" fill="#37474F"/>
<path d="M138.96 110.189C141.941 113.04 138.262 114.869 138.355 118.552C138.384 119.768 138.938 121.072 140.155 123.379C141.685 122.444 142.844 121.008 143.435 119.315C144.119 117.436 144.112 114.404 143.971 112.932C143.858 111.767 143.489 110.641 142.891 109.634C142.891 109.634 135.972 107.338 138.96 110.189Z" fill="#E0E0E0"/>
<path d="M136.019 111.629C137.227 112.196 138.581 112.378 139.896 112.151C140.579 112.047 141.221 111.757 141.75 111.313C142.279 110.868 142.675 110.286 142.895 109.631L137.801 109.512C137.489 110.414 136.854 111.168 136.019 111.629Z" fill="#37474F"/>
<path d="M140.652 102.784C141.437 101.862 143.471 101.135 144.544 102.046C145.148 102.56 143.536 105.354 143.536 105.354C143.536 105.354 141.451 104.234 140.652 102.784Z" fill="#37474F"/>
<path d="M141.48 103.748C142.474 104.576 143.528 105.354 143.528 105.354C143.528 105.354 145.141 102.56 144.536 102.046C144.122 101.79 142.736 102.017 141.48 103.748Z" fill="#FFA8A7"/>
<path d="M143.478 104.674C143.565 104.556 143.67 104.453 143.791 104.371C143.881 104.195 143.986 103.986 144.09 103.763C143.778 103.569 143.431 103.44 143.068 103.385C143.109 103.144 143.237 102.926 143.428 102.773C143.142 102.7 142.84 102.738 142.581 102.877C142.322 103.016 142.124 103.247 142.027 103.525C142.105 103.8 142.238 104.057 142.42 104.278C142.643 104.429 142.848 104.555 143.014 104.659C143.166 104.698 143.324 104.703 143.478 104.674Z" fill="#F28F8F"/>
<path d="M142.2 103.781C142.294 103.556 142.455 103.366 142.661 103.237C142.868 103.108 143.109 103.047 143.352 103.061C143.195 103.241 143.11 103.473 143.114 103.712C143.114 103.712 144.266 103.651 144.554 104.242C144.335 104.244 144.119 104.303 143.93 104.414C143.74 104.526 143.583 104.684 143.474 104.875C142.484 105.26 142.2 103.781 142.2 103.781Z" fill="#455A64"/>
<path d="M134.104 101.88C134.935 102.746 135.401 103.898 135.407 105.098L136.256 104.486C136.256 104.486 136.278 102.989 135.644 102.46C135.197 102.123 134.662 101.921 134.104 101.88Z" fill="#F28F8F"/>
<path d="M137.999 102.859C137.592 102.042 135.479 100.98 134.104 101.894C134.104 101.894 135.904 102.474 135.99 104.346L137.999 102.859Z" fill="#37474F"/>
<path d="M143.946 111.517C143.831 109.804 144.27 107.518 144 106.214C143.683 104.695 142.754 102.758 139.799 102.596C136.843 102.434 135.403 104.004 134.888 105.97C134.582 106.949 134.168 107.374 134.294 108.457C134.352 109.133 134.625 109.774 135.073 110.284C135.52 110.794 136.119 111.148 136.782 111.294C138.028 111.654 141.336 111.755 142.902 109.634L143.953 111.517" fill="#455A64"/>
<path d="M135.968 104.087C135.968 104.087 135.922 103.792 135.418 103.478C135.23 103.373 135.023 103.306 134.809 103.281C134.596 103.255 134.379 103.272 134.172 103.331C134.172 103.331 134.849 103.885 134.924 104.335C134.671 104.255 134.401 104.246 134.143 104.31C134.143 104.31 135.133 104.99 134.942 106.038C134.942 106.038 135.99 104.803 135.968 104.087Z" fill="#455A64"/>
<path d="M137.722 108.961C137.687 108.959 137.654 108.944 137.63 108.919C137.605 108.893 137.592 108.859 137.592 108.824L137.614 108.144C137.615 108.109 137.631 108.076 137.656 108.052C137.682 108.028 137.715 108.014 137.75 108.014C137.768 108.015 137.785 108.019 137.801 108.026C137.817 108.033 137.832 108.043 137.844 108.056C137.856 108.069 137.865 108.084 137.871 108.1C137.878 108.116 137.881 108.134 137.88 108.151L137.858 108.832C137.857 108.867 137.841 108.9 137.816 108.924C137.79 108.948 137.757 108.961 137.722 108.961Z" fill="#263238"/>
<path d="M138.348 109.39C138.324 109.389 138.3 109.382 138.28 109.368L137.722 108.986L137.153 109.346C137.123 109.36 137.089 109.363 137.058 109.353C137.026 109.343 136.999 109.322 136.983 109.294C136.966 109.266 136.96 109.233 136.966 109.201C136.972 109.168 136.99 109.139 137.016 109.12L137.657 108.731C137.678 108.716 137.703 108.708 137.729 108.708C137.754 108.708 137.78 108.716 137.801 108.731L138.427 109.159C138.456 109.179 138.476 109.209 138.483 109.244C138.49 109.278 138.482 109.314 138.463 109.343C138.449 109.36 138.432 109.373 138.412 109.381C138.391 109.389 138.37 109.392 138.348 109.39Z" fill="#263238"/>
<path d="M137.761 107.334C137.077 107.302 136.994 107.507 137.063 107.752C137.206 108.014 137.441 108.215 137.722 108.317C137.884 108.342 138.503 108.036 138.528 107.773C138.553 107.51 138.406 107.366 137.761 107.334Z" fill="#F28F8F"/>
<path d="M140.108 108C140.099 107.988 140.092 107.974 140.088 107.959C140.084 107.945 140.083 107.93 140.085 107.914C140.087 107.899 140.092 107.885 140.1 107.872C140.108 107.859 140.118 107.847 140.13 107.838C140.448 107.546 140.848 107.359 141.277 107.301C141.705 107.244 142.14 107.319 142.524 107.518C142.552 107.532 142.573 107.557 142.583 107.587C142.593 107.617 142.591 107.65 142.576 107.678C142.562 107.706 142.537 107.727 142.507 107.737C142.477 107.747 142.444 107.744 142.416 107.73C142.07 107.55 141.677 107.481 141.291 107.533C140.904 107.584 140.543 107.754 140.256 108.018C140.234 108.034 140.206 108.042 140.179 108.038C140.151 108.035 140.126 108.021 140.108 108Z" fill="#263238"/>
<path d="M140.306 108.36L140.285 108.324C140.275 108.295 140.276 108.263 140.288 108.234C140.3 108.206 140.322 108.182 140.35 108.169C140.61 108.07 140.889 108.026 141.168 108.042C141.446 108.059 141.718 108.134 141.966 108.263C141.993 108.279 142.013 108.305 142.021 108.336C142.028 108.367 142.024 108.399 142.007 108.427C141.999 108.44 141.989 108.452 141.976 108.461C141.964 108.471 141.949 108.477 141.934 108.481C141.903 108.489 141.871 108.484 141.844 108.468C141.627 108.356 141.39 108.29 141.147 108.275C140.904 108.26 140.66 108.296 140.432 108.382C140.412 108.392 140.388 108.395 140.366 108.391C140.343 108.388 140.322 108.376 140.306 108.36Z" fill="#263238"/>
<path d="M140.097 108.806C140.089 108.798 140.082 108.788 140.078 108.777C140.074 108.765 140.072 108.754 140.072 108.742C140.07 108.71 140.08 108.679 140.1 108.655C140.12 108.631 140.149 108.616 140.18 108.612C140.546 108.594 140.91 108.666 141.242 108.82C141.573 108.974 141.863 109.207 142.085 109.498C142.094 109.51 142.101 109.523 142.105 109.538C142.109 109.553 142.11 109.568 142.108 109.583C142.106 109.598 142.101 109.613 142.093 109.626C142.085 109.639 142.075 109.65 142.063 109.66C142.053 109.67 142.041 109.679 142.027 109.685C142.013 109.691 141.999 109.694 141.984 109.694C141.969 109.694 141.954 109.691 141.941 109.685C141.927 109.679 141.915 109.67 141.905 109.66C141.705 109.397 141.445 109.187 141.147 109.048C140.848 108.908 140.52 108.842 140.191 108.857C140.172 108.858 140.154 108.854 140.137 108.845C140.121 108.836 140.107 108.823 140.097 108.806Z" fill="#263238"/>
<path d="M136.08 107.809C136.101 107.787 136.114 107.757 136.114 107.726C136.114 107.695 136.101 107.666 136.08 107.644C135.826 107.294 135.471 107.031 135.063 106.891C134.654 106.751 134.213 106.739 133.798 106.859C133.771 106.87 133.749 106.891 133.737 106.917C133.724 106.943 133.721 106.973 133.729 107.001C133.737 107.029 133.755 107.053 133.78 107.068C133.804 107.084 133.834 107.09 133.862 107.086C134.237 106.981 134.635 106.994 135.002 107.122C135.369 107.251 135.687 107.49 135.914 107.806C135.925 107.817 135.937 107.827 135.951 107.834C135.965 107.84 135.981 107.844 135.996 107.844C136.012 107.844 136.027 107.842 136.042 107.835C136.056 107.829 136.069 107.82 136.08 107.809Z" fill="#263238"/>
<path d="M135.832 108.104C135.842 108.097 135.85 108.087 135.857 108.076C135.872 108.049 135.876 108.017 135.869 107.987C135.861 107.957 135.843 107.931 135.817 107.914C135.571 107.78 135.299 107.7 135.02 107.679C134.741 107.659 134.46 107.698 134.197 107.795C134.17 107.809 134.149 107.833 134.139 107.861C134.129 107.89 134.131 107.922 134.143 107.95C134.156 107.977 134.178 107.999 134.207 108.01C134.235 108.022 134.266 108.022 134.294 108.011C134.523 107.929 134.766 107.895 135.009 107.913C135.251 107.93 135.487 107.998 135.702 108.112C135.721 108.125 135.745 108.132 135.768 108.131C135.792 108.129 135.814 108.12 135.832 108.104Z" fill="#263238"/>
<path d="M136.001 108.587C136.018 108.569 136.03 108.547 136.033 108.522C136.038 108.492 136.03 108.461 136.013 108.435C135.996 108.41 135.969 108.392 135.94 108.385C135.579 108.327 135.209 108.357 134.862 108.473C134.515 108.589 134.202 108.787 133.949 109.051C133.927 109.073 133.915 109.103 133.915 109.134C133.915 109.165 133.927 109.195 133.949 109.217C133.959 109.228 133.971 109.236 133.984 109.242C133.997 109.248 134.012 109.251 134.026 109.251C134.041 109.251 134.055 109.248 134.069 109.242C134.082 109.236 134.094 109.228 134.104 109.217C134.332 108.977 134.615 108.797 134.929 108.691C135.242 108.585 135.577 108.557 135.904 108.608C135.92 108.614 135.938 108.615 135.955 108.611C135.972 108.607 135.988 108.599 136.001 108.587Z" fill="#263238"/>
<path d="M140.58 106.2C140.577 106.289 140.548 106.375 140.496 106.447C140.444 106.52 140.372 106.575 140.289 106.606C140.206 106.638 140.115 106.644 140.028 106.624C139.942 106.604 139.863 106.558 139.802 106.493C139.741 106.428 139.701 106.347 139.686 106.259C139.672 106.171 139.683 106.081 139.72 106C139.757 105.919 139.817 105.851 139.892 105.803C139.968 105.756 140.055 105.733 140.144 105.736C140.203 105.737 140.262 105.751 140.315 105.775C140.369 105.8 140.418 105.834 140.458 105.877C140.499 105.921 140.53 105.971 140.551 106.027C140.572 106.082 140.582 106.141 140.58 106.2Z" fill="#263238"/>
<path d="M136.951 106.056C136.949 106.145 136.92 106.232 136.869 106.305C136.817 106.378 136.745 106.434 136.662 106.465C136.578 106.497 136.487 106.503 136.4 106.483C136.313 106.463 136.234 106.418 136.173 106.353C136.112 106.287 136.072 106.206 136.057 106.118C136.043 106.029 136.055 105.939 136.092 105.858C136.129 105.777 136.19 105.708 136.266 105.661C136.342 105.615 136.43 105.592 136.519 105.595C136.578 105.597 136.636 105.61 136.689 105.635C136.742 105.659 136.791 105.693 136.831 105.736C136.871 105.779 136.902 105.829 136.923 105.884C136.944 105.939 136.953 105.997 136.951 106.056Z" fill="#263238"/>
</svg>
