<svg width="167" height="132" viewBox="0 0 167 132" fill="none" xmlns="http://www.w3.org/2000/svg">
<path d="M84.0855 100.952C108.721 100.952 128.692 80.9114 128.692 56.1907C128.692 31.47 108.721 11.4299 84.0855 11.4299C59.4501 11.4299 39.4791 31.47 39.4791 56.1907C39.4791 80.9114 59.4501 100.952 84.0855 100.952Z" fill="#DBE8EC"/>
<path d="M144.951 63.3657V58.1667C144.951 57.1753 144.558 56.2245 143.86 55.5234C143.161 54.8224 142.214 54.4286 141.226 54.4286H128.077C127.089 54.4286 126.141 54.0347 125.443 53.3337C124.744 52.6327 124.352 51.6819 124.352 50.6905V45.4915C124.352 44.5001 124.744 43.5493 125.443 42.8482C126.141 42.1472 127.089 41.7534 128.077 41.7534H128.492C128.981 41.7534 129.466 41.6567 129.918 41.4688C130.37 41.281 130.78 41.0056 131.126 40.6585C131.472 40.3114 131.747 39.8993 131.934 39.4458C132.121 38.9923 132.217 38.5062 132.217 38.0153V32.8163C132.217 32.3254 132.121 31.8393 131.934 31.3858C131.747 30.9322 131.472 30.5201 131.126 30.173C130.78 29.8259 130.37 29.5506 129.918 29.3627C129.466 29.1749 128.981 29.0782 128.492 29.0782L42.0064 29.0781C41.0185 29.0781 40.0709 29.472 39.3723 30.173C38.6737 30.874 38.2812 31.8248 38.2812 32.8162V38.0152C38.2812 38.5061 38.3776 38.9922 38.5648 39.4457C38.752 39.8993 39.0264 40.3113 39.3723 40.6585C39.7182 41.0056 40.1289 41.2809 40.5809 41.4688C41.0328 41.6566 41.5172 41.7533 42.0064 41.7533C42.9944 41.7533 43.9419 42.1472 44.6406 42.8482C45.3392 43.5492 45.7316 44.5 45.7316 45.4914V50.6904C45.7316 51.1813 45.6353 51.6674 45.4481 52.1209C45.2609 52.5745 44.9865 52.9865 44.6406 53.3337C44.2946 53.6808 43.884 53.9561 43.432 54.144C42.9801 54.3318 42.4956 54.4285 42.0064 54.4285H27.6008C26.6128 54.4285 25.6653 54.8224 24.9667 55.5234C24.268 56.2244 23.8756 57.1752 23.8756 58.1666V63.3656C23.8756 64.357 24.268 65.3078 24.9667 66.0088C25.6653 66.7099 26.6128 67.1037 27.6008 67.1037H33.2533C34.2413 67.1037 35.1888 67.4975 35.8874 68.1986C36.586 68.8996 36.9785 69.8504 36.9785 70.8418V76.0408C36.9785 77.0323 36.586 77.9831 35.8874 78.6841C35.1888 79.3851 34.2413 79.7789 33.2533 79.7789H33.2397C32.7505 79.7789 32.2661 79.8756 31.8141 80.0635C31.3621 80.2513 30.9515 80.5267 30.6056 80.8738C30.2596 81.2209 29.9852 81.633 29.798 82.0865C29.6108 82.5401 29.5145 83.0261 29.5145 83.517V88.716C29.5145 89.7074 29.9069 90.6582 30.6056 91.3592C31.3042 92.0603 32.2517 92.4541 33.2397 92.4541H34.0575C35.0455 92.4541 35.993 92.848 36.6916 93.549C37.3902 94.25 37.7827 95.2008 37.7827 96.1922V101.391C37.7827 101.882 37.6863 102.368 37.4991 102.822C37.3119 103.275 37.0375 103.687 36.6916 104.034C36.3457 104.382 35.935 104.657 35.483 104.845C35.0311 105.033 34.5467 105.129 34.0575 105.129H25.7743C25.2851 105.129 24.8007 105.226 24.3487 105.414C23.8967 105.602 23.4861 105.877 23.1402 106.224C22.7942 106.571 22.5198 106.983 22.3326 107.437C22.1454 107.89 22.0491 108.377 22.0491 108.867V114.066C22.0491 115.058 22.4415 116.009 23.1402 116.71C23.8388 117.411 24.7863 117.805 25.7743 117.805L130.492 117.805C130.981 117.805 131.466 117.708 131.918 117.52C132.37 117.332 132.78 117.057 133.126 116.71C133.472 116.363 133.746 115.951 133.934 115.497C134.121 115.043 134.217 114.557 134.217 114.066V108.867C134.217 108.377 134.121 107.89 133.934 107.437C133.746 106.983 133.472 106.571 133.126 106.224C132.78 105.877 132.37 105.602 131.918 105.414C131.466 105.226 130.981 105.129 130.492 105.129H127.262C126.773 105.129 126.289 105.033 125.837 104.845C125.385 104.657 124.974 104.382 124.628 104.035C124.282 103.687 124.008 103.275 123.821 102.822C123.633 102.368 123.537 101.882 123.537 101.391V96.1922C123.537 95.7013 123.633 95.2152 123.821 94.7617C124.008 94.3082 124.282 93.8961 124.628 93.549C124.974 93.2019 125.385 92.9265 125.837 92.7387C126.289 92.5508 126.773 92.4541 127.262 92.4541H134.878C135.866 92.4541 136.814 92.0603 137.512 91.3593C138.211 90.6583 138.603 89.7075 138.603 88.7161V83.5171C138.603 82.5257 138.211 81.5749 137.512 80.8738C136.814 80.1728 135.866 79.779 134.878 79.779H132.568C131.58 79.779 130.632 79.3851 129.934 78.6841C129.235 77.9831 128.843 77.0323 128.843 76.0409V70.8418C128.843 69.8504 129.235 68.8996 129.934 68.1986C130.632 67.4976 131.58 67.1038 132.568 67.1038H141.226C141.715 67.1038 142.199 67.0071 142.651 66.8192C143.103 66.6314 143.514 66.356 143.86 66.0089C144.206 65.6618 144.48 65.2497 144.667 64.7962C144.854 64.3426 144.951 63.8566 144.951 63.3657Z" fill="#DBE8EC"/>
<path d="M67.7736 67.3059H75.5636" stroke="#EE781D" stroke-width="3" stroke-miterlimit="10"/>
<path d="M67.7736 69.5588H75.5636" stroke="#EE781D" stroke-width="3" stroke-miterlimit="10"/>
<path d="M67.7736 71.812H75.5636" stroke="#EE781D" stroke-width="3" stroke-miterlimit="10"/>
<path d="M53.2407 28.4092H61.0308" stroke="#B9D4DB" stroke-width="3" stroke-miterlimit="10" stroke-linecap="round"/>
<path d="M53.2407 30.6621H61.0308" stroke="#B9D4DB" stroke-width="3" stroke-miterlimit="10" stroke-linecap="round"/>
<path d="M53.2407 32.9153H61.0308" stroke="#B9D4DB" stroke-width="3" stroke-miterlimit="10" stroke-linecap="round"/>
<path d="M123.385 64.5496H131.176" stroke="#B9D4DB" stroke-width="3" stroke-miterlimit="10" stroke-linecap="round"/>
<path d="M123.385 66.8025H131.176" stroke="#B9D4DB" stroke-width="3" stroke-miterlimit="10" stroke-linecap="round"/>
<path d="M123.385 69.0557H131.176" stroke="#B9D4DB" stroke-width="3" stroke-miterlimit="10" stroke-linecap="round"/>
<path d="M42.4636 98.6985H50.2537" stroke="#B9D4DB" stroke-width="3" stroke-miterlimit="10" stroke-linecap="round"/>
<path d="M42.4636 100.952H50.2537" stroke="#B9D4DB" stroke-width="3" stroke-miterlimit="10" stroke-linecap="round"/>
<path d="M42.4636 103.205H50.2537" stroke="#B9D4DB" stroke-width="3" stroke-miterlimit="10" stroke-linecap="round"/>
<path d="M43.6225 67.8088C45.8105 67.8088 47.5842 66.0289 47.5842 63.8333C47.5842 61.6378 45.8105 59.8579 43.6225 59.8579C41.4345 59.8579 39.6608 61.6378 39.6608 63.8333C39.6608 66.0289 41.4345 67.8088 43.6225 67.8088Z" fill="#B9D4DB"/>
<path d="M44.6147 57.8583C45.7544 57.8583 46.6783 56.9312 46.6783 55.7875C46.6783 54.6439 45.7544 53.7168 44.6147 53.7168C43.475 53.7168 42.5511 54.6439 42.5511 55.7875C42.5511 56.9312 43.475 57.8583 44.6147 57.8583Z" fill="#B9D4DB"/>
<path d="M51.8778 57.2024C52.5353 57.2024 53.0683 56.6676 53.0683 56.0079C53.0683 55.3483 52.5353 54.8135 51.8778 54.8135C51.2204 54.8135 50.6874 55.3483 50.6874 56.0079C50.6874 56.6676 51.2204 57.2024 51.8778 57.2024Z" fill="#B9D4DB"/>
<path d="M52.5842 65.4997C54.1602 65.4997 55.4377 64.2178 55.4377 62.6363C55.4377 61.0549 54.1602 59.7729 52.5842 59.7729C51.0083 59.7729 49.7307 61.0549 49.7307 62.6363C49.7307 64.2178 51.0083 65.4997 52.5842 65.4997Z" fill="#B9D4DB"/>
<path d="M119.626 111.91C121.814 111.91 123.588 110.13 123.588 107.935C123.588 105.739 121.814 103.959 119.626 103.959C117.438 103.959 115.664 105.739 115.664 107.935C115.664 110.13 117.438 111.91 119.626 111.91Z" fill="#B9D4DB"/>
<path d="M114.086 104.105C115.226 104.105 116.15 103.178 116.15 102.034C116.15 100.89 115.226 99.9631 114.086 99.9631C112.946 99.9631 112.022 100.89 112.022 102.034C112.022 103.178 112.946 104.105 114.086 104.105Z" fill="#B9D4DB"/>
<path d="M118.89 97.7576C119.547 97.7576 120.08 97.2228 120.08 96.5631C120.08 95.9034 119.547 95.3687 118.89 95.3687C118.232 95.3687 117.699 95.9034 117.699 96.5631C117.699 97.2228 118.232 97.7576 118.89 97.7576Z" fill="#B9D4DB"/>
<path d="M124.426 103.11C126.002 103.11 127.28 101.828 127.28 100.247C127.28 98.6655 126.002 97.3835 124.426 97.3835C122.85 97.3835 121.573 98.6655 121.573 100.247C121.573 101.828 122.85 103.11 124.426 103.11Z" fill="#B9D4DB"/>
<path d="M115.663 44.7224C117.851 44.7224 119.625 42.9425 119.625 40.7469C119.625 38.5513 117.851 36.7715 115.663 36.7715C113.475 36.7715 111.702 38.5513 111.702 40.7469C111.702 42.9425 113.475 44.7224 115.663 44.7224Z" fill="#B9D4DB"/>
<path d="M108.521 36.9169C109.66 36.9169 110.584 35.9898 110.584 34.8461C110.584 33.7025 109.66 32.7754 108.521 32.7754C107.381 32.7754 106.457 33.7025 106.457 34.8461C106.457 35.9898 107.381 36.9169 108.521 36.9169Z" fill="#B9D4DB"/>
<path d="M116.321 35.6382C117.897 35.6382 119.175 34.3562 119.175 32.7748C119.175 31.1934 117.897 29.9114 116.321 29.9114C114.745 29.9114 113.468 31.1934 113.468 32.7748C113.468 34.3562 114.745 35.6382 116.321 35.6382Z" fill="#B9D4DB"/>
<path d="M71.2142 94.9892C73.4022 94.9892 75.1759 93.2093 75.1759 91.0138C75.1759 88.8182 73.4022 87.0383 71.2142 87.0383C69.0262 87.0383 67.2524 88.8182 67.2524 91.0138C67.2524 93.2093 69.0262 94.9892 71.2142 94.9892Z" fill="#EE781D"/>
<path d="M65.6741 87.1837C66.8138 87.1837 67.7377 86.2566 67.7377 85.113C67.7377 83.9693 66.8138 83.0422 65.6741 83.0422C64.5344 83.0422 63.6105 83.9693 63.6105 85.113C63.6105 86.2566 64.5344 87.1837 65.6741 87.1837Z" fill="#EE781D"/>
<path d="M70.4781 80.8367C71.1355 80.8367 71.6685 80.3019 71.6685 79.6422C71.6685 78.9825 71.1355 78.4478 70.4781 78.4478C69.8206 78.4478 69.2876 78.9825 69.2876 79.6422C69.2876 80.3019 69.8206 80.8367 70.4781 80.8367Z" fill="#EE781D"/>
<path d="M76.0144 86.1894C77.5904 86.1894 78.8679 84.9075 78.8679 83.326C78.8679 81.7446 77.5904 80.4626 76.0144 80.4626C74.4385 80.4626 73.1609 81.7446 73.1609 83.326C73.1609 84.9075 74.4385 86.1894 76.0144 86.1894Z" fill="#EE781D"/>
<path d="M80.9867 39.672C89.0869 28.218 94.1157 17.8376 92.2186 16.4867L90.0451 14.939C88.148 13.588 80.0436 21.7782 71.9434 33.2322C63.8431 44.6862 58.8144 55.0665 60.7115 56.4175L62.885 57.9652C64.7821 59.3161 72.8864 51.126 80.9867 39.672Z" fill="#406EC7"/>
<path d="M78.8131 38.1239C86.9133 26.6699 91.942 16.2895 90.0449 14.9386C88.1479 13.5877 80.0435 21.7779 71.9432 33.2319C63.843 44.6859 58.8144 55.0663 60.7114 56.4172C62.6085 57.7681 70.7129 49.5779 78.8131 38.1239Z" fill="#6A94E6"/>
<path d="M77.0048 29.5745C79.2583 31.1792 72.6204 40.5653 70.3669 38.9606C68.1135 37.3558 67.7726 33.9538 69.6056 31.3619C71.4385 28.77 74.7513 27.9698 77.0048 29.5745Z" fill="#406EC7"/>
<path d="M61.0308 65.1238L66.9798 117.346H67.0443C67.0443 119.127 75.6984 120.57 86.3737 120.57C97.049 120.57 105.703 119.127 105.703 117.346H105.768L111.717 65.1238H61.0308Z" fill="#6A94E5"/>
<path d="M86.3738 69.3503C100.37 69.3503 111.717 67.458 111.717 65.1237C111.717 62.7895 100.37 60.8972 86.3738 60.8972C72.3772 60.8972 61.0308 62.7895 61.0308 65.1237C61.0308 67.458 72.3772 69.3503 86.3738 69.3503Z" fill="#406EC7"/>
<path d="M87.6605 76.853H86.5226C86.2387 76.853 86.0087 77.0839 86.0087 77.3687V114.271C86.0087 114.556 86.2387 114.787 86.5226 114.787H87.6605C87.9443 114.787 88.1744 114.556 88.1744 114.271V77.3687C88.1744 77.0839 87.9443 76.853 87.6605 76.853Z" fill="#406EC7"/>
<path d="M98.6383 114.837L97.2693 114.647C97.0507 114.617 96.8857 114.234 96.9007 113.792L98.1296 77.548C98.1446 77.1059 98.3339 76.7721 98.5524 76.8024L99.9215 76.9924C100.14 77.0227 100.305 77.4057 100.29 77.8478L99.0611 114.092C99.0461 114.534 98.8568 114.868 98.6383 114.837Z" fill="#406EC7"/>
<path d="M74.7562 114.837L76.1252 114.647C76.3437 114.617 76.5087 114.234 76.4937 113.792L75.2648 77.548C75.2499 77.1059 75.0606 76.7721 74.842 76.8024L73.473 76.9924C73.2545 77.0227 73.0895 77.4057 73.1045 77.8478L74.3334 114.092C74.3483 114.534 74.5376 114.868 74.7562 114.837Z" fill="#406EC7"/>
<path d="M97.5018 58.4384L95.7188 64.5046L80.306 59.9428C80.224 59.9185 80.1476 59.8783 80.0811 59.8244C80.0145 59.7705 79.9593 59.7039 79.9184 59.6286C79.8775 59.5532 79.8518 59.4705 79.8428 59.3852C79.8337 59.2999 79.8415 59.2136 79.8657 59.1313L87.0789 34.5911C87.1031 34.5088 87.1432 34.4321 87.1969 34.3653C87.2506 34.2986 87.317 34.2431 87.392 34.2021C87.4671 34.1611 87.5496 34.1353 87.6346 34.1262C87.7196 34.1171 87.8056 34.125 87.8876 34.1493L108.746 40.3227C108.828 40.347 108.904 40.3873 108.971 40.4412C109.037 40.4951 109.093 40.5616 109.134 40.637C109.175 40.7123 109.2 40.795 109.209 40.8804C109.218 40.9657 109.211 41.052 109.186 41.1342L103.572 60.235L97.5018 58.4384Z" fill="#EBF0FB"/>
<path d="M95.7188 64.5045L97.5018 58.4385L103.572 60.2349L95.7188 64.5045Z" fill="#CDD3DE"/>
<path d="M96.9418 41.9139L89.2604 39.6404L88.2261 43.1591L95.9075 45.4326L96.9418 41.9139Z" fill="url(#paint0_linear_535_11881)"/>
<path d="M98.3356 44.239L104.218 45.9802" stroke="url(#paint1_linear_535_11881)" stroke-width="3" stroke-miterlimit="10"/>
<path d="M84.8307 54.9878L90.7135 56.7289" stroke="url(#paint2_linear_535_11881)" stroke-width="3" stroke-miterlimit="10"/>
<path d="M87.4193 45.9041L102.895 50.4843" stroke="url(#paint3_linear_535_11881)" stroke-width="3" stroke-miterlimit="10"/>
<path d="M86.5315 48.9246L102.007 53.5048" stroke="url(#paint4_linear_535_11881)" stroke-width="3" stroke-miterlimit="10"/>
<path d="M85.6437 51.9451L101.119 56.5253" stroke="url(#paint5_linear_535_11881)" stroke-width="3" stroke-miterlimit="10"/>
<defs>
<linearGradient id="paint0_linear_535_11881" x1="88.7331" y1="41.4342" x2="96.4187" y2="43.6933" gradientUnits="userSpaceOnUse">
<stop stop-color="#366ED8"/>
<stop offset="1" stop-color="#274A8C"/>
</linearGradient>
<linearGradient id="paint1_linear_535_11881" x1="98.3356" y1="45.1267" x2="104.218" y2="45.1267" gradientUnits="userSpaceOnUse">
<stop stop-color="#366ED8"/>
<stop offset="1" stop-color="#274A8C"/>
</linearGradient>
<linearGradient id="paint2_linear_535_11881" x1="84.8307" y1="55.8754" x2="90.7135" y2="55.8754" gradientUnits="userSpaceOnUse">
<stop stop-color="#366ED8"/>
<stop offset="1" stop-color="#274A8C"/>
</linearGradient>
<linearGradient id="paint3_linear_535_11881" x1="87.4193" y1="48.2391" x2="102.895" y2="48.2391" gradientUnits="userSpaceOnUse">
<stop stop-color="#366ED8"/>
<stop offset="1" stop-color="#274A8C"/>
</linearGradient>
<linearGradient id="paint4_linear_535_11881" x1="86.5315" y1="51.2596" x2="102.007" y2="51.2596" gradientUnits="userSpaceOnUse">
<stop stop-color="#366ED8"/>
<stop offset="1" stop-color="#274A8C"/>
</linearGradient>
<linearGradient id="paint5_linear_535_11881" x1="85.6437" y1="54.2801" x2="101.119" y2="54.2801" gradientUnits="userSpaceOnUse">
<stop stop-color="#366ED8"/>
<stop offset="1" stop-color="#274A8C"/>
</linearGradient>
</defs>
</svg>
