<svg width="123" height="122" viewBox="0 0 123 122" fill="none" xmlns="http://www.w3.org/2000/svg">
<path d="M122.28 63.0306C122.26 78.2906 122.25 96.2305 122.08 114.161C122.06 116.051 122.02 117.941 122.04 119.831C122.04 120.441 121.83 120.581 121.26 120.621C113.53 121.081 105.8 120.981 98.06 120.981C82.51 120.981 66.96 121.031 51.41 121.041C36.07 121.041 20.74 121.041 5.4 121.021C3.91 121.021 2.42 120.971 0.94 120.741C0.27 120.641 0 120.401 0 119.671C0.06 103.471 -0.0200004 87.2705 0.15 71.0705C0.35 52.9305 0.54 34.7805 0.46 16.6405C0.44 12.4605 0.4 8.27055 0.37 4.09055C0.37 3.66055 0.37 3.24055 0.39 2.81055C0.45 0.950547 0.7 0.700547 2.54 0.670547C14.14 0.520547 25.74 0.410547 37.34 0.240547C60.09 -0.0994532 82.84 0.020547 105.59 0.020547C110.5 0.020547 115.4 0.060547 120.31 0.100547C122.16 0.120547 122.17 0.140547 122.15 1.93055C121.94 21.4105 122.13 40.8806 122.25 63.0306H122.28ZM28.7 42.6805C29.25 42.7005 29.57 42.3305 29.88 41.9705C30.11 41.7105 30.18 41.3305 29.85 41.1505C29.53 40.9705 29.15 41.0505 29.01 41.4705C28.88 41.8705 28.79 42.2805 28.69 42.6905V42.7105L28.7 42.6805ZM79.36 6.81055C80.95 6.88055 82.44 7.26055 83.83 8.08055C85.5 9.07055 87.22 8.63055 88.91 8.10055C89.21 8.01055 89.53 7.79055 89.62 7.41055C89.43 7.27055 89.22 7.24055 89 7.24055C87.1 7.19055 85.23 6.96055 83.41 6.40055C80.69 5.56055 77.95 5.24055 75.14 5.77055C73.45 6.09055 71.87 6.71055 70.56 7.86055C70.12 8.25055 69.75 8.79055 70.2 9.32055C70.65 9.86055 71.12 9.32055 71.51 9.08055C72.42 8.52055 73.34 7.98055 74.4 7.77055C77.49 7.16055 79.86 7.85055 81.25 10.9205C81.41 11.2805 81.63 11.6205 81.85 11.9505C82 12.1805 82.16 12.1805 82.35 11.9505C83.2 10.8705 82.86 9.06055 81.74 8.25055C80.97 7.70055 79.93 7.64055 79.28 6.88055C79.31 6.86055 79.33 6.84055 79.35 6.81055H79.36ZM69.84 86.7105C69.91 87.2105 69.72 87.5005 69.55 87.8005C68.63 89.4005 68.03 91.1305 67.39 92.8505C66.67 94.7905 66.82 96.4905 68.36 97.9705C68.45 98.0605 68.52 98.1805 68.6 98.2905C68.97 98.8105 69.08 99.3405 68.75 99.9305C68.32 100.701 67.9 101.471 67.51 102.251C66.32 104.651 67.61 106.961 70.28 107.251C70.81 107.311 71.34 107.371 71.87 107.421C72.46 107.471 72.62 107.611 72.21 108.191C71.05 109.861 70.34 111.711 70.33 113.771C70.33 114.471 70.24 115.161 69.98 115.811C69.71 116.501 69.4 117.301 68.56 117.411C66.63 117.661 64.69 117.471 62.77 117.231C62.19 117.161 61.66 117.021 61.08 117.171C58.8 117.771 56.48 117.651 54.16 117.571C53.21 117.541 52.61 116.971 52.36 116.031C52.09 115.011 52.24 114.011 52.47 113.031C52.7 112.021 52.59 111.151 51.9 110.351C51.53 109.931 51.23 109.461 50.9 109.011C50.61 108.621 50.72 108.401 51.18 108.291C51.88 108.121 52.58 107.971 53.27 107.761C55.77 107.001 56.69 104.881 55.51 102.571C55.04 101.651 54.5 100.761 53.95 99.8805C53.67 99.4305 53.69 99.0705 54.04 98.6705C54.58 98.0505 55.11 97.4205 55.59 96.7405C56.27 95.7605 56.33 94.7805 56.05 93.6505C55.34 90.7905 53.82 88.4505 51.75 86.4105C51.05 85.7205 50.35 85.0205 49.55 84.4405C49.31 84.2705 49.05 84.0305 49.21 83.7105C49.34 83.4505 49.65 83.5905 49.87 83.6405C50.44 83.7505 51 83.8305 51.56 84.0205C52.04 84.1805 52.83 84.3705 53.05 83.7405C53.25 83.1805 52.6 82.8205 52.1 82.6605C51.45 82.4505 50.75 82.3605 50.08 82.2105C49.29 82.0305 49.14 81.7905 49.42 81.0405C49.69 80.3305 49.52 79.8905 48.8 79.6105C46.67 78.7905 44.52 78.3405 42.25 78.9705C40.77 79.3805 39.65 80.1705 39.16 81.6805C39.09 81.8805 39 82.0705 38.89 82.2605C38.75 82.4905 38.58 82.7205 38.27 82.6805C37.92 82.6305 38.04 82.3105 37.99 82.1005C37.73 80.8605 37.9 79.6005 37.9 78.3605C37.9 77.4105 37.88 77.3605 36.99 77.7105C35.99 78.1105 34.98 78.4605 34.05 79.0305C30.99 80.8905 29.5 85.4305 30.94 88.5505C31.26 89.2605 31.92 89.6505 32.4 90.2105C33.76 91.7805 33.79 92.0405 32.57 93.6405C32.47 93.7705 32.37 93.8905 32.28 94.0205C31.78 94.7605 31.65 95.5005 32.08 96.3405C32.52 97.2005 32.99 98.0305 33.58 98.7805C34.48 99.9305 34.62 99.9705 36 99.5205C36.13 99.4805 36.25 99.4105 36.37 99.3805C36.93 99.2405 37.1 98.9005 37.03 98.3305C36.8 96.5505 36.85 94.7705 36.95 92.9805C36.97 92.5105 36.8 92.1905 36.44 91.8905C35.78 91.3505 35.17 90.7605 34.53 90.1905C34.1 89.8005 33.9 89.3205 34.03 88.7605C34.29 87.6205 34.83 86.6505 35.96 86.1805C37.14 85.6905 38.24 85.0405 39.36 84.4305C40.34 83.9005 41.36 83.7405 42.43 84.2205C43.79 84.8305 45.19 85.3305 46.59 85.8105C47.44 86.1005 48.2 86.5705 48.54 87.4605C48.83 88.2205 49.33 88.7805 49.95 89.2505C50.53 89.6905 50.89 90.2405 50.99 90.9805C51.11 91.9205 51.46 92.7705 52.04 93.5305C52.68 94.3805 52.72 95.2705 52.32 96.2305C51.93 97.1605 51.61 98.1205 51.26 99.0605C51.09 99.5105 50.85 99.9105 50.57 100.311C49.4 101.941 47.85 103.091 46.02 103.881C45.29 104.201 44.92 104.661 44.92 105.511C44.93 106.971 44.89 108.441 44.78 109.901C44.57 112.621 43.38 114.751 40.91 116.111C39.64 116.811 38.41 117.541 36.93 117.651C34.14 117.871 32.54 116.181 31.15 114.101C30.02 112.411 30.13 110.791 31.21 109.131C32.42 107.281 34.77 106.951 36.38 108.451C37.03 109.051 37.15 109.811 36.97 110.651C36.83 111.321 36.35 111.521 35.77 111.621C35.37 111.691 34.86 111.771 34.7 111.381C34.53 110.951 35.07 110.831 35.36 110.631C36.03 110.181 36.07 109.791 35.5 109.231C34.56 108.301 33.26 108.311 32.4 109.301C31.42 110.421 30.69 112.141 32.1 113.771C32.71 114.471 33.17 115.401 34.16 115.651C35.29 115.941 36.46 115.981 37.62 115.711C38.83 115.441 39.79 114.731 40.58 113.791C40.8 113.531 41.09 113.231 40.93 112.871C40.78 112.551 40.39 112.731 40.13 112.731C39.47 112.731 39.36 112.411 39.51 111.871C39.69 111.261 39.87 110.651 40.05 110.031C40.61 108.081 40.58 106.211 39.49 104.421C39.07 103.731 38.54 103.211 37.77 102.961C35.4 102.181 32.96 101.581 30.67 100.561C30.22 100.361 29.94 100.551 29.67 100.921C29.08 101.731 28.63 102.621 27.79 103.271C26.56 104.221 25.1 104.011 24.27 102.651C23.96 102.151 24.18 101.951 24.66 101.971C25.09 101.991 25.42 101.851 25.73 101.571C26.49 100.891 26.5 100.061 26.26 99.1605C25.44 96.0005 24.41 92.9005 24.23 89.6005C24.02 85.6405 25.33 82.2405 27.83 79.2405C29.59 77.1305 31.89 75.7405 34.33 74.5605C34.49 74.4805 34.74 74.3905 34.77 74.2605C34.83 74.0105 34.54 73.9505 34.37 73.8505C33.8 73.5205 33.21 73.2105 32.64 72.8705C27.98 70.0605 25.51 66.1005 26 60.5005C26.21 58.1005 26.79 55.7905 27.24 53.4405C27.53 51.9105 27.5 50.4305 26.68 49.0405C26.24 48.2905 25.61 47.7205 24.99 47.1305C24.79 46.9405 24.48 46.7405 24.9 46.4405C25.78 45.8305 27.04 45.9005 27.83 46.6705C28.52 47.3405 29.17 48.0405 29.83 48.7405C30.34 49.2905 30.86 49.8205 31.48 50.2405C31.86 50.5005 32.15 50.4905 32.4 50.0605C32.74 49.4905 33.11 48.9305 33.44 48.3605C34.54 46.4005 34 43.5705 32.26 42.1205C31.84 41.7705 31.41 41.7505 31.07 42.1705C30.64 42.7005 30.37 43.3005 30.69 44.0105C31.05 44.8205 31.42 45.6105 32.39 45.8805C32.59 45.9305 32.81 46.0405 32.77 46.3205C32.73 46.6205 32.48 46.7005 32.24 46.6905C31.49 46.6905 30.74 46.7005 30.01 46.6005C28.41 46.3905 27.39 44.9805 27.63 43.3905C27.84 42.0005 28.23 40.7005 29.36 39.7305C29.65 39.4805 30.02 39.1605 29.79 38.6405C29.49 37.9305 28.91 37.4505 28.39 36.9305C28.25 36.7905 28.08 36.8706 27.95 36.9506C26.79 37.6906 25.48 38.0505 24.16 38.3805C23.23 38.6205 22.66 39.2405 22.38 40.1505C22.21 40.6905 22.12 41.2405 22.1 41.8005C21.82 48.4505 21.5 55.1105 21.28 61.7605C21.03 69.4805 20.75 77.2005 20.37 84.9205C20.15 89.3905 19.91 93.8605 19.77 98.3305C19.68 101.271 19.88 104.171 21.09 106.941C21.96 108.941 23.28 110.591 24.85 112.051C26.01 113.131 26.48 114.301 26.11 115.901C25.92 116.741 25.62 117.021 24.77 117.051C20 117.251 15.22 117.201 10.45 117.161C8.69 117.151 6.93 117.241 5.17 117.061C4.6 117.001 4.26 116.711 4 116.231C3.34 115.031 3.68 113.981 4.43 112.971C5.11 112.061 5.77 111.141 6.21 110.081C7.01 108.151 7.21 106.111 7.28 104.061C7.58 95.2205 8 86.3905 8.41 77.5505C8.78 69.6805 9.1 61.8005 9.44 53.9305C9.51 52.3305 9.6 50.7405 9.67 49.1405C9.77 46.5805 9.85 44.0305 9.95 41.4705C9.97 40.9605 9.81 40.7105 9.29 40.5705C8.45 40.3405 7.64 40.0005 6.8 39.7505C6.19 39.5705 5.59 39.3105 4.94 39.3405C4.22 39.3805 3.79 40.0005 3.93 40.8505C4.05 41.5905 4.56 41.5905 5.14 41.4405C5.47 41.3505 5.81 41.2805 6.15 41.2205C6.76 41.1005 7.09 41.2505 6.9 41.9605C6.52 43.4105 6.35 44.8905 6.28 46.3905C6.26 46.8705 6.32 47.3405 6.68 47.6305C7.9 48.6005 7.64 49.7605 7.02 50.8505C6.32 52.0705 6.24 53.1905 6.91 54.4605C7.46 55.5105 7.54 56.6605 6.84 57.7305C5.85 59.2505 5.86 59.6905 6.9 61.1605C7.39 61.8505 7.43 62.9206 6.99 63.4906C6.61 63.9806 5.6 64.1406 4.82 63.8806C4.31 63.7106 4.09 63.4005 4.15 62.8605C4.24 62.0105 4.38 61.1805 4.74 60.3905C5.11 59.5705 5.11 58.7105 4.67 57.9305C3.98 56.7005 4.12 55.5505 4.8 54.3905C5.51 53.1605 5.41 51.8405 4.53 50.7505C4.27 50.4205 4.14 50.0805 4.1 49.6605C4.01 48.8205 4.27 48.0705 4.66 47.3705C5 46.7605 4.98 46.1805 4.8 45.5405C4.44 44.2605 3.86 43.0705 3.25 41.9005C2.64 40.7305 2.74 39.9005 3.6 38.9005C3.74 38.7405 3.85 38.5605 3.99 38.4005C4.6 37.7305 4.5 37.0905 4.01 36.3805C2.34 33.9705 2.2 31.3205 2.94 28.6005C3.45 26.7005 4.74 25.2605 6.01 23.8105C8.1 21.4205 8.71 18.6205 8.14 15.5405C7.94 14.4805 7.1 13.9005 6.03 14.0705C5.58 14.1405 4.95 14.1405 4.8 14.6305C4.66 15.0805 5.23 15.3005 5.54 15.5705C5.62 15.6405 5.7 15.7105 5.77 15.7905C5.93 15.9705 6.11 16.1605 5.97 16.4305C5.81 16.7305 5.51 16.8305 5.22 16.7605C4.5 16.5805 4.12 16.0505 3.95 15.3605C3.79 14.7205 3.57 14.0805 4.26 13.5505C5.2 12.8305 6.2 12.5405 7.31 13.0705C8.46 13.6305 9.22 14.5205 9.27 15.8605C9.31 16.9005 9.15 17.9305 9 18.9605C8.8 20.3705 8.5 21.7705 7.95 23.2305C8.72 23.1205 9.34 23.0105 9.97 22.9405C10.39 22.8905 10.58 22.7105 10.59 22.2805C10.61 21.4805 10.69 20.6805 10.69 19.8905C10.71 16.5605 10.83 13.2305 10.54 9.91055C10.49 9.36055 10.25 9.09055 9.74 8.99055C8.82 8.81055 7.92 8.60055 6.97 8.64055C6.01 8.69055 5.06 8.58055 4.1 8.49055C3.61 8.44055 3.48 8.27055 3.47 7.80055C3.46 7.13055 3.72 6.70055 4.29 6.37055C5.49 5.67055 6.81 5.34055 8.14 5.12055C12.62 4.36055 17.15 4.19055 21.69 4.14055C22.26 4.14055 22.75 4.30055 23.14 4.69055C23.57 5.12055 24.01 5.55055 24.38 6.04055C26.78 9.20055 29.16 12.3705 31.56 15.5305C31.82 15.8705 32.02 16.5205 32.45 16.4305C32.81 16.3505 32.9 15.7005 33.05 15.2905C33.7 13.5505 34.17 11.7405 35.08 10.1005C35.33 9.65055 35.06 9.47055 34.72 9.32055C33.99 8.99055 33.25 8.69055 32.54 8.33055C31.39 7.76055 30.46 6.97055 30.11 5.56055C30.75 5.61055 31.33 5.63055 31.9 5.70055C33.39 5.87055 34.88 5.91055 36.36 5.60055C37.71 5.32055 39.05 4.94055 40.41 4.71055C44.32 4.06055 48.1 4.29055 51.62 6.36055C52.56 6.92055 53.42 7.59055 54.31 8.22055C54.73 8.52055 55.24 8.87055 55.68 8.53055C56.07 8.23055 55.77 7.69055 55.64 7.26055C55.27 5.95055 55.3 4.70055 56.15 3.54055C56.74 2.72055 56.99 2.69055 57.47 3.58055C58.83 6.08055 60.42 8.45055 61.65 11.0105C61.71 11.1305 61.74 11.3305 61.99 11.2805C62.32 10.6505 62.49 9.95055 62.65 9.26055C63.13 7.22055 63.62 5.18055 64.08 3.13055C64.23 2.44055 64.56 2.31055 65.22 2.51055C65.85 2.71055 66.16 3.22055 66.52 3.65055C67.33 4.62055 67.31 5.84055 67.28 7.03055C67.26 7.95055 67.74 8.25055 68.61 7.86055C69.03 7.67055 69.36 7.36055 69.72 7.09055C71.78 5.53055 73.93 4.17055 76.66 4.24055C78.37 4.28055 80.08 4.36055 81.72 4.89055C84.72 5.86055 87.78 6.30055 90.93 6.04055C91.11 6.02055 91.3 6.04055 91.49 6.05055C91.78 6.05055 91.89 6.19055 91.73 6.45055C91.11 7.48055 90.53 8.54055 89.2 8.84055C88.6 8.97055 88.01 9.15055 87.43 9.34055C86.96 9.50055 86.81 9.79055 87.13 10.2605C87.6 10.9405 88.06 11.6205 88.61 12.2405C88.9 12.5705 89.12 12.7505 89.42 12.2105C89.76 11.6105 90.19 11.0605 90.57 10.4805C91.83 8.54055 93.09 6.60055 94.32 4.64055C95 3.56055 95.86 3.04055 97.21 3.05055C101.88 3.10055 106.54 3.03055 111.21 3.05055C112.41 3.05055 113.61 3.14055 114.8 3.29055C116.57 3.52055 118.31 3.89055 119.98 4.57055C120.86 4.92055 120.92 4.86055 120.95 3.94055C120.97 3.22055 120.88 2.50055 120.92 1.78055C120.96 1.01055 120.64 0.790547 119.89 0.770547C115.54 0.640547 111.2 0.670547 106.85 0.700547C87.35 0.820547 67.85 0.610547 48.36 1.08055C33.35 1.44055 18.33 1.29055 3.31 1.59055C1.76 1.62055 1.75 1.61055 1.74 3.13055C1.65 15.1705 1.45 27.2205 1.5 39.2605C1.6 63.2405 1.26 87.2205 1.16 111.201C1.15 113.621 1.16 116.051 1.21 118.471C1.23 119.701 1.26 119.721 2.45 119.761C4.18 119.811 5.92 119.831 7.65 119.841C19.17 119.911 30.69 120.161 42.22 120.121C60.94 120.051 79.67 120.101 98.39 120.171C105.25 120.201 112.1 120.171 118.95 119.951C121 119.881 121 119.811 121.03 117.731C121.11 111.711 121.28 105.691 121.24 99.6705C121.13 80.5105 121.06 61.3505 121.03 42.1905C121.03 41.5505 121.03 40.9105 121.02 40.2705C121.02 40.0905 121.02 39.8605 120.81 39.8005C120.62 39.7405 120.46 39.9005 120.33 40.0405C120.21 40.1805 120.09 40.3305 120.02 40.5005C119.48 41.8005 118.97 43.1105 118.43 44.4105C118.08 45.2605 118.1 46.0605 118.6 46.8505C118.99 47.4705 119.12 48.1605 118.85 48.8405C118.12 50.6505 118.29 52.4905 118.64 54.3405C118.82 55.2705 118.66 56.2005 118.26 57.0105C117.66 58.2405 117.66 59.4005 118.24 60.6105C118.53 61.2205 118.7 61.8705 118.56 62.5505C118.41 63.2805 117.71 63.6505 116.96 63.4305C115.94 63.1305 115.63 62.6806 115.89 61.8806C116.28 60.7006 116.83 59.5705 116.59 58.2505C116.46 57.5605 116.27 56.9105 116.05 56.2605C115.77 55.4605 115.55 54.5905 116.16 53.9005C116.85 53.1305 117.02 52.3505 116.74 51.4105C116.61 50.9505 116.5 50.4905 116.35 50.0305C116.03 49.0405 115.9 48.0405 116.32 47.0705C116.64 46.3405 116.7 45.6205 116.53 44.8905C116.26 43.7005 116.41 42.4405 115.85 41.3005C115.69 40.9705 115.87 40.7805 116.24 40.8905C116.44 40.9505 116.63 41.0505 116.83 41.1305C118.43 41.7605 119.32 41.1305 119.24 39.4005C119.19 38.1705 118.45 37.6905 117.39 38.3105C116.28 38.9605 115.1 39.4305 113.93 39.9305C113.34 40.1805 113.14 40.5105 113.18 41.1305C113.33 43.4705 113.43 45.8105 113.58 48.1505C114.13 56.5805 114.59 65.0105 114.94 73.4505C115.34 83.0105 115.63 92.5705 115.97 102.131C116.09 105.491 116.7 108.731 118.3 111.751C118.67 112.451 119.03 113.171 119.19 113.961C119.52 115.501 118.92 116.251 117.4 116.281C112.92 116.351 108.44 116.431 103.96 116.521C101.29 116.571 98.63 116.631 95.96 116.721C95.26 116.741 94.94 116.501 94.76 115.781C94.43 114.441 94.76 113.331 95.61 112.291C96.8 110.851 97.96 109.391 98.79 107.711C100.1 105.071 100.42 102.241 100.43 99.3505C100.46 93.3305 100.13 87.3105 99.86 81.3005C99.7 77.7605 99.56 74.2205 99.31 70.6905C98.82 63.7805 98.78 56.8605 98.32 49.9506C98.06 46.0206 98.03 42.0705 97.83 38.1405C97.8 37.6505 97.64 37.4705 97.14 37.3805C95.68 37.1405 94.62 36.4305 94.11 34.9205C93.62 33.4705 93.27 31.9605 92.51 30.6105C92.42 30.4505 92.38 30.2005 92.25 30.1505C92.03 30.0705 91.99 30.3405 91.88 30.4805C90.73 31.9705 89.65 33.5205 88.65 35.1105C87.78 36.5005 87 37.9405 86.68 39.6805C87.54 39.2605 88.09 38.6005 88.77 38.1005C89.66 37.4405 90.53 37.3805 91.6 37.8005C93.52 38.5605 94.22 40.0805 94.61 41.8905C94.83 42.9205 94.44 43.7005 93.48 44.1605C92.97 44.4005 92.46 44.3505 92.03 44.0705C91.57 43.7705 91.78 43.2405 91.92 42.9005C92.24 42.1305 92 41.7005 91.3 41.3705C90.31 40.9105 89.46 40.9605 88.99 41.5705C88.63 42.0405 88.29 42.5405 88.24 43.1405C88.06 45.1605 88.38 47.0705 89.66 48.7305C90.18 49.4105 90.8 49.5005 91.52 49.0505C92.69 48.3205 93.55 47.2505 94.51 46.3005C94.88 45.9305 95.29 45.6505 95.78 45.5105C96.39 45.3305 96.65 45.5705 96.54 46.1905C96.5 46.4205 96.42 46.6605 96.31 46.8705C95.79 47.9205 95.59 49.0305 95.57 50.1905C95.51 53.1605 95.92 56.0906 96.49 58.9906C97.28 63.0006 96.73 66.6005 93.8 69.6605C92.39 71.1405 90.86 72.4305 89 73.3105C88.33 73.6305 88.34 74.0005 88.99 74.2805C91.21 75.2305 93.03 76.7205 94.66 78.4605C98.61 82.7005 99.65 87.6405 97.92 93.1105C97.15 95.5305 95.89 97.7805 95.07 100.201C94.78 101.071 94.98 101.621 95.87 101.821C96.39 101.941 96.91 102.051 97.43 102.141C97.93 102.221 97.91 102.481 97.68 102.801C97.2 103.461 96.53 103.381 95.87 103.221C95.01 103.021 94.37 102.441 93.68 101.941C92.94 101.411 92.14 101.041 91.22 101.371C89.87 101.851 88.48 102.221 87.25 103.011C86.29 103.631 85.53 104.551 84.47 105.021C83.3 105.541 82.89 106.471 82.72 107.631C82.56 108.701 82.7 109.761 82.81 110.821C82.88 111.441 82.77 111.901 82.15 112.191C81.52 112.491 81.48 113.011 81.71 113.611C81.91 114.111 82.26 114.441 82.77 114.621C83.78 114.981 84.82 115.181 85.91 115.121C88.57 114.971 90.44 112.511 89.81 109.931C89.57 108.941 88.85 108.281 87.92 107.921C87.36 107.701 86.35 108.121 86.03 108.681C85.66 109.301 85.74 109.891 86.24 110.441C86.47 110.701 86.94 111.041 86.61 111.351C86.28 111.651 85.82 111.351 85.5 111.031C84.88 110.411 84.77 109.221 85.25 108.361C85.79 107.391 87.22 106.681 88.14 106.931C90.3 107.501 91.77 109.991 91.18 112.291C90.6 114.561 88.84 115.821 86.89 116.861C86.47 117.091 86 117.201 85.51 117.211C82.56 117.251 78.31 114.631 78.06 110.811C77.99 109.651 78.03 108.501 78.19 107.391C78.45 105.591 77.76 104.321 76.44 103.221C74.44 101.541 72.54 99.7905 71.52 97.2605C71 95.9605 70.33 94.7405 71.09 93.3305C71.81 92.0005 72.57 90.6905 73.06 89.2405C73.17 88.9005 73.43 88.5905 73.67 88.3105C74.52 87.3405 75.6 86.6405 76.59 85.8305C76.8 85.6605 77.05 85.5205 77.32 85.5505C78.32 85.6605 79.12 85.2205 79.93 84.7305C82.23 83.3205 83.88 83.5405 85.77 85.4905C86.12 85.8505 86.47 86.2405 86.97 86.3905C88.41 86.8005 89.42 87.6305 89.82 89.1105C89.92 89.4905 90.18 89.6305 90.61 89.5405C92.26 89.1905 93.24 87.9605 93.14 86.3005C92.92 82.6205 89.82 78.6805 86.32 77.6105C85.76 77.4405 85.61 77.6105 85.65 78.1605C85.72 79.1505 85.65 80.1305 85.51 81.1105C85.41 81.8005 85.16 82.3805 84.59 82.8105C84.2 83.1005 83.96 83.0305 83.8 82.6005C83.61 82.0805 83.47 81.5305 83.26 81.0205C82.47 79.1105 80.89 78.1805 78.84 78.3205C77.72 78.4005 76.64 78.7105 75.54 78.9005C74.66 79.0605 73.99 79.4805 73.44 80.2005C72.75 81.1005 72.71 81.0705 73.51 81.8605C74.31 82.6505 74.39 83.8005 73.63 84.3905C72.89 84.9605 72.09 85.4505 71.31 85.9505C71.11 86.0805 70.9 86.1905 70.74 85.8405C70.45 85.1905 69.98 85.2605 69.42 85.5305C67.42 86.4905 66.23 88.2305 65.09 90.0005C64.6 90.7605 64.11 91.4605 63.18 91.6905C62.69 91.8105 62.57 92.1605 62.66 92.6105C62.82 93.4205 62.86 94.2505 62.9 95.0705C62.91 95.3305 62.9 95.6205 63.3 95.6505C64.78 95.7705 65.33 95.6205 65.69 94.3405C66.29 92.1905 66.87 90.0205 68.26 88.2005C68.68 87.6405 69.03 86.9905 69.83 86.7205L69.84 86.7105ZM104.79 27.6105C104.56 21.2105 104.14 15.5005 103.63 9.80055C103.59 9.32055 103.41 9.22055 102.97 9.33055C101.63 9.66055 100.29 10.1005 98.93 10.2505C97.38 10.4305 96.67 11.6005 96.05 12.6305C95.35 13.8005 94.71 15.0205 93.96 16.1605C90.45 21.4905 87.1 26.9305 83.7 32.3305C80.88 36.8105 77.98 41.2405 75.1 45.6805C72.84 49.1605 70.55 52.6305 68.29 56.1005C65.94 59.7105 63.58 63.3205 61.27 66.9505C60.81 67.6705 60.52 67.4405 60.12 67.0005C60.05 66.9205 59.98 66.8405 59.91 66.7605C57.56 63.7305 55.2 60.7105 52.88 57.6605C47.42 50.4705 42.01 43.2505 36.54 36.0705C31.39 29.3205 26.19 22.6005 21.01 15.8705C20.23 14.8605 19.45 13.8605 18.65 12.8705C18.48 12.6605 18.27 12.3405 17.95 12.4305C17.64 12.5105 17.7 12.8705 17.64 13.1105C17.49 13.8105 17.28 14.5005 17.24 15.2105C17.09 17.6505 17.01 20.1005 16.88 22.5405C16.7 25.9205 16.5 29.2905 16.34 32.6705C16.28 33.8405 16.24 35.0105 16.57 36.1605C16.61 36.3105 16.55 36.4905 16.83 36.5505C18.26 36.8905 21.07 35.5005 21.12 34.0105C21.17 32.3105 21.38 30.6205 21.5 28.9205C21.58 27.8905 22.1 27.6105 23.01 28.1805C23.6 28.5605 24.02 29.1205 24.44 29.6705C26.96 32.9705 29.55 36.2205 32.03 39.5405C34.37 42.6705 36.82 45.7305 39.22 48.8205C42.4 52.9105 45.58 57.0106 48.76 61.1006C51.36 64.4406 53.98 67.7605 56.56 71.1205C57.67 72.5705 58.72 74.0705 59.97 75.4105C60.39 75.8605 60.72 75.9005 61.16 75.4605C61.65 74.9705 62.16 74.5005 62.53 73.9005C66.49 67.4605 70.54 61.0805 74.61 54.7105C77.46 50.2505 80.26 45.7605 83.1 41.2905C86.69 35.6405 90.29 30.0005 93.89 24.3705C94.78 22.9805 95.62 21.5505 96.68 20.2805C97.24 19.6105 97.46 19.6805 97.95 20.4305C98.27 20.9105 98.34 21.4005 98.38 21.9305C98.62 25.1405 98.67 28.3705 99.16 31.5605C99.29 32.4205 99.66 33.0705 100.41 33.4805C101.71 34.2005 103.04 34.8505 104.5 35.2205C105.07 35.3705 105.12 35.1806 105.09 34.7006C104.97 32.0906 104.87 29.4805 104.8 27.5605L104.79 27.6105ZM118.13 5.25055C117.69 4.99055 117.29 4.67055 116.79 4.58055C115.71 4.37055 114.62 4.31055 113.53 4.31055C108.54 4.33055 103.55 4.39055 98.57 4.38055C96.98 4.38055 95.79 5.01055 94.96 6.31055C93.18 9.09055 91.41 11.8805 89.69 14.6905C87.3 18.6105 84.96 22.5605 82.6 26.5005C78.58 33.1905 74.3 39.7105 70.04 46.2405C68.88 48.0205 67.75 49.8105 66.6 51.5905C65.37 53.5005 64.19 55.4605 62.84 57.2905C62.13 58.2605 62.1 58.2505 61.3 57.2905C58.64 54.1005 56.27 50.6905 53.75 47.4005C49.75 42.1905 45.8 36.9405 41.89 31.6505C37.19 25.3005 32.75 18.7505 27.87 12.5305C26.39 10.6505 25.12 8.60055 23.56 6.78055C22.77 5.86055 21.87 5.23055 20.54 5.31055C16.87 5.54055 13.19 5.73055 9.53 6.12055C8.56 6.22055 7.57 6.35055 6.63 6.67055C6.39 6.75055 6.15 6.82055 6.17 7.12055C6.19 7.45055 6.47 7.44055 6.7 7.49055C7.01 7.55055 7.33 7.60055 7.64 7.66055C9.93 8.11055 12.24 8.39055 14.46 9.19055C17.29 10.2005 19.25 12.2105 21 14.5005C23.38 17.6005 25.76 20.7005 28.12 23.8205C32.82 30.0105 37.5 36.2205 42.2 42.4105C46.92 48.6205 51.64 54.8306 56.37 61.0306C57.63 62.6806 58.95 64.2805 60.24 65.9105C60.63 66.4005 60.95 66.4905 61.29 65.8505C61.47 65.5005 61.77 65.2105 61.98 64.8705C66.36 58.1305 70.74 51.3905 75.1 44.6305C79.03 38.5405 82.95 32.4605 86.82 26.3405C89.84 21.5805 92.77 16.7605 95.77 11.9805C96.42 10.9505 97.15 9.99055 98.46 9.63055C103.65 8.20055 108.88 6.96055 114.21 6.20055C115.54 6.01055 116.9 5.84055 118.13 5.25055ZM106.27 58.9206C106.16 53.6606 105.54 47.4805 105.54 41.2705C105.54 40.9705 105.4 40.8505 105.16 40.7505C103.4 40.0005 101.65 39.2605 99.89 38.5005C99.33 38.2605 99.14 38.3605 99.2 39.0205C99.34 40.5005 99.41 41.9905 99.48 43.4805C99.8 50.0405 100.11 56.5905 100.43 63.1505C100.53 65.3005 100.67 67.4605 100.75 69.6105C100.95 74.5905 101.14 79.5605 101.31 84.5405C101.5 90.4005 101.77 96.2505 101.67 102.111C101.63 104.531 101.03 106.781 99.67 108.821C99.26 109.441 98.91 110.101 98.55 110.751C98.47 110.881 98.39 111.061 98.5 111.191C98.62 111.341 98.79 111.231 98.94 111.161C99.13 111.081 99.33 110.991 99.52 110.891C102.09 109.471 104.27 107.591 106.18 105.381C107.23 104.161 108.03 102.891 107.96 101.171C107.88 99.2605 107.92 97.3505 107.79 95.4305C107.4 89.7805 107.25 84.1105 107.01 78.4505C106.75 72.2505 106.6 66.0505 106.27 58.9005V58.9206ZM116.54 112.001C116.65 111.631 116.54 111.311 116.42 110.981C115.74 108.961 115.21 106.911 114.94 104.791C114.65 102.491 114.66 100.161 114.55 97.8505C114.04 87.3205 113.55 76.7805 113.09 66.2405C112.72 57.7005 112.3 49.1605 111.79 40.6305C111.76 40.0805 111.58 39.9505 111.06 40.0505C109.87 40.2905 108.82 40.8805 107.69 41.2705C106.23 41.7705 106.23 41.7905 106.3 43.3105C106.57 49.3005 106.85 55.2806 107.13 61.2705C107.61 71.7305 108.09 82.1805 108.57 92.6405C108.73 96.2105 108.88 99.7705 109.04 103.341C109.08 104.211 109.39 104.981 109.94 105.681C111.63 107.791 113.57 109.651 115.59 111.431C115.86 111.671 116.15 111.921 116.53 112.001H116.54ZM84.93 41.7105C84.55 41.9305 84.37 42.2505 84.17 42.5505C83.2 44.0805 82.29 45.6505 81.26 47.1305C78.2 51.5505 75.4 56.1505 72.46 60.6505C70.61 63.4805 68.8 66.3305 66.99 69.1905C66.28 70.3105 65.5 71.4005 65 72.6505C64.66 73.5205 64.85 74.4605 65.56 74.7505C67.1 75.3705 68.67 75.8905 70.3 74.9205C74.08 72.6905 78.3 71.4805 82.32 69.7905C82.82 69.5805 83.3 69.6005 83.75 69.9505C84.16 70.2705 84.63 70.5105 85.15 70.4205C88.63 69.7805 91.97 68.1405 93.12 63.9305C94.23 59.8705 92.25 55.6805 87.8 54.7905C85.64 54.3605 82.73 55.1505 81.74 57.0305C80.28 59.8105 80.41 63.1505 84.44 64.0205C85.54 64.2605 86.37 63.8406 87.09 63.1306C88.02 62.2206 87.76 61.1705 86.52 60.7205C86.1 60.5705 85.66 60.4506 85.24 60.2806C85 60.1806 84.81 60.0305 85.13 59.7705C85.7 59.3105 87.06 59.1605 87.63 59.5905C88.44 60.2005 89.01 60.9906 89.07 62.0606C89.17 64.0706 88.09 65.3505 86.43 66.2605C85.49 66.7705 84.45 67.0205 83.44 67.3505C82.24 67.7505 81.12 67.6905 79.97 67.1505C78.53 66.4705 78.51 66.5205 77.61 67.9105C76.14 70.1905 73.1 70.6805 71.09 68.9605C70.28 68.2705 70.19 67.2605 70.84 66.1405C71.25 65.4305 71.81 65.2905 72.82 65.6605C72.55 65.9605 72.25 66.2305 72.01 66.5505C71.04 67.8105 71.27 68.5005 72.81 68.9605C72.84 68.9605 72.86 68.9805 72.89 68.9905C74.78 69.5105 76.57 68.6305 76.98 66.9705C77.17 66.1905 77.15 65.3905 77.09 64.5905C76.94 62.4805 76.98 60.3905 77.76 58.3805C78.04 57.6605 78.12 56.8505 77.92 56.1005C77.65 55.0805 78.07 54.4105 78.84 53.8505C79.36 53.4705 79.9 53.1605 80.49 52.8905C82.12 52.1605 83.89 51.8405 85.48 51.0005C85.92 50.7605 86.16 50.4705 86.19 49.9605C86.25 48.8805 86.1 47.8405 85.62 46.8605C84.98 45.5605 84.71 44.2105 84.99 42.7605C85.05 42.4405 85.06 42.0905 84.91 41.7205L84.93 41.7105ZM14.97 70.9505C14.58 79.7405 14.27 86.0505 14.04 92.3505C13.89 96.3705 13.88 100.391 13.81 104.411C13.8 105.081 13.86 105.731 14.31 106.291C15.51 107.801 16.85 109.171 18.41 110.301C19.45 111.051 20.54 111.711 21.82 111.991C22.02 112.031 22.28 112.171 22.42 111.971C22.55 111.781 22.36 111.581 22.22 111.411C21.68 110.721 21.15 110.021 20.73 109.251C19.01 106.121 18.39 102.721 18.32 99.2005C18.22 94.2205 18.63 89.2505 18.86 84.2805C19.09 79.2305 19.37 74.1805 19.6 69.1205C19.76 65.5305 19.91 61.9405 20.02 58.3405C20.18 53.0705 20.56 47.8105 20.57 42.5305C20.57 41.9705 20.38 41.7905 19.88 41.7505C18.9 41.6705 17.92 41.5905 16.94 41.4605C16.43 41.3905 16.25 41.4905 16.23 42.0605C16.1 46.2105 15.96 50.3605 15.78 54.5105C15.49 60.8105 15.17 67.1205 14.98 70.9305L14.97 70.9505ZM36.51 15.8005C36.44 15.8305 36.37 15.8505 36.3 15.8805C36.21 16.4205 36.18 16.9805 36.03 17.5105C35.44 19.6805 35.46 21.7105 37.19 23.4205C37.3 23.5305 37.38 23.6805 37.47 23.8105C39.99 27.1705 42.5 30.5505 45.04 33.9005C46.65 36.0205 48.31 38.1005 49.95 40.1905C50.3 40.6405 50.67 40.7205 51.19 40.4305C51.72 40.1305 52.29 39.8205 52.87 39.7205C54.61 39.4405 55.52 38.4805 55.64 36.7305C55.68 36.2305 55.98 35.9205 56.5 35.8305C56.81 35.7705 57.11 35.6505 57.42 35.5805C58.02 35.4405 58.29 35.1005 58.34 34.4605C58.44 33.2605 58.11 32.1405 57.83 31.0105C57.4 29.3005 56.52 28.1205 54.57 27.9205C52.91 27.7505 52.87 27.1505 53.11 29.2405C53.33 31.1105 53 32.8306 52.06 34.4506C51.25 35.8406 49.57 36.2305 48.57 35.2505C48.29 34.9705 47.93 34.5705 48.13 34.2205C48.34 33.8605 48.75 34.2405 49.04 34.3405C50.16 34.7105 50.91 34.1605 50.83 32.9605C50.81 32.6505 50.72 32.3305 50.63 32.0305C50.29 30.8605 49.92 29.6905 49.61 28.5105C49.11 26.6105 48.63 24.7005 48.4 22.7505C48.17 20.7105 48.85 18.8105 49.33 16.8805C49.44 16.4305 49.73 16.0705 50.1 15.7905C50.9 15.1705 51.73 14.5905 52.64 14.1405C53.54 13.7005 53.58 13.6005 53.16 12.7505C51.41 9.22055 46.89 7.65055 43.35 9.34055C42.28 9.85055 41.71 10.8205 41.9 11.9605C41.98 12.4205 41.8 12.6505 41.46 12.8405C41.13 13.0205 40.76 13.0705 40.4 13.1605C39.38 13.4005 38.97 14.1505 39.28 15.1505C39.55 16.0305 40.3 16.5505 40.87 17.2105C41.59 18.0605 43.32 18.1505 44.27 17.5605C44.87 17.1905 45.09 16.5705 45.11 15.9305C45.12 15.3205 44.72 14.9205 44.14 14.7005C43.72 14.5405 43.31 14.3505 42.9 14.1605C42.71 14.0805 42.49 14.0205 42.56 13.7205C42.67 13.2105 43.87 12.2205 44.38 12.3505C45.42 12.6105 46.46 12.9405 47.17 13.8405C48.12 15.0405 48.02 16.4305 47.79 17.8105C47.65 18.6505 47.47 19.6105 46.7 20.0405C45.62 20.6305 44.4 21.4205 43.2 21.1905C41.13 20.8005 39.05 20.1705 37.92 18.0505C37.5 17.2705 36.97 16.5505 36.48 15.8005H36.51ZM15.27 46.4605C15.27 46.4605 15.3 46.4605 15.31 46.4605C15.31 44.8905 15.3 43.3205 15.31 41.7505C15.31 41.3505 15.22 41.1906 14.79 41.2006C14.13 41.2206 13.46 41.1405 12.79 41.1405C11.38 41.1305 11.38 41.1405 11.29 42.5305C11.29 42.5805 11.29 42.6405 11.29 42.6905C11.04 48.9805 10.77 55.2706 10.54 61.5606C10.04 75.3206 9.5 89.0805 8.86 102.831C8.73 105.661 8.47 108.451 7.35 111.111C7.17 111.551 6.68 112.251 7.16 112.521C7.59 112.771 8.12 112.131 8.52 111.751C11.53 108.881 12.93 105.441 12.91 101.221C12.87 91.5205 13.65 81.8505 14.04 72.1705C14.39 63.6005 14.85 55.0405 15.25 46.4805L15.27 46.4605ZM79.5 19.8605C76.55 19.9205 75.66 19.3505 74.5 16.9905C73.66 15.2705 73.82 14.3205 75.17 12.9905C75.38 12.7805 75.59 12.5805 75.8 12.3705C76.93 11.3005 77.02 11.3205 77.94 12.5505C78.26 12.9705 78.32 13.3405 77.98 13.7705C77.78 14.0205 77.61 14.2905 77.45 14.5705C76.99 15.3905 77.33 16.2305 78.23 16.5305C80.35 17.2405 81.83 16.4305 82.42 14.2805C82.6 13.6305 82.51 13.2505 81.74 13.2305C80.95 13.2105 80.46 12.7805 80.25 12.0205C80.18 11.7705 80.06 11.5305 79.97 11.2805C79.46 9.88055 78.39 9.17055 76.97 9.00055C74.38 8.69055 72.27 9.58055 70.64 11.6305C69.67 12.8405 69.66 13.2205 70.69 14.3605C70.9 14.6005 71.13 14.8305 71.35 15.0505C72.61 16.3005 73.36 17.8505 73.96 19.4805C74.16 20.0405 74.18 20.6105 74.08 21.2105C73.59 23.9105 72.93 26.5605 72.08 29.1705C71.64 30.5305 71.22 31.9005 70.77 33.2605C70.58 33.8205 70.77 33.9505 71.31 33.9405C71.85 33.9305 72.35 33.7305 72.88 33.6705C73.21 33.6405 73.41 33.6705 73.26 34.1005C72.8 35.3905 71.42 35.9305 70.37 35.1205C69.09 34.1305 68.26 32.8905 68.65 31.1305C68.84 30.3005 68.93 29.4505 69.05 28.6105C69.08 28.3905 69.15 28.1305 68.86 27.9805C68.09 27.5905 66.53 28.1105 66.2 28.9305C65.62 30.3405 65.19 31.7905 64.94 33.2905C64.64 35.0605 64.68 35.0605 66.45 35.4305C66.53 35.4505 66.61 35.4805 66.68 35.4805C67.4 35.4805 67.72 35.9005 67.88 36.5305C68.06 37.2305 68.26 37.9105 68.45 38.6105C68.56 39.0305 68.77 39.3005 69.25 39.3705C70.06 39.5005 70.87 39.6705 71.67 39.9005C72.34 40.0905 72.74 39.9205 73.1 39.3105C74.31 37.2705 75.59 35.2805 76.8 33.2405C79.51 28.6905 82.48 24.3005 85.04 19.6605C85.42 18.9705 85.81 18.2705 86.15 17.5605C86.27 17.3205 86.4 16.9605 86.1 16.7505C85.79 16.5305 85.65 16.8805 85.46 17.0405C83.62 18.6505 81.79 20.2905 79.53 19.8505L79.5 19.8605ZM49.59 66.9405C50.01 67.2605 50.23 67.6305 50.43 67.9905C50.9 68.8305 50.38 70.0405 49.45 70.3305C48.1 70.7505 46.4 70.2505 45.55 69.1205C44.98 68.3505 44.46 67.5405 43.97 66.7205C43.52 65.9605 43.56 65.9505 42.98 66.6605C42.05 67.7905 40.99 68.6205 39.4 68.1105C38.19 67.7205 36.97 67.3505 35.83 66.7605C34.13 65.8905 33.19 64.4106 32.71 62.6306C32.43 61.5906 33 60.4805 33.95 59.9405C34.58 59.5805 36.14 59.8105 36.75 60.3605C36.89 60.4805 37.02 60.6205 37.05 60.8205C37.09 61.0505 37.24 61.2806 37.01 61.4906C36.82 61.6606 36.6 61.6005 36.41 61.5505C36.03 61.4405 35.66 61.2705 35.28 61.1805C34.63 61.0205 34.14 61.3406 34.03 61.9506C33.82 63.1606 34.34 63.9705 35.54 64.2905C35.93 64.3905 36.31 64.5005 36.71 64.5605C39.25 64.9505 40.99 63.4305 41.35 61.4305C41.69 59.5205 41.2 57.6805 39.45 56.6005C37.62 55.4705 35.51 55.1805 33.58 56.2505C31.12 57.6205 29.41 61.1605 30.27 64.0905C31.23 67.3705 33.44 69.4005 36.59 70.5405C37.38 70.8205 38.06 70.9805 38.57 70.1105C38.82 69.7005 39.13 69.6305 39.56 69.9105C40.87 70.7705 42.35 71.2105 43.83 71.6405C46.9 72.5405 49.9 73.5905 52.66 75.2405C53.98 76.0305 54.64 75.9905 55.81 75.1105C56.56 74.5405 56.63 74.1905 56.17 73.3505C55.23 71.6405 53.94 70.1805 52.75 68.6405C51.06 66.4505 49.35 64.2705 47.66 62.0805C47.42 61.7705 47.27 61.6705 47.05 62.0805C46.55 63.0205 46.01 63.9405 45.53 64.8805C44.39 67.1405 45.99 69.7705 48.5 69.7605C49.61 69.7605 50.06 69.1105 49.74 68.0205C49.65 67.7005 49.44 67.3905 49.58 66.9505L49.59 66.9405ZM27.34 84.5305C27.57 85.3605 27.55 86.0505 27.61 86.7305C27.69 87.6905 27.81 88.6405 28.26 89.5105C28.61 90.1805 29.31 90.2705 29.85 90.0905C30.45 89.8905 29.88 89.3905 29.83 89.0205C29.76 88.5805 29.58 88.1505 29.48 87.7105C28.96 85.2905 29.24 82.9505 30.64 80.9105C32.36 78.4005 34.73 76.7705 37.79 76.2305C38.79 76.0505 39.76 75.7505 40.56 75.0805C41.17 74.5805 41.18 74.1705 40.51 73.7705C39.35 73.0805 38.18 72.4205 36.9 71.9305C32.76 70.3505 29.72 67.8605 29.09 63.0805C28.44 58.1205 32.54 53.2905 38.04 54.5205C40.65 55.1105 43.44 57.4105 42.96 60.5205C42.75 61.8805 42.14 63.0305 41.28 64.0805C40.48 65.0605 39.48 65.5305 38.2 65.4205C37.73 65.3805 37.24 65.4205 36.76 65.4505C36.6 65.4605 36.34 65.3705 36.29 65.6305C36.25 65.8605 36.48 65.9405 36.64 66.0105C37.37 66.3505 38.16 66.4705 38.93 66.6805C40.36 67.0705 41.48 66.7805 42.23 65.3905C42.47 64.9505 42.68 64.3805 43.3 64.2905C43.95 64.1905 44.31 63.7806 44.6 63.2406C45.2 62.1106 45.4 60.9605 44.91 59.7205C43.93 57.2405 42.73 54.9705 40.11 53.8405C39.16 53.4305 38.19 53.0605 37.25 52.6205C34.89 51.5005 32.16 52.2405 30.78 54.4605C30.04 55.6605 29.4 56.9205 28.71 58.1405C28.6 58.3405 28.47 58.6505 28.19 58.5005C27.95 58.3805 28.21 58.1405 28.25 57.9705C28.7 56.0805 29.53 54.3205 30.25 52.5205C30.49 51.9205 30.62 51.3005 30.27 50.6705C29.66 49.5705 28.94 48.5505 28.05 47.6605C27.79 47.4005 27.45 47.1405 27.15 47.3505C26.82 47.5805 27.12 47.9405 27.28 48.1805C28.58 50.0505 28.53 52.0605 27.95 54.1405C27.25 56.6505 26.6 59.1805 26.78 61.8305C27.07 66.1405 28.87 69.5105 32.8 71.5905C34.45 72.4605 36.16 73.1905 37.89 73.8505C38.13 73.9405 38.49 73.9905 38.48 74.3005C38.47 74.6905 38.07 74.6505 37.79 74.6905C35.92 74.9505 34.18 75.5905 32.57 76.5705C29.08 78.6805 26.64 81.6605 25.53 85.6005C24.66 88.6805 25.31 91.7205 26.24 94.7005C26.94 96.9305 28.14 99.0905 27.05 101.531C27.04 101.551 27.04 101.581 27.04 101.611C27.04 101.791 26.95 102.021 27.14 102.121C27.32 102.221 27.52 102.071 27.64 101.951C28.49 101.031 29.17 100.021 28.95 98.6805C28.78 97.6605 28.49 96.6405 28.51 95.6005C28.53 94.3605 28.15 93.2505 27.55 92.1905C26.63 90.5605 26.32 88.8005 26.48 86.9605C26.55 86.1705 26.61 85.3205 27.31 84.5405L27.34 84.5305ZM111.49 32.1205H111.41C111.33 30.5005 111.24 28.8805 111.16 27.2605C110.88 20.9605 110.6 14.6505 110.31 8.35055C110.28 7.59055 109.89 7.27055 109.22 7.58055C108.12 8.07055 106.95 8.27055 105.81 8.60055C104.98 8.84055 104.64 9.24055 104.71 10.1305C104.92 12.7705 105.1 15.4105 105.24 18.0605C105.43 21.6805 105.56 25.3005 105.73 28.9105C105.82 30.8805 105.94 32.8505 106.07 34.8105C106.1 35.2005 106 35.7005 106.52 35.9105C107.97 36.5105 109.42 36.7305 110.94 36.1405C111.36 35.9805 111.51 35.7705 111.49 35.3205C111.45 34.2605 111.48 33.1905 111.48 32.1305L111.49 32.1205ZM95.07 82.1305C95.29 82.4205 95.38 82.5105 95.44 82.6105C96.53 84.3905 96.74 86.3505 96.64 88.3805C96.55 90.1805 95.62 91.6305 94.7 93.0805C94.4 93.5505 94.18 94.0505 94.37 94.5905C94.56 95.1405 94.4 95.5905 94.12 96.0205C93.59 96.8405 93.36 97.7605 93.12 98.6805C93.02 99.0705 93.03 99.4705 93.17 99.8605C93.27 100.131 93.45 100.341 93.74 100.351C94.02 100.351 94.01 100.071 94.08 99.8805C94.6 98.4305 95.08 96.9705 95.85 95.6205C97.47 92.8005 98.07 89.7605 97.67 86.5505C97.44 84.6405 96.99 82.7605 95.7 81.2405C93.85 79.0505 91.77 77.1205 89.17 75.8205C88.12 75.3005 87.06 74.8305 85.93 74.4905C85.67 74.4105 85.25 74.4005 85.24 74.0705C85.23 73.7505 85.64 73.6905 85.89 73.5805C86.66 73.2205 87.46 72.9205 88.24 72.5905C90.73 71.5605 92.86 70.1205 94.26 67.7105C95.38 65.7805 95.9 63.7305 95.86 61.5405C95.81 59.0605 95.03 56.8305 93.18 55.0905C91.71 53.7105 89.96 52.7405 88.17 51.8405C87.82 51.6605 87.45 51.6605 87.09 51.8205C85.16 52.6605 83.13 53.2205 81.15 53.9205C80.01 54.3305 79.31 55.0705 79.19 56.2905C79.05 57.8405 78.63 59.3205 78.28 60.8305C78.1 61.6105 78 62.4005 78.02 63.2105C78.03 63.6105 78.05 64.0505 78.31 64.3505C79.72 65.9105 81.75 67.2805 84.16 66.0205C84.33 65.9305 84.64 65.9405 84.63 65.6705C84.62 65.4305 84.33 65.3805 84.15 65.3005C82.84 64.7405 81.63 64.0405 80.64 63.0005C80.25 62.5905 79.88 62.1706 79.76 61.6006C79.31 59.3906 80.63 56.1605 82.5 54.8905C85.26 53.0005 90.01 53.5905 92.28 56.1005C95.63 59.8105 94.83 66.2005 90.69 69.4205C88.71 70.9505 86.42 71.6605 84.07 72.2805C83.58 72.4105 83.07 72.5005 82.65 72.7905C82.16 73.1305 81.72 73.5905 81.74 74.2105C81.76 74.8605 82.39 75.0605 82.9 75.2405C83.66 75.5105 84.44 75.7205 85.21 75.9605C88.16 76.8905 90.82 78.3205 92.49 81.0305C93.93 83.3705 94.82 85.8805 93.65 88.6705C93.51 89.0005 93.12 89.4205 93.35 89.6605C93.66 89.9905 94.2 89.7805 94.64 89.6905C95.29 89.5605 95.55 89.0905 95.66 88.5105C95.82 87.6705 95.79 86.8205 95.69 85.9705C95.55 84.7605 95.04 83.6205 95.07 82.1405V82.1305ZM121.05 21.8805C120.98 17.0305 121 12.1905 120.77 7.34055C120.74 6.65055 120.5 6.46055 119.87 6.55055C117.89 6.84055 115.91 7.07055 113.94 7.42055C112.58 7.67055 111.86 8.42055 111.84 9.56055C111.76 13.6405 111.77 17.7105 112.26 21.7705C112.29 22.0605 112.37 22.2005 112.68 22.2105C113.35 22.2405 114.01 22.3005 114.68 22.3305C114.88 22.3305 115.14 22.4005 115.28 22.2005C115.43 21.9705 115.17 21.8205 115.07 21.6605C114.4 20.6005 113.73 19.5205 113.49 18.2805C113.14 16.4805 112.75 14.6705 114.19 13.0705C115.85 11.2405 117.58 12.0105 118.61 13.4505C119.17 14.2305 118.58 15.7405 117.66 16.0505C117.31 16.1705 116.85 16.3005 116.66 15.8805C116.45 15.4305 116.99 15.4305 117.22 15.2805C117.84 14.8805 118.09 14.2805 117.82 13.7605C117.28 12.7505 115.47 12.6205 114.78 13.5605C114.43 14.0305 114.22 14.5705 114.19 15.1905C114.03 18.1705 114.98 20.6005 117.3 22.6105C120.19 25.1005 120.7 28.1605 119.47 31.7405C119.05 32.9705 118.39 34.1106 118.3 35.4506C118.27 35.8706 118.33 36.2405 118.64 36.5505C119.18 37.1005 119.63 37.7305 120.04 38.3905C120.16 38.5905 120.25 38.9905 120.52 38.9205C120.81 38.8505 120.84 38.4805 120.86 38.1705C120.92 36.7105 121.04 35.2405 121.05 33.7805C121.08 29.8105 121.05 25.8405 121.05 21.8705V21.8805ZM107.08 115.431V115.381C107.99 115.381 108.89 115.391 109.8 115.381C112.28 115.341 114.75 115.291 117.23 115.221C118.07 115.191 118.2 114.961 117.91 114.171C117.69 113.561 117.23 113.181 116.7 112.851C113.59 110.891 110.97 108.371 108.53 105.651C107.85 104.891 107.69 104.841 106.96 105.661C105.72 107.061 104.28 108.251 102.8 109.381C101.2 110.601 99.5 111.681 97.84 112.821C97.27 113.211 96.67 113.581 96.27 114.161C95.71 114.961 95.83 115.241 96.76 115.361C97.18 115.421 97.61 115.421 98.04 115.431C101.05 115.431 104.06 115.431 107.07 115.431H107.08ZM11.77 23.8605C11.77 23.8605 11.69 23.8605 11.64 23.8605C11.64 25.7805 11.66 27.7005 11.64 29.6105C11.61 31.7405 11.53 33.8705 11.45 36.0005C11.43 36.5805 11.62 36.8705 12.21 36.9805C12.96 37.1205 13.66 37.1005 14.42 36.9705C15.01 36.8705 15.18 36.6005 15.22 36.1005C15.29 35.0105 15.38 33.9205 15.44 32.8305C15.64 29.1305 15.83 25.4405 16.03 21.7405C16.21 18.4205 16.38 15.0905 16.57 11.7705C16.6 11.2405 16.44 10.9405 15.94 10.7305C15.18 10.4105 14.41 10.1105 13.63 9.87055C12.58 9.56055 12.44 9.64055 12.39 10.6905C12.18 15.0805 11.98 19.4705 11.78 23.8605H11.77ZM14.99 115.811C14.99 115.811 14.99 115.881 14.99 115.921C17.89 115.921 20.8 115.921 23.7 115.911C24.11 115.911 24.71 116.041 24.81 115.431C24.92 114.791 24.84 114.151 24.09 113.831C23.02 113.381 21.95 112.911 20.88 112.441C18.62 111.461 16.47 110.311 14.91 108.321C14.53 107.841 14.13 107.381 13.73 106.921C13.44 106.591 13.23 106.541 12.96 107.011C12.56 107.731 12.1 108.411 11.62 109.081C10.37 110.841 9.14 112.611 7.19 113.711C6.73 113.971 6.34 114.351 5.94 114.701C5.68 114.931 5.42 115.241 5.57 115.611C5.71 115.941 6.09 115.801 6.36 115.801C9.24 115.811 12.11 115.801 14.99 115.801V115.811ZM114.84 23.1205C114.36 23.1205 113.88 23.1005 113.4 23.1205C113.12 23.1305 112.76 23.1205 112.72 23.5205C112.67 23.9505 113.03 23.9305 113.32 23.9905C113.71 24.0605 114.1 24.1405 114.49 24.2505C116.43 24.7805 117.78 26.3705 117.9 28.3805C118.09 31.5005 116.94 34.8305 113.43 36.2805C111.4 37.1205 109.4 37.8105 107.17 37.1205C106 36.7605 104.79 36.5305 103.64 36.1305C100.04 34.8705 96.89 32.9905 94.97 29.5105C94.75 29.1205 94.45 28.7705 94.18 28.4105C94.09 28.2805 93.99 28.1305 93.8 28.2005C93.64 28.2605 93.56 28.4005 93.55 28.5705C93.54 28.7805 93.5 29.0005 93.55 29.2105C93.95 31.2105 94.58 33.1305 95.4 34.9905C95.54 35.3005 95.79 35.4805 96.15 35.5105C97.61 35.6305 98.86 36.3405 100.04 37.0905C101.82 38.2305 103.72 39.1105 105.65 39.9305C106.66 40.3605 107.81 40.6005 108.71 39.9205C109.77 39.1205 110.92 39.1205 112.1 39.0305C113.49 38.9305 114.85 38.7205 116.1 38.0405C116.63 37.7505 117.05 37.3405 117 36.7405C116.87 35.4105 117.53 34.3405 118.04 33.2205C118.97 31.1905 119.37 29.0905 119 26.8505C118.56 24.2105 117.5 23.2405 114.85 23.1305L114.84 23.1205ZM3.38 31.0805C3.19 33.2205 4.48 34.9905 5.54 36.8605C6.28 38.1605 7.23 39.0105 8.71 39.4105C10.75 39.9605 12.8 40.1305 14.88 39.8905C15.85 39.7805 16.79 39.7905 17.72 40.0505C18.76 40.3405 19.73 40.2605 20.6 39.5905C21.63 38.7905 22.7 38.0405 23.57 37.0505C23.91 36.6605 24.25 36.3505 24.87 36.5705C25.73 36.8705 26.26 36.6405 26.76 35.9105C27.22 35.2305 26.81 34.7605 26.41 34.2805C26.22 34.0605 25.96 33.8805 25.83 33.6305C25.61 33.2205 25.34 33.3205 25.06 33.4905C24.25 33.9505 23.39 34.3405 22.66 34.9105C19.7 37.2105 16.43 38.4105 12.64 38.0705C9.7 37.8105 7.27 36.6905 5.65 34.1105C4.01 31.5006 4.1 27.3605 7.84 25.6805C8.37 25.4405 8.95 25.3105 9.49 25.1005C9.81 24.9805 10.07 24.7805 9.99 24.3905C9.89 23.9305 9.51 24.1305 9.27 24.1705C7.95 24.4005 6.71 24.8705 5.54 25.5205C5.14 25.7405 4.86 26.1005 4.61 26.4905C3.76 27.8305 3.41 29.3105 3.38 31.0705V31.0805ZM40.82 111.111C41.04 111.031 41.15 111.011 41.22 110.951C42.66 109.761 43.57 108.461 42.8 106.421C42 104.341 42.19 102.001 41.26 99.9205C40.92 99.1405 40.66 98.3305 40.35 97.5405C40.15 97.0505 40.15 96.5505 40.27 96.0505C40.39 95.5405 40.72 95.3705 41.23 95.4905C42.14 95.7005 42.49 96.5105 42.05 97.5105C41.89 97.8805 41.68 98.2405 41.75 98.6505C41.97 99.9505 42.54 101.101 43.23 102.371C43.8 100.541 44.27 98.8505 44.53 97.1205C44.69 96.0605 44.84 94.9705 44.6 93.8605C44.3 92.4805 43.37 91.7605 42.1 91.4805C40.79 91.1905 39.49 91.2705 38.55 92.4505C37.47 93.8205 37.35 95.3305 37.82 96.9705C38.5 99.3305 39.55 101.541 40.49 103.801C41.16 105.411 41.52 107.041 41.24 108.781C41.12 109.511 40.99 110.241 40.84 111.101L40.82 111.111ZM85.34 96.4005C85.34 95.7705 85.39 95.2105 85.34 94.6505C85.23 93.5505 85.26 92.4105 84.2 91.6405C82.84 90.6505 80.72 90.5605 79.3 91.4505C78.3 92.0705 77.9 92.9505 78.07 94.0905C78.4 96.1905 79.38 98.0605 80.24 99.9805C80.39 100.321 80.64 100.381 80.94 100.141C81.63 99.6005 82.06 98.0705 81.77 97.2305C81.59 96.7105 81.34 96.1905 81.49 95.6105C81.59 95.2105 81.74 94.8405 82.25 94.8405C82.77 94.8405 82.8 95.2405 82.9 95.6005C83.42 97.4205 82.84 99.0005 81.86 100.501C81.65 100.821 81.48 101.131 81.67 101.541C82.05 102.361 81.97 103.201 81.7 104.031C81.45 104.811 81.21 105.601 80.97 106.391C80.63 107.451 80.65 108.541 80.77 109.631C80.81 110.001 81.03 110.431 81.44 110.421C81.78 110.421 81.67 109.951 81.75 109.691C81.8 109.511 81.83 109.321 81.84 109.141C81.93 107.171 82.53 105.341 83.32 103.541C84.32 101.251 85.72 99.0405 85.35 96.4305L85.34 96.4005ZM41.25 85.0305C41.14 85.0405 41.03 85.0305 40.93 85.0605C39.03 85.7705 37.31 86.8105 35.57 87.8305C35.14 88.0805 35.2 88.5505 35.44 88.9705C35.77 89.5505 36.16 90.0905 36.6 90.5905C37.1 91.1705 37.65 91.4805 38.39 90.9605C38.62 90.8005 38.93 90.7405 39.2 90.6405C40.99 90.0005 42.72 90.4305 44.42 91.0005C44.7 91.0905 44.97 91.2705 45.25 91.0705C46.2 90.4105 47.07 89.6805 47.45 88.5205C47.77 87.5505 47.56 87.1105 46.58 86.8905C45.32 86.6005 44.02 86.4705 42.91 85.6805C42.42 85.3305 41.88 85.0005 41.23 85.0305H41.25ZM77.61 86.6905C77.05 86.6905 76.72 86.8505 76.47 87.2205C75.94 88.0005 76.01 88.5105 76.82 89.5905C77.54 90.5505 77.88 90.6805 78.81 90.3805C79.26 90.2305 79.73 90.1305 80.17 89.9405C81.77 89.2405 83.19 89.4905 84.58 90.5205C86.02 91.5905 86.05 91.5405 87.56 90.5205C87.6 90.4905 87.65 90.4605 87.7 90.4305C88.27 90.1005 88.67 89.6405 88.55 88.9505C88.42 88.2405 87.91 87.8305 87.23 87.7305C86.19 87.5705 85.48 86.9905 84.8 86.2105C83.74 84.9905 82.04 84.1305 80.19 85.7905C79.43 86.4705 78.63 87.1605 77.6 86.6905H77.61ZM41.56 7.15055C41.25 7.83055 40.76 7.96055 40.33 8.11055C38.99 8.57055 38.79 9.20055 39.43 10.7605C39.54 11.0405 39.71 11.3405 40.01 11.3605C40.34 11.3905 40.5 11.0605 40.62 10.8005C40.93 10.1305 41.38 9.59055 41.94 9.12055C44.17 7.24055 47.64 6.99055 50.16 8.52055C50.91 8.97055 51.76 9.25055 52.45 9.82055C52.62 9.96055 53 10.0305 53.19 9.94055C53.5 9.79055 53.24 9.47055 53.23 9.22055C53.21 8.90055 52.97 8.70055 52.75 8.52055C49.94 6.12055 46.64 5.20055 43.04 5.56055C40.24 5.84055 37.46 6.41055 34.68 6.88055C34.13 6.97055 33.54 6.96055 32.98 7.30055C33.9 7.92055 34.94 8.04055 35.88 8.43055C36.9 8.86055 37.83 8.78055 38.68 8.00055C39.46 7.28055 40.45 7.27055 41.57 7.16055L41.56 7.15055ZM51.56 95.0905C51.52 94.9305 51.51 94.7305 51.42 94.5705C50.71 93.2905 50.07 92.0105 49.74 90.5605C49.57 89.7905 48.72 89.6005 48 90.0005C47.46 90.3005 47.02 90.7205 46.57 91.1405C45.88 91.7705 45.54 92.5105 45.67 93.4805C45.83 94.6905 45.91 95.9105 46.03 97.1305C46.1 97.8405 46.51 98.3505 47.09 98.7305C47.61 99.0605 48.19 99.2405 48.77 99.4505C49.4 99.6805 49.81 99.4505 49.97 98.8205C50.2 97.9405 50.62 97.1505 51.1 96.3805C51.34 96.0005 51.5 95.5705 51.55 95.0905H51.56ZM53.17 114.941C53.12 116.331 54.52 117.061 55.76 116.291C56.56 115.791 57.18 115.681 57.98 116.231C58.54 116.611 59.26 116.531 59.78 116.121C60.27 115.731 60.41 115.021 60.11 114.521C59.54 113.551 59.83 112.751 60.29 111.901C60.45 111.601 60.6 111.271 60.68 110.941C60.84 110.301 60.45 109.901 60.01 109.521C59.68 109.241 59.35 109.041 58.94 109.281C57.78 109.961 56.48 110.261 55.26 110.781C54.74 111.001 54.25 111.251 54 111.811C53.55 112.841 53.32 113.931 53.17 114.931V114.941ZM72.76 23.7105C72.8 21.8605 71.27 19.5305 69.88 18.9605C68.92 18.5605 67.36 18.9305 66.73 19.7105C66.14 20.4405 66.21 21.1805 66.99 22.3305C67.52 23.1005 68.25 23.7005 68.9 24.3605C70.05 25.5105 70.64 26.7405 70.08 28.4405C69.71 29.5605 69.37 30.7205 69.27 31.9205C69.25 32.1805 69.11 32.5805 69.52 32.6505C69.86 32.7205 69.93 32.3405 70.01 32.1205C70.5 30.8305 70.99 29.5405 71.44 28.2405C72 26.6405 72.65 25.0605 72.76 23.7005V23.7105ZM49.51 23.7405C49.86 26.1005 50.43 28.4105 51.18 30.6705C51.22 30.7905 51.32 30.9005 51.41 30.9905C51.56 31.1305 51.71 31.3405 51.95 31.2505C52.16 31.1705 52.11 30.9305 52.12 30.7605C52.18 29.6405 52 28.5305 51.88 27.4205C51.68 25.5705 52.61 23.9505 54.3 23.3405C55.78 22.8105 56.28 20.7205 55.22 19.5705C53.99 18.2205 51.12 18.7805 50.25 20.5505C49.76 21.5505 49.69 22.6505 49.51 23.7505V23.7405ZM65.66 115.901C66.6 115.901 67.34 115.901 68.09 115.901C68.59 115.901 68.93 115.731 68.9 115.171C68.84 113.961 69.02 112.791 69.32 111.611C69.64 110.351 68.85 109.711 67.54 110.061C66.56 110.321 65.65 110.211 64.75 109.851C63.89 109.511 63.05 109.821 62.92 110.731C62.71 112.191 62.62 113.681 62.74 115.171C62.78 115.631 63.02 115.801 63.47 115.811C64.27 115.831 65.06 115.881 65.67 115.911L65.66 115.901ZM72.94 20.5005C72.86 18.6605 72.26 17.2405 71.06 16.0805C70.26 15.3105 69.38 15.0305 68.31 15.5705C67.72 15.8705 67.09 16.0905 66.45 16.2905C65.33 16.6505 65.3 16.6205 64.66 15.6105C64.46 15.2905 64.17 15.0805 63.8 15.1805C63.48 15.2605 63.32 15.5105 63.31 15.8905C63.31 16.2505 63.2 16.6305 63.08 16.9705C62.65 18.1505 62.71 19.3105 63.08 20.4905C63.39 21.4505 63.65 22.4305 63.95 23.3905C64.41 24.9105 64.81 25.1505 66.38 24.9405C66.85 24.8805 66.93 24.6505 66.73 24.3005C66.48 23.8605 66.17 23.4605 65.91 23.0305C65.16 21.8405 64.62 20.5505 65.34 19.2105C66.4 17.2405 69.68 16.5205 71.14 18.5605C71.61 19.2105 72.06 19.9205 72.94 20.5105V20.5005ZM77.14 95.0505C77.4 92.9905 76.61 91.0905 75.29 89.3605C75.13 89.1505 75.02 88.8505 74.69 88.9005C74.35 88.9505 74.21 89.2505 74.17 89.5405C73.97 91.0005 73.24 92.1705 72.31 93.2605C71.91 93.7205 71.61 94.3405 71.87 94.9605C72.43 96.2805 73.08 97.5605 73.7 98.8605C73.95 99.3905 74.28 99.3905 74.69 98.9905C75.19 98.5105 75.7 98.0405 76.23 97.6005C76.99 96.9705 77.37 96.2005 77.14 95.0505ZM10.32 28.3805C10.32 28.3805 10.33 28.3805 10.34 28.3805C10.32 27.9305 10.29 27.4805 10.27 27.0205C10.25 26.5805 10.08 26.3905 9.59 26.3605C8.05 26.2405 6.46 27.1105 6.02 28.6005C5 32.0505 5.63 33.8105 8.32 35.6405C9.48 36.4305 9.87 36.2505 10.06 34.9405C10.09 34.7005 10.11 34.4605 10.13 34.2305C10.24 32.9005 10.46 31.5405 8.87 30.8405C8.65 30.7405 8.54 30.4605 8.64 30.2205C8.74 29.9705 9.01 30.0705 9.21 30.0405C10.31 29.8905 10.31 29.8905 10.32 28.8005C10.32 28.6705 10.32 28.5305 10.32 28.4005V28.3805ZM112.84 32.9405C112.85 33.0505 112.85 33.1505 112.87 33.2605C112.98 33.9205 112.65 34.9105 113.29 35.1505C114.04 35.4305 114.76 34.7205 115.36 34.1905C117.03 32.7305 117.7 29.4005 116.79 27.1505C116.12 25.4905 115.14 24.8905 113.34 24.9805C112.88 25.0005 112.65 25.1605 112.64 25.6405C112.64 26.2505 112.58 26.8605 112.59 27.4705C112.61 29.1905 112.68 29.2305 114.36 28.7905C114.65 28.7105 115.06 28.4305 115.23 28.7505C115.41 29.1005 115.08 29.4405 114.76 29.6605C114.54 29.8105 114.33 29.9805 114.09 30.1005C112.87 30.6705 112.61 31.6605 112.83 32.8705C112.83 32.9005 112.83 32.9206 112.83 32.9506L112.84 32.9405ZM66.04 82.3905C65.95 81.6905 66.04 81.2605 66.1 80.8105C66.18 80.3005 66.47 79.7405 66.1 79.2705C65.5 78.4905 64.84 77.7705 64.18 77.0305C64.04 76.8705 63.84 76.7305 63.62 76.8105C63.37 76.9005 63.41 77.1705 63.42 77.3605C63.43 78.5605 63.28 79.7405 62.99 80.9105C62.85 81.4405 62.82 82.0205 62.83 82.5705C62.85 83.3005 63.06 84.0305 63.65 84.4905C64.47 85.1205 67.04 84.7505 67.75 83.9805C68.81 82.8305 69.79 81.6005 71.21 80.8205C71.54 80.6405 72.19 80.4405 71.99 80.0205C71.81 79.6305 71.18 79.8005 70.74 79.9105C70.71 79.9105 70.69 79.9205 70.66 79.9305C69.03 80.4405 67.31 80.7905 66.04 82.3905ZM56.01 25.1105C57.98 25.1105 59.03 24.1405 58.77 22.4405C58.63 21.5405 58.8 20.8005 59.17 20.0105C59.77 18.7105 59.34 17.7805 57.97 17.2505C57.75 17.1605 57.52 17.0705 57.29 17.0405C56.11 16.8705 55.03 16.4305 54.04 15.8105C53.17 15.2705 52.31 15.2605 51.5 15.8005C50.55 16.4205 50.11 17.3805 50.02 18.5005C49.99 18.8605 50.15 18.9305 50.45 18.7505C50.86 18.5105 51.26 18.2205 51.7 18.0505C53.15 17.4705 54.57 17.3205 55.89 18.4405C57.02 19.4105 57.26 20.6005 56.88 21.9705C56.66 22.7605 56.11 23.3505 55.57 23.9405C55.31 24.2205 54.86 24.5605 55.01 24.9305C55.18 25.3505 55.72 25.0105 56.02 25.1205L56.01 25.1105ZM64.6 8.27055C64.2 8.21055 64.05 8.46055 63.94 8.75055C63.47 10.0505 63.01 11.3505 62.55 12.6505C62.35 13.2105 62.57 13.5705 63.13 13.7405C64.02 14.0105 64.91 14.2805 65.79 14.5705C66.66 14.8605 67.4 14.6005 68.11 14.1005C68.4 13.9005 68.51 13.6205 68.34 13.3505C67.83 12.5105 68.2 12.0105 68.89 11.4905C69.44 11.0805 69.44 10.4605 69.24 9.82055C69.06 9.24055 68.63 9.15055 68.12 9.14055C67.29 9.12055 66.49 8.98055 65.73 8.62055C65.38 8.45055 64.98 8.39055 64.6 8.28055V8.27055ZM56.93 81.6005C55.88 80.3705 54.49 80.5205 53.19 80.3705C52.79 80.3205 52.4 80.2805 52 80.2305C51.59 80.1805 51.02 79.9505 50.89 80.4605C50.77 80.9205 51.37 81.1005 51.74 81.2505C53.04 81.7805 54.07 82.6005 54.83 83.7905C55.07 84.1705 55.44 84.4605 55.72 84.8105C56.3 85.5205 57.03 85.4005 57.76 85.1605C58.59 84.8905 59.45 84.5105 59.55 83.5505C59.75 81.7405 59.41 79.9505 59.08 78.1705C59.04 77.9805 58.96 77.7305 58.7 77.7105C58.5 77.7005 58.43 77.8805 58.31 78.0305C57.47 79.0505 56.7 80.0805 56.92 81.6005H56.93ZM61.26 13.2105C61.24 12.9305 61.22 12.7405 61.08 12.6005C60.37 11.8605 59.92 10.9805 59.65 9.98055C59.54 9.56055 59.29 9.03055 58.65 9.15055C57.4 9.40055 56.15 9.66055 54.9 9.94055C54.25 10.0905 53.97 10.5305 54.18 11.1905C54.56 12.3805 54.92 13.5705 55.35 14.7405C55.63 15.5005 56.04 15.6305 56.8 15.2805C57.57 14.9205 58.36 14.5805 59.2 14.4305C59.76 14.3305 60.28 14.1505 60.77 13.8705C61.05 13.7105 61.31 13.5005 61.25 13.2105H61.26ZM86.3 95.3405C86.33 95.9205 86.34 96.5305 86.4 97.1405C86.46 97.8105 86.6 98.4405 87.1 98.9605C87.48 99.3505 87.81 99.5205 88.34 99.2005C89.12 98.7305 89.88 98.2405 90.49 97.5705C90.94 97.0705 91.37 96.4305 91.2 95.8005C90.82 94.3405 90.19 92.9605 89.36 91.6805C89.17 91.3905 88.91 91.2205 88.55 91.3405C87.99 91.5205 87.47 91.7405 87.03 92.1705C86.08 93.0805 86.31 94.2105 86.3 95.3505V95.3405ZM54.56 79.1505C54.81 79.1505 55.07 79.1205 55.21 78.9105C55.36 78.6805 55.17 78.4505 55.05 78.2605C54.74 77.7705 54.24 77.5005 53.79 77.1805C49.74 74.2905 45.02 72.9805 40.35 71.5405C40.09 71.4605 39.74 71.3205 39.59 71.7005C39.46 72.0305 39.76 72.2005 39.96 72.4105C40.75 73.2405 41.87 73.4605 42.8 74.0305C43.14 74.2405 43.41 74.5305 43.84 74.6805C45.54 75.3005 47.34 75.5705 49.01 76.2505C49.96 76.6405 50.85 77.0905 51.65 77.8005C52.44 78.5105 53.4 79.0905 54.54 79.1405L54.56 79.1505ZM52.18 85.0905C52.33 85.5205 52.65 85.7705 52.92 86.0505C54.44 87.6505 55.6 89.4805 56.35 91.5505C56.74 92.6205 57.12 93.7005 57.46 94.7805C57.61 95.2605 57.86 95.4705 58.37 95.4705C60.94 95.4605 60.56 95.6205 60.56 93.3205C60.56 92.6805 60.59 91.9805 60.12 91.5105C59.43 90.8205 58.74 90.0905 57.78 89.7505C57.14 89.5305 56.72 89.0805 56.37 88.5205C55.66 87.3905 54.89 86.3205 53.92 85.3905C53.41 84.9105 52.85 84.7605 52.18 85.0705V85.0905ZM69.02 78.9805C69.29 79.0405 69.56 78.9005 69.82 78.7805C70.68 78.3905 71.37 77.7605 72.14 77.2405C73.13 76.5605 74.13 75.9205 75.24 75.4305C76.87 74.7105 78.61 74.3205 80.26 73.6705C80.63 73.5205 81.01 73.3805 81.25 73.0305C81.37 72.8505 81.47 72.6505 81.37 72.4305C81.27 72.2105 81.04 72.3105 80.87 72.3105C80.3 72.2905 79.77 72.4605 79.23 72.6005C76.42 73.3305 73.64 74.1105 71.15 75.6905C70.11 76.3405 69.25 77.1405 68.59 78.1605C68.2 78.7605 68.34 78.9905 69.02 78.9905V78.9805ZM63.94 103.631C63.73 103.631 63.51 103.631 63.3 103.631C62.12 103.651 62.11 103.671 61.96 104.811C61.94 104.971 61.93 105.131 61.9 105.281C61.78 106.021 62.06 106.471 62.8 106.711C63.98 107.101 65.09 107.641 66.16 108.271C66.89 108.711 67.68 109.061 68.57 109.021C68.87 109.011 69.23 109.091 69.34 108.651C69.44 108.241 69.17 108.071 68.91 107.891C68.76 107.781 68.61 107.661 68.45 107.581C67.09 106.851 66.21 105.721 65.75 104.281C65.59 103.771 65.31 103.601 64.82 103.631C64.53 103.641 64.24 103.631 63.94 103.631ZM60.73 104.841C60.73 103.181 60.91 103.321 59.36 103.441C59.17 103.451 58.99 103.481 58.8 103.491C57.93 103.531 57.43 103.921 57.18 104.811C56.71 106.481 55.74 107.811 54.12 108.581C53.68 108.791 53.38 109.091 53.6 109.571C53.83 110.081 54.31 109.811 54.64 109.711C55.66 109.401 56.59 108.891 57.44 108.241C58.05 107.781 58.66 107.291 59.33 106.961C60.31 106.481 60.96 105.881 60.72 104.841H60.73ZM39.16 79.3205C39.97 78.9105 40.69 78.4505 41.5 78.1905C44.15 77.3305 46.7 77.8405 49.23 78.7005C49.68 78.8505 50.15 78.9805 50.61 79.0605C50.85 79.1005 51.17 79.0605 51.26 78.7405C51.35 78.4305 51.14 78.2405 50.92 78.0805C50.79 77.9905 50.64 77.9305 50.49 77.8705C48.8 77.1705 47.06 76.6205 45.31 76.1205C44.13 75.7805 43 75.9505 41.89 76.4105C41.2 76.7005 40.56 77.0705 39.92 77.4505C39.26 77.8505 38.95 78.4105 39.16 79.3105V79.3205ZM61.39 40.5405C61.39 40.5405 61.39 40.6205 61.39 40.6605C58.97 40.6605 56.55 40.6605 54.12 40.6605C53.8 40.6605 53.48 40.6905 53.17 40.7405C52.99 40.7705 52.69 40.7105 52.7 41.0405C52.7 41.2705 52.86 41.4505 53.06 41.5305C53.49 41.7005 53.94 41.7205 54.4 41.7205C56.69 41.7205 58.98 41.7605 61.27 41.7205C63.85 41.6805 66.43 41.6805 69 41.4005C69.36 41.3605 69.73 41.2905 69.67 40.8005C69.61 40.3505 69.22 40.5305 68.98 40.5305C66.45 40.5105 63.92 40.5305 61.4 40.5305L61.39 40.5405ZM61.28 100.421C60.39 100.401 58.88 100.481 57.37 100.621C56.97 100.661 56.36 100.571 56.42 101.291C56.47 101.871 56.75 102.321 57.41 102.321C60.1 102.321 62.79 102.371 65.47 102.151C66.09 102.101 66.5 101.741 66.74 101.201C66.95 100.721 66.89 100.401 66.23 100.411C64.79 100.441 63.35 100.411 61.28 100.411V100.421ZM61.3 27.0705C61.3 27.0705 61.3 27.0405 61.3 27.0305C61.57 27.0305 61.83 27.0305 62.1 27.0305C64.12 27.0305 66.15 27.0305 68.17 26.8605C68.43 26.8405 68.73 26.8405 68.81 26.5105C68.87 26.2605 68.77 26.0205 68.59 25.8605C68.35 25.6505 68.03 25.7305 67.75 25.7405C66.63 25.7805 65.51 25.8405 64.4 25.8705C61.23 25.9405 58.06 25.9505 54.9 26.1705C54.5 26.2005 53.9 26.1405 53.94 26.7405C53.97 27.2005 54.51 27.0805 54.85 27.0805C57 27.1005 59.16 27.0805 61.31 27.0805L61.3 27.0705ZM61.73 38.2605C61.73 38.2605 61.73 38.3005 61.73 38.3105C60.16 38.3105 58.59 38.3305 57.01 38.3005C56.54 38.2905 56.43 38.4505 56.4 38.8805C56.34 39.5605 56.75 39.6005 57.24 39.6105C60.33 39.6905 63.42 39.7205 66.51 39.5005C66.87 39.4705 67.28 39.5805 67.26 38.9705C67.24 38.4005 66.95 38.2505 66.44 38.2605C64.87 38.2805 63.3 38.2605 61.72 38.2605H61.73ZM63.27 51.1805C63.22 50.3305 63.14 49.4805 63.11 48.6305C63.06 46.9805 63.06 46.9905 61.44 47.0105C60.72 47.0105 60.43 47.3205 60.44 48.0105C60.45 48.9705 60.44 49.9205 60.45 50.8805C60.48 52.3105 60.5 52.3105 61.9 52.4405C62.8467 52.5272 63.3033 52.1072 63.27 51.1805ZM84.27 79.1805C84.24 77.8505 83.08 76.3905 81.64 75.8305C79.4 74.9505 77.34 75.8605 75.26 76.5005C74.92 76.6005 74.94 76.9805 74.98 77.2605C75.03 77.6005 75.35 77.5405 75.56 77.5005C76.24 77.4005 76.92 77.2605 77.6 77.1205C79.34 76.7705 81 76.8105 82.39 78.1305C82.83 78.5505 83.22 79.0105 83.65 79.4305C83.77 79.5505 83.89 79.7805 84.09 79.7105C84.34 79.6205 84.26 79.3505 84.28 79.1705L84.27 79.1805ZM78.82 110.181C78.9 111.471 79.18 112.891 80.23 114.031C80.35 114.161 80.48 114.361 80.69 114.261C80.89 114.161 80.85 113.941 80.82 113.761C80.72 113.291 80.64 112.821 80.48 112.371C80.06 111.151 79.87 109.911 79.99 108.611C80.16 106.831 80.5 105.091 80.92 103.361C81.05 102.821 81.16 102.121 80.6 101.981C79.94 101.811 79.96 102.631 79.85 103.051C79.23 105.311 78.95 107.641 78.82 110.171V110.181ZM59.87 78.2905C60.11 80.2505 60.37 81.9205 60.73 83.5805C60.81 83.9705 60.82 84.4905 61.43 84.4705C62.09 84.4405 61.94 83.8305 61.96 83.5005C62 82.0905 62.28 80.7105 62.49 79.3305C62.74 77.7005 62.33 77.3205 60.73 77.5805C60.15 77.6805 59.76 77.8905 59.88 78.2905H59.87ZM61.17 31.8505C61.09 31.2205 60.99 30.3305 60.87 29.4405C60.68 28.0305 60.57 27.9405 59.17 27.9805C58.27 28.0105 58.2 28.1105 58.41 28.9705C58.85 30.7405 59.49 32.4605 59.83 34.2605C59.88 34.5005 59.81 34.8505 60.18 34.8905C60.58 34.9405 60.73 34.6205 60.83 34.3105C61.07 33.6005 61.12 32.8605 61.17 31.8405V31.8505ZM61.76 98.3205C61.76 98.4405 61.76 98.5505 61.76 98.6705C60.01 98.6705 58.25 98.6705 56.5 98.6705C56.2 98.6705 55.81 98.5705 55.81 99.0805C55.81 99.5505 56.18 99.5505 56.49 99.5605C60 99.7105 63.51 99.6105 67.01 99.3405C67.39 99.3105 67.8 99.2605 67.74 98.7205C67.69 98.2105 67.27 98.3105 66.94 98.3105C65.21 98.3105 63.48 98.3105 61.76 98.3105V98.3205ZM79.31 100.841C78.94 99.9805 78.56 99.0805 78.14 98.2005C78.04 98.0005 77.78 97.9605 77.58 98.1105C76.9 98.6105 76.12 98.9905 75.67 99.7605C75.41 100.211 75.33 100.661 75.78 101.061C76.57 101.771 77.44 102.391 78.12 103.221C78.23 103.361 78.46 103.531 78.56 103.261C78.83 102.491 79.05 101.701 79.32 100.841H79.31ZM94.6 47.5805C93.29 48.4405 92.81 49.6505 92.1 50.6705C91.86 51.0105 91.76 51.4805 91.96 51.8905C92.52 53.0205 93.32 53.9405 94.51 54.6705C94.51 52.2905 94.32 50.0405 94.59 47.5805H94.6ZM60.46 46.0205C60.46 46.0205 60.46 46.0505 60.46 46.0705C61.05 46.0705 61.63 46.0705 62.22 46.0705C63.55 46.0405 64.89 46.0705 66.2 45.8005C66.4 45.7605 66.7 45.7305 66.7 45.4905C66.7 45.1905 66.4 45.2605 66.21 45.2505C62.75 45.0505 59.29 45.0905 55.83 45.1005C55.65 45.1005 55.34 45.0005 55.3 45.3005C55.26 45.5805 55.42 45.8205 55.69 45.9405C55.83 46.0005 56 46.0205 56.16 46.0205C57.6 46.0205 59.03 46.0205 60.47 46.0205H60.46ZM62.27 31.4205C62.27 31.4205 62.32 31.4205 62.35 31.4205C62.35 32.3005 62.33 33.1705 62.36 34.0505C62.37 34.3605 62.28 34.8205 62.77 34.8805C63.25 34.9505 63.32 34.5005 63.38 34.1905C63.72 32.4805 64.05 30.7605 64.34 29.0405C64.41 28.6505 64.51 28.1705 63.8 28.1405C62.63 28.0905 62.27 28.2405 62.26 28.9605C62.25 29.7805 62.26 30.6105 62.26 31.4305L62.27 31.4205ZM67.78 47.2405C66.7 47.0605 65.75 47.0105 64.8 47.0205C64.54 47.0205 64.18 46.9805 64.18 47.3405C64.16 48.6405 64.11 49.9405 64.43 51.2105C64.51 51.5405 64.73 51.7605 65.02 51.3405C65.93 50.0105 66.82 48.6705 67.79 47.2305L67.78 47.2405ZM61.04 16.7205C61.06 19.2405 61.62 21.6805 62.01 24.1405C62.07 24.5005 62.29 24.6405 62.62 24.6205C63.05 24.6005 62.93 24.2605 62.93 24.0205C62.93 23.7805 62.89 23.5405 62.84 23.3105C62.41 21.3105 62.03 19.3005 62.15 17.2305C62.18 16.6705 62.26 16.1205 62.28 15.5605C62.28 15.3005 62.38 14.9005 61.94 14.9005C61.59 14.9005 61.23 15.0105 61.17 15.4405C61.11 15.8605 61.09 16.2805 61.05 16.7105L61.04 16.7205ZM59.27 49.6005C59.27 47.1605 58.86 46.9205 56.6 47.0805C55.86 47.1305 55.76 47.3505 56.1 47.9805C56.62 48.9305 57.2 49.8505 57.94 50.6605C58.23 50.9805 58.54 51.5405 59 51.3405C59.37 51.1805 59.24 50.5805 59.27 50.1605C59.28 49.9805 59.27 49.7905 59.27 49.6005ZM61.72 97.7405C62.84 97.7405 63.96 97.7705 65.07 97.7305C65.5 97.7205 66.18 97.8805 66.13 97.1305C66.09 96.3405 65.41 96.6905 65 96.6905C62.5 96.6705 60.01 96.9705 57.51 96.7705C57.24 96.7505 56.95 96.7305 56.97 97.1405C56.98 97.5305 57.18 97.6805 57.57 97.7205C58.95 97.8505 60.33 97.7705 61.72 97.7405ZM66.06 85.7705C62.79 86.2505 59.63 85.7705 56.44 86.2005C56.71 86.7305 57.08 86.7905 57.45 86.8205C59.65 87.0105 61.86 87.0705 64.07 87.0805C64.92 87.0805 65.54 86.7505 66.06 85.7805V85.7705ZM44.71 101.391C44.73 101.631 44.79 101.951 44.79 102.261C44.79 102.901 45.07 103.041 45.62 102.751C46.39 102.341 47.13 101.861 47.81 101.311C48.23 100.971 48.31 100.561 47.72 100.261C47.39 100.091 47.08 99.8805 46.75 99.7105C45.27 98.9505 44.72 99.2905 44.71 101.001C44.71 101.111 44.71 101.211 44.71 101.401V101.391ZM61.83 37.3705C63.02 37.3205 64.43 37.4505 65.84 37.2705C66.11 37.2405 66.48 37.3605 66.47 36.8805C66.47 36.3905 66.11 36.4405 65.79 36.4405C63.47 36.4505 61.15 36.4605 58.83 36.4905C58.46 36.4905 58.09 36.5705 57.73 36.6405C57.49 36.6905 57.39 36.8605 57.39 37.1105C57.39 37.4805 57.68 37.3505 57.85 37.3505C59.1 37.3605 60.35 37.3505 61.83 37.3505V37.3705ZM90.95 91.7105C91.04 92.9005 91.55 93.9405 92.19 94.9205C92.33 95.1405 92.47 95.1205 92.62 94.9205C93.28 93.9905 93.79 92.9805 94.11 91.8805C94.16 91.7005 94.16 91.4805 93.9 91.4505C93.14 91.3705 92.42 91.0305 91.63 91.1205C91.27 91.1605 90.92 91.2205 90.95 91.7105ZM35.94 10.9005C34.19 12.3805 33.32 17.5605 34.54 18.9305C35.02 16.2605 35.86 13.7605 35.94 10.9005ZM97.03 27.9005C96.94 26.8505 96.94 25.8105 96.71 24.7905C96.63 24.4605 96.56 24.0505 96.16 23.9905C95.77 23.9305 95.66 24.3105 95.5 24.5805C94.67 26.0205 94.73 27.0505 95.77 28.3005C96.07 28.6605 96.38 29.2905 96.84 29.1305C97.28 28.9705 96.91 28.3105 97.03 27.9005ZM29.91 97.9305C29.89 98.5605 30.12 99.0005 30.47 99.3905C31.34 100.361 32.5 100.831 33.72 101.151C33.93 101.211 34.25 101.371 34.38 101.111C34.52 100.831 34.25 100.621 34.04 100.461C33.74 100.241 33.42 100.051 33.12 99.8305C32.33 99.2605 31.7 98.5605 31.29 97.6605C31.1 97.2405 31.13 96.4505 30.46 96.5805C29.74 96.7105 30.09 97.5205 29.92 97.9105L29.91 97.9305ZM84.35 10.7705C84.37 10.8405 84.41 11.0505 84.49 11.2505C85.08 12.6505 85.91 13.9205 86.75 15.1705C87.05 15.6205 87.48 15.3705 87.61 15.0605C87.82 14.5505 88.11 14.0005 87.61 13.4305C86.93 12.6805 86.34 11.8605 85.68 11.0905C85.42 10.7905 85.09 10.5505 84.76 10.3305C84.49 10.1505 84.3 10.2605 84.36 10.7605L84.35 10.7705ZM22.34 33.7505C23.2 33.4605 23.88 33.0405 24.45 32.4305C24.59 32.2805 24.76 32.1305 24.61 31.8805C24.11 31.0105 23.57 30.1705 22.63 29.4605C22.49 30.9405 22.33 32.3005 22.34 33.7605V33.7505ZM30.35 95.6905C30.84 94.5505 31.26 93.4705 31.83 92.4705C31.94 92.2805 31.9 92.0605 31.71 91.9905C31.02 91.7705 30.24 91.6205 29.6 91.9205C29.08 92.1605 29.57 92.7705 29.57 93.2105C29.57 93.4205 29.65 93.6205 29.69 93.8305C29.81 94.4405 29.79 95.0905 30.35 95.6805V95.6905ZM65.09 7.16055C65.52 7.09055 66.17 7.37055 66.28 6.54055C66.42 5.48055 66.06 4.56055 65.52 3.68055C65.44 3.54055 65.3 3.40055 65.14 3.44055C64.97 3.47055 64.93 3.65055 64.91 3.82055C64.81 4.64055 64.51 5.42055 64.3 6.21055C64.06 7.15055 64.07 7.16055 65.09 7.16055ZM36.44 49.6805C36.44 50.5505 37.73 51.8705 38.79 52.1605C39.3 52.3005 39.42 52.1605 39.28 51.6805C39.01 50.6705 38.34 49.9205 37.68 49.1705C37.48 48.9405 37.29 48.6305 36.9 48.7705C36.46 48.9305 36.49 49.3405 36.44 49.6705V49.6805ZM61.01 88.6605C61.01 88.6605 61.01 88.6605 61.01 88.6505C61.78 88.6505 62.55 88.6605 63.32 88.6505C63.57 88.6505 63.9 88.6505 63.9 88.2705C63.9 87.9505 63.66 87.8205 63.37 87.7905C61.69 87.6605 60.02 87.7905 58.36 88.0005C58.17 88.0205 57.88 88.0605 57.89 88.3405C57.89 88.6105 58.2 88.6505 58.38 88.6505C59.26 88.6805 60.13 88.6605 61.01 88.6605ZM86.23 100.231C86.15 100.251 86.01 100.261 85.9 100.321C85.4 100.551 84.61 102.301 84.73 102.831C84.81 103.171 84.99 103.001 85.14 102.941C85.83 102.651 86.43 102.211 86.93 101.661C87.16 101.411 87.46 101.181 87.26 100.771C87.06 100.351 86.69 100.251 86.23 100.231ZM59.97 23.2305C59.96 23.5205 59.93 23.8205 59.93 24.1105C59.93 24.3005 59.83 24.5705 60.15 24.6205C60.39 24.6505 60.62 24.6505 60.77 24.3805C60.9 24.1405 61 23.9105 61.05 23.6405C61.24 22.7605 61.05 21.8905 61 21.0205C60.99 20.8005 60.98 20.4805 60.65 20.4905C60.35 20.5005 60.33 20.7905 60.27 21.0205C60.1 21.7505 60 22.4905 59.97 23.2305ZM70.33 83.9705C71.02 83.8005 71.7 83.6005 72.4 83.4605C73.05 83.3305 72.98 82.9705 72.64 82.6505C72.27 82.3105 71.88 81.8705 71.26 82.1105C70.6 82.3705 70.02 82.7105 69.84 83.4705C69.73 83.9305 69.98 83.9605 70.33 83.9705ZM62.59 89.5405C62.06 89.5805 61.45 89.6305 60.85 89.6805C60.65 89.7005 60.39 89.6605 60.36 89.9605C60.34 90.1605 60.46 90.3105 60.63 90.4105C61.44 90.8305 62.29 90.9505 63.16 90.6605C63.58 90.5205 63.84 90.1705 63.74 89.7305C63.64 89.3405 63.24 89.6105 62.99 89.5505C62.89 89.5305 62.78 89.5505 62.59 89.5505V89.5405ZM64.91 43.9506C64.76 44.4406 65.13 44.5705 65.57 44.5805C66.26 44.6005 66.58 44.0205 66.65 42.8505C66.68 42.3305 66.44 42.3005 66.05 42.3005C65.06 42.3005 64.91 42.5106 64.9 43.9506H64.91ZM54.89 44.3005C55.29 44.3305 55.71 44.2505 55.6 43.6305C55.51 43.1005 55.77 42.2705 54.78 42.3405C54.34 42.3705 53.67 42.1705 53.62 42.9405C53.58 43.6205 54.2 44.2805 54.89 44.2905V44.3005ZM91.58 99.4105C91.56 99.0305 91.62 98.7005 91.38 98.5605C91.13 98.4105 90.89 98.6705 90.67 98.8005C90.47 98.9205 90.26 99.0705 90.12 99.2605C89.78 99.6905 88.9 100.061 89.2 100.551C89.45 100.951 90.25 100.421 90.79 100.251C91.24 100.111 91.64 99.8905 91.58 99.4205V99.4105ZM61.33 43.5105C61.15 43.0905 61.5 42.1605 60.49 42.2105C59.61 42.2505 59.88 43.0405 59.79 43.5705C59.67 44.2305 60.14 44.2405 60.58 44.2105C60.95 44.1905 61.46 44.2905 61.34 43.5205L61.33 43.5105ZM56.31 5.94055C56.39 6.43055 56.56 6.90055 56.92 7.28055C57.18 7.55055 57.49 7.55055 57.8 7.41055C58.17 7.25055 58.08 6.92055 57.96 6.66055C57.79 6.28055 57.58 5.91055 57.35 5.56055C57.2 5.33055 57.05 4.96055 56.71 5.11055C56.42 5.24055 56.34 5.60055 56.3 5.94055H56.31ZM86 44.7805C86.01 45.2905 86.06 45.9105 86.69 46.2505C87.06 46.4505 87.35 46.4205 87.31 45.8605C87.27 45.3505 87.17 44.8605 86.99 44.4005C86.86 44.0705 86.94 43.4305 86.44 43.5205C86.01 43.5905 86.02 44.1805 86.01 44.6005C86.01 44.6305 86.01 44.6505 86.01 44.7905L86 44.7805ZM68.94 42.3105C68.09 42.3105 67.47 43.3105 67.78 44.0805C67.86 44.2805 68.01 44.2605 68.16 44.2805C69.07 44.3805 69.21 43.6805 69.42 43.0505C69.59 42.5405 69.56 42.2005 68.95 42.3105H68.94ZM57.1 43.0205C57.11 43.5805 57 44.1205 57.81 44.1305C58.48 44.1305 58.48 43.7305 58.43 43.3005C58.38 42.8005 58.51 42.1305 57.75 42.0705C57.01 42.0205 57.13 42.6305 57.1 43.0205ZM62.57 43.4605C62.54 44.2305 62.76 44.4605 63.39 44.2805C64.05 44.0905 63.86 43.5605 63.81 43.1105C63.77 42.7305 63.94 42.1906 63.25 42.2006C62.57 42.2006 62.65 42.7305 62.59 43.1605C62.58 43.2605 62.57 43.3705 62.57 43.4805V43.4605ZM60.57 16.8105C60.59 16.0505 60.43 15.8305 59.81 15.8605C59.45 15.8805 58.95 15.7905 58.87 16.3505C58.82 16.6805 59.74 17.7605 60.05 17.7405C60.72 17.7005 60.48 17.1405 60.57 16.8105ZM87.19 42.1305C87.79 41.7305 88.05 41.1405 88.31 40.5705C88.41 40.3505 88.5 40.0905 88.29 39.9005C88.1 39.7405 87.83 39.8105 87.61 39.9005C86.89 40.1705 86.68 41.1905 87.19 42.1405V42.1305ZM5.06 49.1805C5.13 49.7205 5.35 50.1605 5.96 50.2105C6.74 50.2705 6.46 49.5805 6.53 49.2305C6.62 48.7305 6.32 48.3605 5.77 48.3205C5.15 48.2805 5.16 48.7805 5.06 49.1905V49.1805ZM6.4 56.0505C6.4 55.5205 6.12 55.0505 5.85 55.0305C5.45 55.0005 4.99 55.6405 5.02 56.2205C5.04 56.6305 5.07 57.1705 5.6 57.1605C6.3 57.1505 6.28 56.4805 6.4 56.0505ZM45.24 19.6705C45.78 19.6805 46.06 19.5905 46.07 19.1705C46.07 18.7405 45.36 18.0805 44.94 18.1405C44.61 18.1905 44.22 18.2505 44.27 18.7405C44.35 19.4105 44.8 19.6605 45.24 19.6805V19.6705ZM41.63 114.861C42.79 113.891 43.14 112.791 43.26 111.361C42.33 112.411 41.8 113.431 41.63 114.861ZM39.03 17.7005C39.01 18.2905 39.59 19.0205 40.14 19.1605C40.36 19.2105 40.56 19.1905 40.51 18.9305C40.4 18.3705 40.42 17.7405 39.89 17.3505C39.7 17.2105 39.48 17.0205 39.24 17.1605C39.06 17.2705 39.05 17.5305 39.03 17.7105V17.7005ZM34.16 50.6505C34.98 50.7605 35.27 50.3606 35.29 49.7006C35.29 49.4006 35.39 49.0305 34.92 48.9605C34.48 48.9005 33.8 49.6905 33.74 50.2705C33.69 50.7305 34.03 50.6105 34.16 50.6405V50.6505ZM47.32 16.6005C47.35 16.3305 47.19 16.1605 46.76 16.1605C46.09 16.1705 45.79 16.5605 45.74 17.1605C45.71 17.5505 45.95 17.8805 46.35 17.8405C46.96 17.7805 47.24 17.3305 47.32 16.5905V16.6005ZM42.95 20.3005C43.21 20.2905 43.51 20.3505 43.5 19.9305C43.49 19.4205 42.69 18.9005 41.91 18.8605C41.65 18.8505 41.51 18.8705 41.51 19.1805C41.51 19.7005 42.21 20.2605 42.95 20.3105V20.3005ZM5.49 63.2406C5.85 63.1706 6.34 63.1705 6.26 62.6605C6.19 62.1905 6.1 61.5306 5.51 61.4906C4.98 61.4506 4.84 62.0105 4.79 62.4705C4.73 62.9805 5.04 63.1806 5.49 63.2406ZM83.58 15.6205C83.58 16.1605 83.77 16.6005 84.35 16.6205C84.78 16.6405 85.04 16.2505 85.01 15.8805C84.98 15.3405 84.53 15.0705 84.04 14.9905C83.55 14.9105 83.62 15.3305 83.58 15.6105V15.6205ZM90.16 39.8205C90.71 39.8205 91.04 39.5005 91.1 38.9305C91.14 38.6105 90.99 38.3905 90.6 38.3905C90.01 38.3905 89.6 38.8005 89.57 39.4405C89.55 39.8805 89.87 39.7705 90.16 39.8205ZM86.97 48.3905C87.01 48.9705 87.22 49.4405 87.87 49.4905C88.17 49.5205 88.35 49.2905 88.36 48.9805C88.37 48.4705 87.78 47.7905 87.35 47.8105C86.97 47.8305 86.98 48.1105 86.97 48.3805V48.3905ZM37.12 12.4105C37.05 12.9705 37.25 13.1705 37.65 13.1405C38.31 13.0705 38.17 12.4905 38.24 12.0905C38.3 11.7705 38.07 11.3905 37.71 11.4305C37.06 11.5105 37.19 12.1205 37.12 12.4105ZM61.84 53.5805C61.65 53.7305 61.17 53.5005 61.18 53.9905C61.19 54.5305 61.62 54.7305 62.1 54.7805C62.58 54.8305 62.66 54.4905 62.68 54.1205C62.7 53.5405 62.24 53.6605 61.85 53.5805H61.84ZM28.94 44.1405C28.71 44.1205 28.5 44.1706 28.49 44.4506C28.45 45.1206 28.93 45.3505 29.45 45.5205C29.62 45.5805 29.85 45.7005 29.99 45.4305C30 45.4105 29.99 45.3805 29.99 45.3505C30.05 44.9305 29.37 44.1505 28.94 44.1505V44.1405ZM118.01 48.1605C117.97 47.9705 118.03 47.4805 117.52 47.4905C117.08 47.5005 116.82 47.8705 116.81 48.3105C116.81 48.7305 117.02 49.0505 117.48 49.0205C117.89 49.0005 118.08 48.7305 118.01 48.1605ZM56.91 76.6105C56.51 76.7405 56.19 76.9705 56.1 77.4005C56.03 77.7505 56.24 78.0005 56.57 78.0005C57.01 78.0005 57.45 77.8105 57.49 77.3005C57.52 76.9705 57.22 76.7505 56.9 76.6105H56.91ZM116.31 62.6205C116.6 62.8305 116.93 62.8305 117.24 62.8305C117.66 62.8305 117.61 62.4405 117.67 62.1805C117.74 61.8905 117.67 61.5406 117.39 61.4206C117.1 61.2906 116.95 61.5905 116.81 61.8205C116.65 62.0905 116.48 62.3506 116.31 62.6306V62.6205ZM76.37 16.3805C76.29 16.0205 76.25 15.7405 76.17 15.4605C76.09 15.2105 76.12 14.7505 75.76 14.8305C75.46 14.9005 75.28 15.3005 75.32 15.6805C75.36 16.1305 75.64 16.3805 76.03 16.5405C76.27 16.6405 76.38 16.5605 76.37 16.3805ZM38.46 15.6305C38.32 15.2305 38.53 14.6305 37.91 14.5505C37.55 14.5005 37.5 14.9005 37.5 15.1905C37.5 15.6605 37.62 16.1605 38.1 16.2705C38.52 16.3605 38.33 15.8605 38.45 15.6305H38.46ZM118.13 43.1505C118.2 42.6905 118.19 42.4205 117.76 42.4005C117.32 42.3705 117.19 42.6305 117.23 42.9905C117.27 43.4005 117.08 44.0905 117.64 44.1005C118.1 44.1105 118.07 43.4305 118.13 43.1505ZM92.55 39.8205C92.23 39.7905 91.92 39.8305 91.93 40.2405C91.96 40.8305 92.42 40.9205 92.89 40.9705C93.25 41.0105 93.36 40.7705 93.35 40.4805C93.33 39.9805 93.02 39.8005 92.55 39.8205ZM77.39 18.2005C77.29 17.8505 77.33 17.3005 76.69 17.2405C76.42 17.2105 76.32 17.4105 76.34 17.6505C76.4 18.1305 76.51 18.6005 77.09 18.7005C77.39 18.7505 77.42 18.5305 77.39 18.2105V18.2005ZM117.65 55.2705C117.48 55.0605 117.8 54.4805 117.24 54.4005C116.76 54.3305 116.76 54.7705 116.74 55.1105C116.72 55.5005 116.77 55.9005 117.23 55.9605C117.63 56.0205 117.65 55.6705 117.65 55.2605V55.2705ZM62.09 93.9905C62 93.6205 62.21 93.0705 61.68 92.9805C61.27 92.9105 61.23 93.3505 61.27 93.6705C61.31 94.0705 61.2 94.6405 61.79 94.6705C62.23 94.7005 61.98 94.2205 62.09 93.9805V93.9905ZM45.71 14.8005C45.75 15.0205 45.69 15.4005 46.12 15.3605C46.5 15.3305 46.89 15.1605 46.86 14.7005C46.83 14.3205 46.51 14.1105 46.12 14.1105C45.7 14.1105 45.7 14.4305 45.71 14.7905V14.8005ZM61.64 108.411C61.61 108.081 61.51 107.741 61.14 107.721C60.83 107.701 60.71 108.051 60.68 108.291C60.64 108.621 60.91 108.801 61.23 108.851C61.54 108.891 61.66 108.711 61.65 108.421L61.64 108.411ZM40.81 111.141L40.78 111.191H40.83L40.81 111.141Z" fill="#A82729"/>
</svg>
