<svg width="10" height="13" viewBox="0 0 10 13" fill="none" xmlns="http://www.w3.org/2000/svg">
<g clip-path="url(#clip0_1494_9863)">
<path d="M9.06228 7.33902C9.06422 7.09545 8.98302 6.95868 8.76941 6.84752C7.97393 6.43383 7.18715 6.00323 6.39601 5.58132C6.29308 5.52623 6.21768 5.47645 6.21817 5.3334C6.22107 4.5848 6.1766 3.83764 6.1075 3.0929C6.02534 2.21333 5.90838 1.33907 5.66481 0.487046C5.58168 0.195626 5.50388 0.150681 5.19361 0.183061C4.21061 0.28455 3.22713 0.38459 2.24414 0.486562C1.77245 0.535374 1.30077 0.582252 0.830053 0.63783C0.505288 0.676492 0.41733 0.829209 0.528485 1.13126C0.572464 1.25111 0.615959 1.37194 0.649789 1.49517C1.0514 2.95662 1.14419 4.45673 1.17318 5.95877C1.20363 7.54393 1.1814 9.13007 1.18188 10.7157C1.18237 10.7882 1.17463 10.8622 1.1872 10.9327C1.21233 11.0724 1.29835 11.1676 1.44237 11.1835C1.57334 11.1985 1.67241 11.1391 1.73476 11.0168C1.77439 10.9395 1.76182 10.8597 1.76182 10.7805C1.76327 9.96373 1.76279 9.1465 1.76279 8.3022C2.53314 8.71686 3.27836 9.1175 4.0231 9.51814C4.09849 9.78395 4.05355 10.056 4.05355 10.3243C4.05258 11.0521 4.07723 11.7804 4.0405 12.5087C4.09849 12.6696 4.21786 12.7383 4.37734 12.6938C4.53973 12.6488 4.58951 12.5155 4.58902 12.355C4.58709 11.4938 4.58999 10.6321 4.58564 9.7709C4.58467 9.64041 4.60062 9.57034 4.75914 9.55487C4.98966 9.53312 5.21632 9.47368 5.44395 9.42632C5.59377 9.39491 5.68897 9.40795 5.66578 9.60368C5.64886 9.74674 5.66578 9.89317 5.66143 10.0377C5.65563 10.2407 5.74987 10.3755 5.95091 10.3726C6.13891 10.3697 6.22928 10.2349 6.2288 10.0459C6.22832 9.84484 6.23412 9.64331 6.22687 9.44227C6.223 9.32531 6.25635 9.2823 6.382 9.26104C7.01413 9.1552 7.64627 9.04453 8.27357 8.91211C8.46785 8.87103 8.48331 8.92854 8.48186 9.09092C8.47558 9.88785 8.47848 10.6848 8.47944 11.4817C8.47944 11.7635 8.57368 11.8891 8.77715 11.8853C8.97046 11.8814 9.05697 11.7611 9.05697 11.4924C9.05745 10.1077 9.05165 8.72314 9.06228 7.33902ZM1.61974 3.77578C1.60379 3.56749 1.60814 3.35243 1.55304 3.1538C1.48877 2.92376 1.62989 2.92714 1.76859 2.90732C2.31663 2.82758 2.86467 2.74832 3.4132 2.67148C4.04098 2.58304 4.66973 2.50185 5.29655 2.40616C5.42655 2.38635 5.46956 2.41438 5.4773 2.54148C5.48938 2.74156 5.51402 2.94115 5.53867 3.19729C5.63775 3.4225 5.45845 3.44618 5.2487 3.48001C4.14924 3.66028 3.05074 3.84827 1.95272 4.0382C1.64632 4.09137 1.64342 4.0933 1.61974 3.77578ZM4.02068 9.02423C3.26821 8.62165 2.55875 8.24083 1.84736 7.86387C1.76859 7.82182 1.76037 7.76383 1.76134 7.68747C1.76472 7.45501 1.76279 7.22207 1.76279 6.95965C2.01361 7.09303 2.24994 7.21772 2.48529 7.34386C2.95021 7.59275 3.41223 7.84599 3.88005 8.08908C3.98782 8.14514 4.0289 8.20893 4.0231 8.32975C4.01343 8.54481 4.02068 8.75987 4.02068 9.02423ZM1.70866 6.13903C1.70866 5.6746 1.71253 5.22563 1.70624 4.77618C1.70431 4.66744 1.74491 4.64956 1.84205 4.63361C3.04445 4.43353 4.24589 4.22813 5.44733 4.02032C5.55897 4.00099 5.6102 4.01984 5.61358 4.14453C5.62325 4.53067 5.63726 4.91681 5.65708 5.30247C5.66288 5.41314 5.60536 5.43779 5.51692 5.45374C4.27102 5.67701 3.02512 5.90222 1.70866 6.13903ZM5.66529 8.69608C5.68076 8.88408 5.64886 8.99185 5.4222 8.99958C5.22502 9.00586 5.02639 9.05516 4.83501 9.10929C4.62672 9.16873 4.55616 9.1059 4.58612 8.89761C4.59627 8.82705 4.58757 8.75359 4.58806 8.68158C4.58854 8.23551 4.58806 8.2331 5.01624 8.16012C5.22551 8.12436 5.49179 7.97067 5.62711 8.09584C5.73295 8.19395 5.64838 8.48972 5.66529 8.69608ZM6.56516 8.78839C6.23025 8.84638 6.22928 8.84155 6.22928 8.50567C6.22928 8.47377 6.2259 8.44139 6.22977 8.40998C6.25103 8.24904 6.14712 7.9958 6.28293 7.94506C6.5265 7.85372 6.80101 7.75223 7.08228 7.93443C7.39544 8.13741 7.73664 8.2964 8.12278 8.50567C7.56797 8.60667 7.06729 8.7014 6.56516 8.78839ZM8.48234 7.67539C8.46833 7.84019 8.47944 8.0074 8.47944 8.20458C8.15951 8.0335 7.86713 7.87692 7.53318 7.69858C7.82266 7.64301 8.06672 7.59903 8.30981 7.54925C8.41903 7.52654 8.49588 7.51784 8.48234 7.67539Z" fill="white"/>
<path d="M4.02265 9.51807C4.09321 9.5577 4.0792 9.62632 4.0792 9.68866C4.07968 10.5842 4.0792 11.4797 4.0792 12.3752C4.0792 12.4236 4.0792 12.4719 4.04005 12.5081C4.03425 11.7286 4.02845 10.9491 4.02314 10.1695C4.02169 9.95254 4.02265 9.73506 4.02217 9.51807H4.02265Z" fill="#010101"/>
</g>
<defs>
<clipPath id="clip0_1494_9863">
<rect width="8.57971" height="12.533" fill="white" transform="translate(0.482605 0.173828)"/>
</clipPath>
</defs>
</svg>
