<svg width="16" height="15" viewBox="0 0 16 15" fill="none" xmlns="http://www.w3.org/2000/svg">
<path d="M3.4589 2.4589L3.19178 2.19178C2.92466 1.92466 2.49315 1.93151 2.23288 2.19178L2.22603 2.19863C1.9589 2.46575 1.9589 2.89726 2.22603 3.15753L2.49315 3.42466C2.76027 3.69178 3.18493 3.69178 3.45205 3.42466L3.4589 3.41781C3.72603 3.15753 3.72603 2.71918 3.4589 2.4589ZM1.37671 6.81507H0.678082C0.30137 6.81507 0 7.11644 0 7.49315V7.5C0 7.87671 0.30137 8.17808 0.678082 8.17808H1.36986C1.75342 8.18493 2.05479 7.88356 2.05479 7.50685V7.5C2.05479 7.11644 1.75342 6.81507 1.37671 6.81507ZM7.5411 0H7.53425C7.15068 0 6.84931 0.30137 6.84931 0.678082V1.33562C6.84931 1.71233 7.15068 2.0137 7.5274 2.0137H7.53425C7.91781 2.02055 8.21918 1.71918 8.21918 1.34247V0.678082C8.21918 0.30137 7.91781 0 7.5411 0ZM12.8425 2.19863C12.5753 1.93151 12.1438 1.93151 11.8767 2.19178L11.6096 2.4589C11.3425 2.72603 11.3425 3.15753 11.6096 3.41781L11.6164 3.42466C11.8836 3.69178 12.3151 3.69178 12.5753 3.42466L12.8425 3.15753C13.1096 2.89041 13.1096 2.46575 12.8425 2.19863ZM11.6027 12.5411L11.8699 12.8082C12.137 13.0753 12.5685 13.0753 12.8356 12.8082C13.1027 12.5411 13.1027 12.1096 12.8356 11.8425L12.5685 11.5753C12.3014 11.3082 11.8699 11.3151 11.6096 11.5753C11.3356 11.8493 11.3356 12.274 11.6027 12.5411ZM13.0137 7.49315V7.5C13.0137 7.87671 13.3151 8.17808 13.6918 8.17808H14.3836C14.7603 8.17808 15.0616 7.87671 15.0616 7.5V7.49315C15.0616 7.11644 14.7603 6.81507 14.3836 6.81507H13.6918C13.3151 6.81507 13.0137 7.11644 13.0137 7.49315ZM7.53425 3.39041C5.26712 3.39041 3.42466 5.23288 3.42466 7.5C3.42466 9.76712 5.26712 11.6096 7.53425 11.6096C9.80137 11.6096 11.6438 9.76712 11.6438 7.5C11.6438 5.23288 9.80137 3.39041 7.53425 3.39041ZM7.5274 15H7.53425C7.91096 15 8.21233 14.6986 8.21233 14.3219V13.6644C8.21233 13.2877 7.91096 12.9863 7.53425 12.9863H7.5274C7.15068 12.9863 6.84931 13.2877 6.84931 13.6644V14.3219C6.84931 14.6986 7.15068 15 7.5274 15ZM2.22603 12.8014C2.49315 13.0685 2.92466 13.0685 3.19178 12.8014L3.4589 12.5342C3.72603 12.2671 3.71918 11.8356 3.4589 11.5753L3.45205 11.5685C3.18493 11.3014 2.75342 11.3014 2.4863 11.5685L2.21918 11.8356C1.9589 12.1096 1.9589 12.5342 2.22603 12.8014Z" fill="white"/>
</svg>
